<svg width="364" height="60" viewBox="0 0 364 60" fill="none" xmlns="http://www.w3.org/2000/svg">
<path d="M25.8155 42.9531C26.0759 42.9531 26.3103 42.888 26.5186 42.7578V39.2031C28.2894 38.0052 30.7634 37.0286 33.9405 36.2734C37.1436 35.5182 40.2556 35.1406 43.2764 35.1406C44.6566 36.5469 45.8025 38.6562 46.7139 41.4688C47.6514 44.2552 48.1462 46.7812 48.1983 49.0469C47.6775 50.0885 46.792 51.2083 45.542 52.4062C44.3181 53.6042 42.8337 54.7109 41.0889 55.7266C36.766 58.2786 31.8051 59.5547 26.2061 59.5547C18.1853 59.5547 11.8702 57.224 7.26079 52.5625C2.49516 47.849 0.11235 41.3255 0.11235 32.9922C0.11235 24.6328 2.71652 18.0703 7.92485 13.3047C10.2165 11.1693 12.8858 9.56771 15.9327 8.5C18.9795 7.40625 22.1827 6.85938 25.542 6.85938C32.1045 6.85938 37.4821 8.44792 41.6749 11.625C45.8676 14.8021 47.9639 18.7214 47.9639 23.3828C47.9639 26.8984 46.8832 29.5026 44.7217 31.1953C42.5603 32.862 39.6306 33.6953 35.9327 33.6953C33.9014 33.6953 31.8571 33.2005 29.7999 32.2109C27.7426 31.1953 26.5186 30.2448 26.128 29.3594C26.128 27.224 26.167 25.5443 26.2452 24.3203C26.1931 24.2943 26.1019 24.2812 25.9717 24.2812H25.6983C25.3077 24.2812 24.9952 24.3984 24.7608 24.6328C24.5525 24.8411 24.3571 25.2969 24.1749 26C24.0186 26.7031 23.9405 28.6172 23.9405 31.7422C23.9405 39.2161 24.5655 42.9531 25.8155 42.9531ZM68.1999 36.7422V43.5781C68.3821 43.7604 68.6816 43.8516 69.0983 43.8516C69.515 43.8516 69.8144 43.7083 69.9967 43.4219C70.179 43.1354 70.2702 42.6406 70.2702 41.9375V36.3516C70.2702 33.8516 70.166 32.1979 69.9577 31.3906C69.7493 30.5573 69.3587 30.1406 68.7858 30.1406C68.4212 30.1406 68.1087 30.2708 67.8483 30.5312C68.0827 33.1094 68.1999 35.1797 68.1999 36.7422ZM53.5905 54.0469C49.3196 49.9323 47.1842 44.3594 47.1842 37.3281C47.1842 30.2708 49.1894 24.7109 53.1999 20.6484C57.2363 16.5599 62.5228 14.5156 69.0592 14.5156C75.5957 14.5156 80.8821 16.638 84.9186 20.8828C88.929 25.1276 90.9342 30.6615 90.9342 37.4844C90.9342 44.2812 88.9941 49.6849 85.1139 53.6953C81.2597 57.7057 76.0124 59.7109 69.3717 59.7109C62.7311 59.7109 57.4707 57.8229 53.5905 54.0469ZM111.444 11.3516V38.8125C111.444 42.6927 112.381 45.2188 114.256 46.3906C114.282 46.5208 114.295 46.7682 114.295 47.1328V47.8359C114.295 51.5599 113.345 54.3854 111.444 56.3125C109.569 58.2396 106.899 59.2031 103.436 59.2031C99.9722 59.2031 97.2249 58.2396 95.1936 56.3125C92.7717 54.0208 91.5608 50.5573 91.5608 45.9219V5.33594C94.2952 3.66927 97.4202 2.83594 100.936 2.83594C104.477 2.83594 107.108 3.59115 108.826 5.10156C110.571 6.58594 111.444 8.66927 111.444 11.3516ZM134.375 11.3516V38.8125C134.375 42.6927 135.312 45.2188 137.187 46.3906C137.213 46.5208 137.226 46.7682 137.226 47.1328V47.8359C137.226 51.5599 136.276 54.3854 134.375 56.3125C132.5 58.2396 129.831 59.2031 126.367 59.2031C122.903 59.2031 120.156 58.2396 118.125 56.3125C115.703 54.0208 114.492 50.5573 114.492 45.9219V5.33594C117.226 3.66927 120.351 2.83594 123.867 2.83594C127.409 2.83594 130.039 3.59115 131.758 5.10156C133.502 6.58594 134.375 8.66927 134.375 11.3516ZM159.611 59.7109C152.397 59.7109 146.707 57.7057 142.54 53.6953C138.27 49.6589 136.134 44.138 136.134 37.1328C136.134 30.1016 138.335 24.5286 142.736 20.4141C146.798 16.5859 151.942 14.6719 158.165 14.6719C164.389 14.6719 169.376 16.3906 173.126 19.8281C176.902 23.2396 178.79 27.4453 178.79 32.4453C178.79 36.8984 177.241 40.2578 174.142 42.5234C171.277 44.6589 167.371 45.7266 162.423 45.7266C158.725 45.7266 155.6 44.9583 153.048 43.4219C152.84 43.5781 152.736 43.8646 152.736 44.2812C152.736 45.0625 153.764 45.7786 155.822 46.4297C157.879 47.1328 160.21 47.4844 162.814 47.4844C165.444 47.4844 167.827 47.1589 169.962 46.5078C172.124 45.8307 173.856 45.0365 175.158 44.125C175.783 44.6719 176.277 45.6875 176.642 47.1719C177.033 48.6302 177.228 49.9714 177.228 51.1953C177.228 52.3932 177.111 53.4609 176.876 54.3984C174.845 56.1172 172.762 57.3411 170.626 58.0703C167.606 59.1641 163.934 59.7109 159.611 59.7109ZM159.103 33.2656C160.405 33.2656 161.056 32.7708 161.056 31.7812C161.056 30.8438 160.366 30.375 158.986 30.375C157.606 30.375 156.811 31.1172 156.603 32.6016C157.332 33.0443 158.165 33.2656 159.103 33.2656ZM200.98 59.7109C194.209 59.7109 188.805 57.6276 184.769 53.4609C180.758 49.2682 178.753 43.6562 178.753 36.625C178.753 29.5938 181.032 24.0339 185.589 19.9453C189.651 16.2995 194.73 14.4766 200.823 14.4766C206.24 14.4766 210.732 15.8177 214.3 18.5C217.868 21.1562 219.651 24.776 219.651 29.3594C219.651 32.5365 218.662 35.1276 216.683 37.1328C214.73 39.112 212.151 40.1016 208.948 40.1016C206.344 40.1016 204.17 39.4115 202.425 38.0312C200.706 36.625 199.69 34.8021 199.378 32.5625C198.232 32.5625 197.659 32.9792 197.659 33.8125C197.659 35.7135 198.597 37.4583 200.472 39.0469C202.633 40.9219 205.315 41.8594 208.519 41.8594C211.748 41.8594 214.417 41.1693 216.526 39.7891C217.828 41.7943 218.48 44.2292 218.48 47.0938C218.48 50.4271 217.047 53.2786 214.183 55.6484C210.901 58.3568 206.5 59.7109 200.98 59.7109ZM224.106 33.8125H226.528C227.83 33.8125 228.481 33.3828 228.481 32.5234C228.481 32.4193 228.455 32.263 228.403 32.0547H219.653C219.08 30.2318 218.794 28.2005 218.794 25.9609C218.794 23.6953 218.963 21.8594 219.301 20.4531C220.786 19.5156 222.83 18.0833 225.434 16.1562C226.163 14.3854 227.114 11.5729 228.286 7.71875C228.442 7.19792 228.624 6.6901 228.833 6.19531C230.864 5.67448 233.182 5.41406 235.786 5.41406C238.39 5.41406 240.955 5.6875 243.481 6.23438V15.8047H250.239C251.749 18.0964 252.505 20.7917 252.505 23.8906C252.505 25.2969 252.309 26.7422 251.919 28.2266C251.528 29.7109 250.968 30.974 250.239 32.0156H244.653V37.9141C244.653 41.2474 246.046 42.9141 248.833 42.9141H250.512C251.059 44.8932 251.333 46.612 251.333 48.0703C251.333 51.6641 250.2 54.4245 247.934 56.3516C245.695 58.2526 242.426 59.2031 238.13 59.2031C233.859 59.2031 230.447 58.0182 227.895 55.6484C225.369 53.2526 224.106 49.737 224.106 45.1016V33.8125ZM272.74 23.3438V38.8125C272.74 42.6927 273.678 45.2188 275.553 46.3906C275.579 46.5208 275.592 46.7682 275.592 47.1328V47.8359C275.592 51.6641 274.55 54.5417 272.467 56.4688C270.54 58.2917 267.962 59.2031 264.733 59.2031C261.53 59.2031 258.886 58.2917 256.803 56.4688C254.173 54.151 252.858 50.7656 252.858 46.3125V20.9219C253.326 20.5833 253.834 20.3099 254.381 20.1016C254.928 19.8932 255.501 19.6328 256.1 19.3203C254.98 18.7474 253.964 17.7578 253.053 16.3516C252.142 14.9193 251.686 13.2526 251.686 11.3516C251.686 8.07031 252.767 5.38802 254.928 3.30469C257.089 1.22135 259.733 0.179688 262.858 0.179688C266.009 0.179688 268.639 1.2474 270.748 3.38281C272.884 5.49219 273.951 8.14844 273.951 11.3516C273.951 13.9297 273.144 16.1953 271.53 18.1484C269.915 20.0755 267.949 21.2865 265.631 21.7812C265.631 22.7708 266.009 23.2656 266.764 23.2656C268.092 23.2656 269.446 22.7448 270.826 21.7031C271.868 22.5104 272.506 23.0573 272.74 23.3438ZM295.516 36.7422V43.5781C295.698 43.7604 295.997 43.8516 296.414 43.8516C296.831 43.8516 297.13 43.7083 297.312 43.4219C297.495 43.1354 297.586 42.6406 297.586 41.9375V36.3516C297.586 33.8516 297.482 32.1979 297.273 31.3906C297.065 30.5573 296.674 30.1406 296.101 30.1406C295.737 30.1406 295.424 30.2708 295.164 30.5312C295.398 33.1094 295.516 35.1797 295.516 36.7422ZM280.906 54.0469C276.635 49.9323 274.5 44.3594 274.5 37.3281C274.5 30.2708 276.505 24.7109 280.516 20.6484C284.552 16.5599 289.838 14.5156 296.375 14.5156C302.911 14.5156 308.198 16.638 312.234 20.8828C316.245 25.1276 318.25 30.6615 318.25 37.4844C318.25 44.2812 316.31 49.6849 312.43 53.6953C308.575 57.7057 303.328 59.7109 296.687 59.7109C290.047 59.7109 284.786 57.8229 280.906 54.0469ZM360.556 39.1641C360.556 41.0391 360.764 42.5495 361.181 43.6953C361.598 44.8411 362.327 45.7396 363.369 46.3906C363.395 46.5208 363.408 46.7682 363.408 47.1328V47.8359C363.408 51.4297 362.366 54.2292 360.283 56.2344C358.225 58.2135 355.556 59.2031 352.275 59.2031C349.02 59.2031 346.376 58.2786 344.345 56.4297C341.975 54.3203 340.79 51.1172 340.79 46.8203C340.79 44.9974 340.869 43.3958 341.025 42.0156C341.207 40.6094 341.324 39.6068 341.376 39.0078C341.455 38.4089 341.533 37.849 341.611 37.3281C341.689 36.8073 341.728 36.0391 341.728 35.0234C341.728 34.0078 341.585 33.2786 341.298 32.8359C341.038 32.3932 340.66 32.1719 340.165 32.1719C339.697 32.1719 339.28 32.276 338.915 32.4844L339.423 38.8516C338.955 41.4818 338.72 44.2682 338.72 47.2109C338.72 50.1536 339.384 52.8359 340.712 55.2578C338.16 57.888 334.58 59.2031 329.97 59.2031C327.34 59.2031 325.061 58.513 323.134 57.1328C320.895 55.5703 319.775 53.5 319.775 50.9219V32.0156C318.238 29.8542 317.47 27.1979 317.47 24.0469C317.47 20.8698 318.238 18.1224 319.775 15.8047H326.728C328.577 15.8047 330.152 16.4948 331.455 17.875C330.309 18.9427 329.736 19.8281 329.736 20.5312C329.736 21.3385 330.192 21.7422 331.103 21.7422C332.249 19.763 333.994 18.1224 336.337 16.8203C338.707 15.5182 341.389 14.8672 344.384 14.8672C348.889 14.8672 352.548 15.974 355.361 18.1875C358.902 20.974 360.673 25.2969 360.673 31.1562L360.556 39.1641Z" fill="#FF3F2B"/>
</svg>
