<svg width="202" height="30" viewBox="0 0 202 30" fill="none" xmlns="http://www.w3.org/2000/svg">
<path d="M27.6654 22.3617C28.9596 20.1582 29.7021 17.5911 29.7021 14.8507C29.7021 12.1102 28.9596 9.54318 27.6654 7.33964L20.732 14.8507L27.6654 22.3617Z" fill="white"/>
<path fill-rule="evenodd" clip-rule="evenodd" d="M25.3494 25.3519C22.6621 28.0384 18.9501 29.7 14.8501 29.7C6.6486 29.7 0 23.0514 0 14.85C0 6.64858 6.6486 0 14.8501 0C18.9501 0 22.6621 1.66155 25.3494 4.34808H20.2072L10.5606 14.85L20.2072 25.3519H25.3494ZM8.19723 7.31168L9.33132 6.1776L10.4653 7.31168L9.33132 8.44569L8.19723 7.31168ZM9.32788 5.50744L8.99346 4.8114L4.87082 6.79226L5.20524 7.4883L9.32788 5.50744Z" fill="white"/>
<path d="M41.7022 28.1193V7.27661C41.7022 6.99014 41.7927 6.75684 41.9738 6.57649C42.1655 6.38562 42.3999 6.29012 42.6768 6.29012H45.7606C46.0375 6.29012 46.2665 6.38562 46.4475 6.57649C46.6393 6.75684 46.7352 6.99014 46.7352 7.27661V7.75385C48.4182 6.56585 50.3728 5.97185 52.5991 5.97185C54.8254 5.97185 56.6841 6.75684 58.1753 8.32669C59.6666 9.88591 60.4123 12.1241 60.4123 15.041C60.4123 17.9478 59.64 20.1744 58.0955 21.7234C56.5509 23.2723 54.4685 24.0462 51.8481 24.0462C50.4954 24.0462 48.9562 23.7758 47.2305 23.235V28.1193C47.2305 28.4056 47.1346 28.6398 46.9429 28.8197C46.7618 29.0109 46.5327 29.1059 46.2559 29.1059H42.6768C42.3999 29.1059 42.1655 29.0109 41.9738 28.8197C41.7927 28.6398 41.7022 28.4056 41.7022 28.1193ZM47.2305 19.5601C48.6046 19.9945 49.7604 20.2118 50.6977 20.2118C52.157 20.2118 53.1902 19.7988 53.7974 18.9706C54.4153 18.1435 54.7241 16.8232 54.7241 15.0092C54.7241 13.1953 54.4312 11.8801 53.8454 11.0633C53.2701 10.236 52.4021 9.82233 51.241 9.82233C50.0906 9.82233 48.7537 10.2996 47.2305 11.2543V19.5601ZM63.3682 2.96474V2.42381C63.3682 1.8616 63.528 1.41616 63.8475 1.08736C64.1777 0.758457 64.6305 0.594062 65.2056 0.594062H67.1869C67.7514 0.594062 68.1988 0.758457 68.529 1.08736C68.8592 1.40552 69.0244 1.85108 69.0244 2.42381V2.96474C69.0244 3.52695 68.8592 3.97251 68.529 4.3013C68.2095 4.63009 67.7621 4.79449 67.1869 4.79449H65.2056C64.6412 4.79449 64.1937 4.63009 63.8635 4.3013C63.5334 3.97251 63.3682 3.52695 63.3682 2.96474ZM63.4321 22.7575V7.65847C63.4321 7.37211 63.5227 7.13869 63.7038 6.95834C63.8955 6.77811 64.1299 6.68793 64.4068 6.68793H67.9858C68.2734 6.68793 68.5078 6.78331 68.6888 6.9743C68.8699 7.15465 68.9604 7.38263 68.9604 7.65847V22.7575C68.9604 23.0437 68.8646 23.2779 68.6729 23.4578C68.4918 23.6377 68.2627 23.7283 67.9858 23.7283H64.4068C64.1192 23.7283 63.8848 23.6377 63.7038 23.4578C63.5227 23.2779 63.4321 23.0437 63.4321 22.7575ZM71.5488 23.235C71.5062 23.1286 71.485 23.0019 71.485 22.8537C71.485 22.6941 71.5702 22.5188 71.7406 22.3276L77.3009 14.9933L72.1081 7.69027C71.7672 7.24471 71.746 6.85233 72.0442 6.5129C72.1721 6.36434 72.353 6.29012 72.5874 6.29012H76.0547C77.0878 6.29012 77.9188 6.75684 78.5472 7.69027L81.1996 11.6998L83.8519 7.69027C84.4803 6.75684 85.3111 6.29012 86.3444 6.29012H89.8117C90.0459 6.29012 90.2271 6.36434 90.3549 6.5129C90.6531 6.85233 90.6319 7.24471 90.291 7.69027L85.0981 14.9933L90.6585 22.3276C90.8289 22.5188 90.9141 22.6998 90.9141 22.8695C90.9141 23.0279 90.8928 23.1501 90.8502 23.235C90.7649 23.5642 90.536 23.7283 90.1631 23.7283H86.7598C85.7798 23.7283 84.949 23.2621 84.2673 22.3276L81.1996 18.191L78.1158 22.3276C77.4447 23.2621 76.6192 23.7283 75.6392 23.7283H72.2359C71.8631 23.7283 71.6341 23.5642 71.5488 23.235ZM94.5251 21.7234C92.8848 20.1744 92.0645 17.9478 92.0645 15.041C92.0645 12.1241 92.89 9.88591 94.5411 8.32669C96.1921 6.75684 98.4823 5.97185 101.412 5.97185C104.341 5.97185 106.626 6.73557 108.266 8.263C109.907 9.7799 110.727 11.9596 110.727 14.8023V15.7093C110.727 15.9956 110.631 16.2348 110.439 16.4249C110.258 16.6059 110.024 16.6953 109.736 16.6953H97.7048C97.8112 18.001 98.184 18.9502 98.8232 19.5442C99.4729 20.1382 100.506 20.4347 101.923 20.4347C103.34 20.4347 104.309 20.1167 104.831 19.4797C105.353 18.8439 105.997 18.5203 106.764 18.5101H109.145C109.432 18.5101 109.667 18.6052 109.848 18.7964C110.04 18.9763 110.136 19.2093 110.136 19.4956C110.136 22.5403 107.222 24.0575 101.396 24.0462C98.4557 24.0462 96.1656 23.2723 94.5251 21.7234ZM97.6727 13.3386H105.103C104.996 10.8353 103.76 9.5836 101.396 9.5836C99.0415 9.5836 97.8006 10.8353 97.6727 13.3386ZM113.667 22.7575V1.89871C113.667 1.61235 113.757 1.37905 113.938 1.1987C114.13 1.00782 114.364 0.912331 114.641 0.912331H118.22C118.497 0.912331 118.726 1.00782 118.907 1.1987C119.099 1.37905 119.195 1.61235 119.195 1.89871V22.7575C119.195 23.0336 119.099 23.2666 118.907 23.4578C118.726 23.6377 118.497 23.7283 118.22 23.7283H114.641C114.364 23.7283 114.13 23.6377 113.938 23.4578C113.757 23.2666 113.667 23.0336 113.667 22.7575ZM124.244 22.5833C122.838 21.6068 122.135 20.2276 122.135 18.4456C122.135 16.6636 122.838 15.2956 124.244 14.3409C125.661 13.3863 127.482 12.909 129.708 12.909H134.997C134.997 11.6679 134.736 10.8035 134.214 10.3155C133.692 9.82765 132.776 9.5836 131.466 9.5836C130.167 9.5836 129.25 9.90719 128.718 10.5541C128.196 11.1907 127.551 11.5088 126.785 11.5088H124.404C124.116 11.5088 123.877 11.4187 123.685 11.2383C123.504 11.0474 123.413 10.814 123.413 10.5383C123.413 7.49408 126.316 5.97185 132.121 5.97185C134.656 5.97185 136.691 6.53938 138.224 7.67431C139.758 8.79873 140.525 10.5436 140.525 12.909V22.7575C140.525 23.0437 140.435 23.2779 140.254 23.4578C140.073 23.6377 139.839 23.7283 139.55 23.7283H136.467C136.179 23.7283 135.945 23.6377 135.764 23.4578C135.583 23.2666 135.493 23.0336 135.493 22.7575V22.2642C133.809 23.4635 131.866 24.0575 129.661 24.0462C127.466 24.0462 125.661 23.5585 124.244 22.5833ZM130.092 16.5211C129.346 16.5211 128.755 16.701 128.318 17.0619C127.892 17.4228 127.679 17.889 127.679 18.4615C127.679 19.0351 127.903 19.5069 128.35 19.878C128.798 20.2491 129.432 20.4347 130.252 20.4347C131.892 20.4347 133.474 19.9572 134.997 19.0023V16.5211H130.092ZM152.812 20.2751L155.002 20.0851H155.592C155.88 20.0851 156.115 20.1744 156.296 20.3555C156.488 20.5354 156.583 20.7684 156.583 21.0558V22.7575C156.583 22.9906 156.488 23.2033 156.296 23.3945C156.115 23.5744 155.88 23.6853 155.592 23.7283C154.506 23.941 153.089 24.0462 151.343 24.0462C146.762 24.0462 144.472 21.66 144.472 16.8865V1.89871C144.472 1.61235 144.562 1.37905 144.744 1.1987C144.936 1.00782 145.17 0.912331 145.447 0.912331H149.026C149.302 0.912331 149.532 1.00782 149.713 1.1987C149.905 1.37905 150 1.61235 150 1.89871V7.21292H154.459C154.735 7.21292 154.964 7.30309 155.145 7.48344C155.337 7.66379 155.433 7.89709 155.433 8.18346V10.0769C155.433 10.3633 155.337 10.5967 155.145 10.7769C154.964 10.9573 154.735 11.0474 154.459 11.0474H150V16.8865C150 17.9682 150.256 18.8065 150.767 19.4005C151.278 19.9844 151.96 20.2751 152.812 20.2751ZM160.513 21.7234C158.874 20.1744 158.053 17.9478 158.053 15.041C158.053 12.1241 158.878 9.88591 160.529 8.32669C162.181 6.75684 164.471 5.97185 167.4 5.97185C170.33 5.97185 172.614 6.73557 174.255 8.263C175.895 9.7799 176.716 11.9596 176.716 14.8023V15.7093C176.716 15.9956 176.619 16.2348 176.428 16.4249C176.246 16.6059 176.012 16.6953 175.725 16.6953H163.694C163.8 18.001 164.173 18.9502 164.812 19.5442C165.462 20.1382 166.494 20.4347 167.911 20.4347C169.328 20.4347 170.297 20.1167 170.82 19.4797C171.341 18.8439 171.986 18.5203 172.753 18.5101H175.134C175.422 18.5101 175.656 18.6052 175.836 18.7964C176.028 18.9763 176.125 19.2093 176.125 19.4956C176.125 22.5403 173.211 24.0575 167.384 24.0462C164.445 24.0462 162.154 23.2723 160.513 21.7234ZM163.662 13.3386H171.091C170.985 10.8353 169.75 9.5836 167.384 9.5836C165.03 9.5836 163.789 10.8353 163.662 13.3386ZM179.655 2.96474V2.42381C179.655 1.8616 179.815 1.41616 180.135 1.08736C180.465 0.758457 180.917 0.594062 181.492 0.594062H183.474C184.039 0.594062 184.486 0.758457 184.817 1.08736C185.146 1.40552 185.311 1.85108 185.311 2.42381V2.96474C185.311 3.52695 185.146 3.97251 184.817 4.3013C184.496 4.63009 184.049 4.79449 183.474 4.79449H181.492C180.929 4.79449 180.481 4.63009 180.15 4.3013C179.821 3.97251 179.655 3.52695 179.655 2.96474ZM179.72 22.7575V7.65847C179.72 7.37211 179.81 7.13869 179.991 6.95834C180.182 6.77811 180.417 6.68793 180.694 6.68793H184.273C184.56 6.68793 184.795 6.78331 184.976 6.9743C185.158 7.15465 185.247 7.38263 185.247 7.65847V22.7575C185.247 23.0437 185.152 23.2779 184.96 23.4578C184.779 23.6377 184.55 23.7283 184.273 23.7283H180.694C180.406 23.7283 180.172 23.6377 179.991 23.4578C179.81 23.2779 179.72 23.0437 179.72 22.7575ZM197.582 20.2751L199.772 20.0851H200.362C200.65 20.0851 200.885 20.1744 201.066 20.3555C201.258 20.5354 201.353 20.7684 201.353 21.0558V22.7575C201.353 22.9906 201.258 23.2033 201.066 23.3945C200.885 23.5744 200.65 23.6853 200.362 23.7283C199.276 23.941 197.859 24.0462 196.113 24.0462C191.532 24.0462 189.242 21.66 189.242 16.8865V1.89871C189.242 1.61235 189.332 1.37905 189.514 1.1987C189.706 1.00782 189.94 0.912331 190.217 0.912331H193.796C194.072 0.912331 194.302 1.00782 194.483 1.1987C194.675 1.37905 194.77 1.61235 194.77 1.89871V7.21292H199.229C199.506 7.21292 199.734 7.30309 199.916 7.48344C200.107 7.66379 200.203 7.89709 200.203 8.18346V10.0769C200.203 10.3633 200.107 10.5967 199.916 10.7769C199.734 10.9573 199.506 11.0474 199.229 11.0474H194.77V16.8865C194.77 17.9682 195.026 18.8065 195.537 19.4005C196.048 19.9844 196.73 20.2751 197.582 20.2751Z" fill="white"/>
</svg>
