<svg width="248" height="30" viewBox="0 0 248 30" fill="none" xmlns="http://www.w3.org/2000/svg">
<path d="M27.9448 22.5879C29.2522 20.3621 30.0022 17.7691 30.0022 15.001C30.0022 12.2329 29.2522 9.63986 27.9448 7.41406L20.9414 15.001L27.9448 22.5879Z" fill="#FF3F2B"/>
<path fill-rule="evenodd" clip-rule="evenodd" d="M25.6054 25.608C22.891 28.3217 19.1415 30 15.0001 30C6.71576 30 0 23.2843 0 15C0 6.71573 6.71576 0 15.0001 0C19.1415 0 22.891 1.67833 25.6054 4.392H20.4114L10.6673 15L20.4114 25.608H25.6054ZM8.28003 7.38553L9.42557 6.24L10.571 7.38553L9.42557 8.531L8.28003 7.38553ZM9.4221 5.56307L9.0843 4.86L4.92002 6.86087L5.25782 7.56393L9.4221 5.56307Z" fill="#FF3F2B"/>
<path d="M42.8594 24.091V5.90918H43.6945L53.6912 5.94508C58.795 5.94508 61.3469 8.29873 61.3469 13.006C61.3469 17.7049 58.795 20.0543 53.6912 20.0543H47.6299V24.091H42.8594ZM47.6299 16.4732H52.2487C53.6659 16.4732 54.7415 16.237 55.4755 15.7646C56.2094 15.2838 56.5764 14.3642 56.5764 13.006C56.5764 11.6394 56.2094 10.7199 55.4755 10.2475C54.7415 9.7666 53.6659 9.52618 52.2487 9.52618H47.6299V16.4732Z" fill="white"/>
<path d="M63.6879 24.091V5.94508H68.4585V24.091H63.6879Z" fill="white"/>
<path d="M69.742 24.091L77.1771 14.765L70.2435 5.94508H75.6413L79.999 11.5508L84.3598 5.94518L89.7607 5.94508L82.8208 14.765L90.1042 24.091H84.5508L79.999 17.9791L75.2953 24.091H69.742Z" fill="white"/>
<path d="M91.5268 24.091V5.94519L108.509 5.94508V9.52618H96.2974V13.2085H106.977V16.7769H96.2974V20.5099H108.458V24.091H91.5268Z" fill="white"/>
<path d="M110.837 24.091V5.94508H115.607V20.5099H127.819V24.091H110.837Z" fill="white"/>
<path d="M128.14 24.091L131.577 10.8802C132.437 7.59854 135.238 5.95352 139.979 5.94508L147.888 5.94515V24.091H143.117V19.7127H134.12L132.893 24.091L128.14 24.091ZM135.057 16.1316H143.117V9.52618H139.511C138.701 9.52618 137.992 9.75817 137.385 10.2221C136.786 10.6777 136.381 11.2935 136.17 12.0696L135.057 16.1316Z" fill="white"/>
<path d="M149.951 9.52618V5.94515L168.413 5.94567V9.52618H161.567V24.091H156.796V9.52618H149.951Z" fill="white"/>
<path d="M170.488 24.091V5.94438L187.47 5.94506V9.52618H175.259V13.2085H185.939V16.7769H175.259V20.5099H187.419V24.091H170.488Z" fill="white"/>
<path d="M204.096 14.3285C204.096 13.3338 204.051 12.6525 203.962 12.2844C203.872 11.9065 203.708 11.7175 203.469 11.7175C203.32 11.7175 203.186 11.7672 203.066 11.8667C203.086 12.0457 203.116 12.2844 203.156 12.5829C203.196 12.8813 203.216 13.5179 203.216 14.4926V15.4625C203.216 16.1388 203.201 16.6312 203.171 16.9396C203.141 17.2479 203.116 17.5115 203.096 17.7303C203.086 17.8497 203.076 17.9691 203.066 18.0884C203.186 18.1879 203.32 18.2376 203.469 18.2376C203.708 18.2376 203.872 18.0536 203.962 17.6856C204.051 17.3076 204.096 16.6213 204.096 15.6266V14.3285ZM203.499 25.1009C201.728 25.1009 200.102 24.7379 198.62 24.0118C197.148 23.2757 195.959 22.1567 195.054 20.6547C194.149 19.1428 193.696 17.2579 193.696 14.9999C193.696 11.7274 194.681 9.17109 196.651 7.33093C198.401 5.70959 200.654 4.89893 203.41 4.89893C206.404 4.89893 208.771 5.82895 210.512 7.68901C212.262 9.53912 213.138 11.9761 213.138 14.9999C213.138 18.362 212.203 20.9282 210.333 22.6988C208.632 24.3002 206.354 25.1009 203.499 25.1009Z" fill="white" fill-opacity="0.35"/>
<path d="M213.347 21.8632V6.91316C213.347 6.39592 213.76 5.96821 214.585 5.63002C215.421 5.28188 216.401 5.10781 217.525 5.10781C218.161 5.10781 218.758 5.18738 219.315 5.34653C219.882 5.49574 220.315 5.6897 220.613 5.92842C221.021 6.44566 221.394 6.97284 221.732 7.50997C222.07 8.0471 222.831 9.3004 224.015 11.2699C224.124 11.2699 224.224 11.2351 224.313 11.1654C224.403 11.0958 224.448 10.9914 224.448 10.8521C224.448 10.7029 224.323 10.4194 224.075 10.0017L222.463 7.22648V6.40587C222.971 5.9881 223.587 5.66483 224.313 5.43605C225.039 5.20728 225.79 5.09289 226.566 5.09289C227.83 5.09289 228.849 5.32167 229.625 5.77922C230.53 6.3263 230.983 7.18172 230.983 8.3455V22.475C230.983 23.3304 230.575 23.9521 229.759 24.34C229.063 24.6882 228.133 24.8622 226.969 24.8622C226.323 24.8622 225.691 24.7926 225.074 24.6533C224.468 24.5141 223.99 24.335 223.642 24.1162C222.936 23.211 222.234 22.1965 221.538 21.0725L220.016 18.536C219.728 18.5758 219.584 18.73 219.584 18.9986C219.584 19.1677 219.728 19.4909 220.016 19.9684L221.881 22.9823V23.773C220.728 24.5191 219.425 24.8921 217.972 24.8921C216.53 24.8921 215.396 24.6285 214.57 24.1013C213.755 23.5741 213.347 22.8281 213.347 21.8632Z" fill="white" fill-opacity="0.35"/>
<path d="M238.19 5.37637H246.799C247.087 5.85382 247.301 6.37603 247.44 6.943C247.58 7.50002 247.649 8.00234 247.649 8.44995C247.649 9.45458 247.45 10.2105 247.052 10.7178C246.665 11.2251 246.117 11.4788 245.411 11.4788H239.398C239.03 11.4788 238.846 11.623 238.846 11.9114V12.0308C238.846 12.0905 238.856 12.1303 238.876 12.1502H246.008C246.187 12.4585 246.341 12.8464 246.471 13.3139C246.59 13.8212 246.65 14.2738 246.65 14.6717C246.65 15.8554 246.431 16.7804 245.993 17.4469H242.755C241.243 17.4469 240.219 17.5065 239.682 17.6259C239.145 17.7353 238.811 17.8298 238.682 17.9094C238.553 17.9989 238.488 18.1133 238.488 18.2525C238.488 18.3918 238.558 18.5012 238.697 18.5808C239.214 18.4117 239.756 18.2923 240.323 18.2227C241.069 18.1531 241.88 18.1183 242.755 18.1183H246.948C247.555 18.9737 247.858 20.0032 247.858 21.2068C247.858 21.8831 247.774 22.5297 247.604 23.1464C247.435 23.7631 247.182 24.2604 246.844 24.6384H235.668C234.435 24.6384 233.445 24.34 232.699 23.7432C231.884 23.1066 231.476 22.1716 231.476 20.9382V6.74904C231.476 6.27159 232.023 5.92345 233.117 5.70462C234.211 5.48579 235.902 5.37637 238.19 5.37637Z" fill="white" fill-opacity="0.35"/>
<path d="M191.51 22.5757C191.51 22.2968 191.736 22.0706 192.015 22.0706H194.036C194.314 22.0706 194.541 22.2968 194.541 22.5757V24.5959C194.541 24.8748 194.314 25.1009 194.036 25.1009H192.015C191.736 25.1009 191.51 24.8748 191.51 24.5959V22.5757Z" fill="white" fill-opacity="0.35"/>
</svg>
