<svg width="232" height="58" viewBox="0 0 232 58" fill="none" xmlns="http://www.w3.org/2000/svg">
<path d="M23.2627 56.6641C20.7367 56.6641 18.6273 56.4688 16.9346 56.0781C14.5908 55.5833 12.8721 54.8151 11.7783 53.7734C9.3304 48.5911 7.23405 42.9141 5.48926 36.7422C3.06738 28.2005 1.37467 19.3854 0.411133 10.2969C1.58301 8.57812 3.18457 7.25 5.21582 6.3125C7.24707 5.34896 9.5127 4.86719 12.0127 4.86719C15.7627 4.86719 18.7054 5.58333 20.8408 7.01562C23.0023 8.44792 24.083 10.4922 24.083 13.1484C23.9007 15.1276 23.7314 18.0312 23.5752 21.8594C23.445 25.6875 23.3799 29.151 23.3799 32.25C23.3799 33.1094 23.458 33.7865 23.6143 34.2812C23.7965 34.75 24.1611 34.9844 24.708 34.9844C24.9163 34.9844 25.1768 34.9453 25.4893 34.8672C25.4632 34.6328 25.4502 34.2422 25.4502 33.6953V32.3281C25.4502 28.5521 25.5804 24.2031 25.8408 19.2812C26.1012 14.3333 26.4137 10.6484 26.7783 8.22656C29.1481 6.76823 31.9346 6.03906 35.1377 6.03906C38.3408 6.03906 40.9189 6.48177 42.8721 7.36719C45.2158 8.46094 46.4528 10.0625 46.583 12.1719C46.4528 14.724 46.2054 17.237 45.8408 19.7109C45.5023 22.1849 45.0856 25.0365 44.5908 28.2656C44.096 31.4948 43.7835 33.6302 43.6533 34.6719C43.8617 34.776 44.1351 34.8281 44.4736 34.8281C44.8122 34.8281 45.1247 34.6979 45.4111 34.4375C45.6976 34.1771 45.932 33.5521 46.1143 32.5625C46.9215 28.3958 47.5856 24.0078 48.1064 19.3984C48.6273 14.763 48.9658 10.7266 49.1221 7.28906C51.5179 5.67448 54.8252 4.86719 59.0439 4.86719C62.4554 4.86719 65.1768 5.77865 67.208 7.60156C69.2393 9.39844 70.2549 11.8203 70.2549 14.8672C70.2549 16.8984 69.2913 22.224 67.3643 30.8438C66.3747 35.375 65.4242 39.2552 64.5127 42.4844C63.6012 45.6875 62.859 47.9401 62.2861 49.2422C61.0882 51.8724 59.2913 53.7734 56.8955 54.9453C54.5257 56.0911 51.4919 56.6641 47.7939 56.6641C46.3096 56.6641 44.5908 56.4427 42.6377 56C40.7106 55.5573 39.2393 55.0625 38.2236 54.5156C37.7028 53.7083 37.1169 52.4844 36.4658 50.8438C35.8148 49.2031 35.4111 47.9661 35.2549 47.1328C34.2393 47.1589 33.7314 47.7057 33.7314 48.7734C33.7314 49.6068 34.1351 51.1432 34.9424 53.3828C32.208 55.5703 28.3148 56.6641 23.2627 56.6641Z" fill="#FF3F2B"/>
<path d="M88.8111 34.2422V41.0781C88.9934 41.2604 89.2929 41.3516 89.7096 41.3516C90.1262 41.3516 90.4257 41.2083 90.608 40.9219C90.7903 40.6354 90.8814 40.1406 90.8814 39.4375V33.8516C90.8814 31.3516 90.7773 29.6979 90.5689 28.8906C90.3606 28.0573 89.97 27.6406 89.3971 27.6406C89.0325 27.6406 88.72 27.7708 88.4596 28.0312C88.6939 30.6094 88.8111 32.6797 88.8111 34.2422ZM74.2018 51.5469C69.9309 47.4323 67.7955 41.8594 67.7955 34.8281C67.7955 27.7708 69.8007 22.2109 73.8111 18.1484C77.8476 14.0599 83.1341 12.0156 89.6705 12.0156C96.207 12.0156 101.493 14.138 105.53 18.3828C109.54 22.6276 111.546 28.1615 111.546 34.9844C111.546 41.7812 109.605 47.1849 105.725 51.1953C101.871 55.2057 96.6236 57.2109 89.983 57.2109C83.3424 57.2109 78.082 55.3229 74.2018 51.5469Z" fill="#FF3F2B"/>
<path d="M123.578 56.5078C120.479 56.5078 118.005 55.9479 116.156 54.8281C114.099 53.6562 113.071 51.9245 113.071 49.6328V29.5156C111.534 27.3542 110.766 24.6979 110.766 21.5469C110.766 18.3698 111.534 15.6224 113.071 13.3047H119.047C122.12 13.3047 124.321 14.2943 125.649 16.2734C124.998 17.0026 124.425 17.9271 123.93 19.0469C123.435 20.1667 123.188 20.974 123.188 21.4688C123.188 21.9375 123.305 22.2891 123.539 22.5234C123.8 22.7578 124.164 22.875 124.633 22.875C125.544 19.2552 127.276 16.599 129.828 14.9062C131.938 13.474 134.542 12.7578 137.641 12.7578C141.495 12.7578 144.516 13.5781 146.703 15.2188C147.485 17.3021 147.875 19.8542 147.875 22.875C147.875 25.8698 147.276 28.5911 146.078 31.0391C145.193 31.5078 143.969 31.9115 142.406 32.25C140.844 32.5625 139.268 32.7188 137.68 32.7188C136.091 32.7188 134.659 32.6146 133.383 32.4062C132.133 32.1719 131.222 31.9635 130.649 31.7812C130.44 31.9896 130.336 32.2891 130.336 32.6797C130.336 33.0703 130.584 33.3698 131.078 33.5781C131.599 33.7604 132.459 33.9688 133.656 34.2031V53.8125C130.818 55.6094 127.459 56.5078 123.578 56.5078Z" fill="#FF3F2B"/>
<path d="M167.642 41.3125L165.767 42.1328C165.767 43.8776 166.106 45.7396 166.783 47.7188C167.356 49.5938 168.15 51.2604 169.166 52.7188C166.588 55.375 163.007 56.7031 158.424 56.7031C155.793 56.7031 153.515 56.013 151.588 54.6328C149.348 53.0703 148.228 51 148.228 48.4219V2.83594C149.478 2.10677 150.976 1.50781 152.721 1.03906C154.491 0.570312 156.275 0.335938 158.072 0.335938C161.067 0.335938 163.541 0.921875 165.494 2.09375C167.707 3.47396 168.814 5.45312 168.814 8.03125V12.1719C168.814 15.6354 168.202 19.0208 166.978 22.3281C166.744 22.6667 166.327 23.1615 165.728 23.8125C165.129 24.4375 164.648 25.0104 164.283 25.5312C163.944 26.0521 163.775 26.5078 163.775 26.8984C163.775 27.263 164.088 27.6016 164.713 27.9141C166.744 26.013 168.332 23.9427 169.478 21.7031C170.65 19.4635 171.718 16.4948 172.681 12.7969C173.02 12.7448 173.411 12.6797 173.853 12.6016C174.296 12.5234 175.025 12.4062 176.041 12.25C177.082 12.0677 177.812 11.9766 178.228 11.9766C182.239 11.9766 185.364 12.901 187.603 14.75C189.843 16.5729 190.963 19.0859 190.963 22.2891C190.963 25.4922 189.947 28.2396 187.916 30.5312C186.041 32.5885 183.606 34.138 180.611 35.1797C183.007 36.5859 186.028 37.5885 189.674 38.1875C191.08 40.7396 191.783 43.4609 191.783 46.3516C191.783 49.2161 190.872 51.612 189.049 53.5391C187.017 55.6484 184.205 56.7031 180.611 56.7031C177.043 56.7031 174.101 55.3359 171.783 52.6016C169.491 49.8411 168.111 46.0781 167.642 41.3125Z" fill="#FF3F2B"/>
<path d="M213.035 25.375C212.357 25.5833 212.019 25.987 212.019 26.5859V26.7812C212.019 26.9115 212.032 26.9896 212.058 27.0156C212.344 26.9896 212.722 26.9766 213.191 26.9766H214.128C217.097 26.9766 219.871 27.4323 222.449 28.3438C225.053 29.2292 227.175 30.6615 228.816 32.6406C230.639 34.8802 231.55 37.7057 231.55 41.1172C231.55 46.4297 229.714 50.4401 226.042 53.1484C222.371 55.8568 217.462 57.2109 211.316 57.2109C205.17 57.2109 200.352 56.1953 196.863 54.1641C193.399 52.1328 191.667 49.151 191.667 45.2188C191.667 43.7604 191.98 42.4323 192.605 41.2344C193.23 40.0104 193.933 39.151 194.714 38.6562C196.147 39.8542 198.217 40.8958 200.925 41.7812C203.66 42.6406 206.55 43.0703 209.597 43.0703C210.821 43.0703 211.433 42.7318 211.433 42.0547C211.433 41.7422 211.394 41.4818 211.316 41.2734C211.134 41.2995 210.912 41.3125 210.652 41.3125H210.222C204.701 41.3125 200.287 40.2188 196.98 38.0312C193.23 35.5573 191.355 32.0677 191.355 27.5625C191.355 23.0573 193.035 19.4115 196.394 16.625C200.118 13.5521 205.235 12.0156 211.746 12.0156C214.949 12.0156 217.93 12.3542 220.691 13.0312C223.477 13.7083 225.86 14.6068 227.839 15.7266C228.334 16.7943 228.581 18.3698 228.581 20.4531C228.581 23.6302 227.709 26.0651 225.964 27.7578C224.636 27.0286 223.009 26.4297 221.081 25.9609C219.18 25.4661 217.462 25.2188 215.925 25.2188C214.389 25.2188 213.425 25.2708 213.035 25.375Z" fill="#FF3F2B"/>
</svg>
