<svg width="28" height="28" viewBox="0 0 28 28" fill="none" xmlns="http://www.w3.org/2000/svg">
<path d="M27.9996 0H13.9997C6.26753 0 -0.000183105 6.26777 -0.000183105 14C-0.000183105 21.7322 6.26753 28 13.9997 28C21.7319 28 27.9996 21.7322 27.9996 14C27.9996 12.7971 27.8485 11.6294 27.5627 10.5155H19.9842C20.583 11.5404 20.9255 12.7297 20.9255 14C20.9255 17.8243 17.824 20.9258 13.9997 20.9258C10.1754 20.9258 7.07392 17.8243 7.07392 14C7.07392 10.1757 10.1754 7.07417 13.9997 7.07417V5.71489H25.2837C24.7282 4.95974 24.0998 4.26122 23.4067 3.63283H27.9996V0Z" fill="url(#paint0_linear_537_15)"/>
<path d="M13.9934 3.63281C8.2678 3.63281 3.62634 8.27431 3.62634 14C3.62634 19.7257 8.2678 24.3672 13.9934 24.3672C19.7191 24.3672 24.3605 19.7257 24.3605 14C24.3605 12.7783 24.1475 11.6051 23.7591 10.5155H19.978C20.5767 11.5403 20.9192 12.7297 20.9192 14C20.9192 17.8243 17.8177 20.9258 13.9934 20.9258C10.1691 20.9258 7.06765 17.8243 7.06765 14C7.06765 10.1757 10.1691 7.07415 13.9934 7.07415H24.552C26.4533 7.07415 27.9933 5.53418 27.9933 3.63281H13.9934Z" fill="url(#paint1_linear_537_15)"/>
<path opacity="0.8" d="M14.0008 3.63281C8.27518 3.63281 3.63373 8.27431 3.63373 14C3.63373 19.7257 8.27518 24.3672 14.0008 24.3672C19.7264 24.3672 24.3679 19.7257 24.3679 14C24.3679 12.7783 24.1548 11.6051 23.7665 10.5155H19.9854C20.5841 11.5403 20.9266 12.7297 20.9266 14C20.9266 17.8243 17.8251 20.9258 14.0008 20.9258C10.1765 20.9258 7.07504 17.8243 7.07504 14C7.07504 10.1757 10.1765 7.07415 14.0008 7.07415H24.5594C26.4607 7.07415 28.0007 5.53418 28.0007 3.63281H14.0008Z" fill="url(#paint2_linear_537_15)"/>
<defs>
<linearGradient id="paint0_linear_537_15" x1="8.29084" y1="0.181731" x2="21.776" y2="-1.32271" gradientUnits="userSpaceOnUse">
<stop stop-color="#FF790E"/>
<stop offset="0.982292" stop-color="#FFC698"/>
</linearGradient>
<linearGradient id="paint1_linear_537_15" x1="3.62634" y1="14" x2="27.9906" y2="14" gradientUnits="userSpaceOnUse">
<stop stop-color="#FF3F2B"/>
<stop offset="0.99" stop-color="#FF5E03"/>
</linearGradient>
<linearGradient id="paint2_linear_537_15" x1="3.63373" y1="-14.3573" x2="31.7603" y2="-12.1882" gradientUnits="userSpaceOnUse">
<stop offset="0.277401" stop-color="#FFC698"/>
<stop offset="0.701042" stop-color="#FF790E"/>
</linearGradient>
</defs>
</svg>
