<svg width="129" height="34" viewBox="0 0 129 34" fill="none" xmlns="http://www.w3.org/2000/svg">
<path d="M28.2894 8.69824V31.0244C26.6123 32.2822 24.4636 32.9111 21.8431 32.9111C19.8217 32.9111 18.2194 32.4993 17.0365 31.6758C15.7937 30.8372 15.1722 29.6243 15.1722 28.0371V23.5898H16.767C17.3809 23.5898 17.7627 23.515 17.9125 23.3652C18.0772 23.2005 18.1595 22.9385 18.1595 22.5791H11.1068C11.1068 22.9385 11.1742 23.2005 11.309 23.3652C11.4437 23.515 11.7657 23.5898 12.2748 23.5898H13.9818V31.0244C12.8288 31.7731 11.7357 32.2747 10.7025 32.5293C9.66931 32.7839 8.61365 32.9111 7.53552 32.9111C5.51404 32.9111 3.91182 32.4993 2.72888 31.6758C1.48604 30.8372 0.864624 29.6243 0.864624 28.0371V5.68848C1.64327 4.86491 2.6016 4.236 3.73962 3.80176C4.89262 3.35254 6.09054 3.12793 7.33337 3.12793C9.14522 3.12793 10.6801 3.57715 11.9379 4.47559C13.3005 5.49382 13.9818 6.90137 13.9818 8.69824V12.6963H16.8344C16.8344 12.307 16.7595 12.0449 16.6097 11.9102C16.475 11.7604 16.2504 11.6855 15.9359 11.6855H15.1722V5.68848C15.9509 4.86491 16.9092 4.236 18.0472 3.80176C19.2002 3.35254 20.3982 3.12793 21.641 3.12793C23.4528 3.12793 24.9877 3.57715 26.2455 4.47559C27.6081 5.49382 28.2894 6.90137 28.2894 8.69824Z" fill="#FF471E"/>
<path d="M41.5423 22.7139C41.722 22.7139 41.9166 22.639 42.1263 22.4893C41.9765 21.9951 41.9017 21.224 41.9017 20.1758V9.08008C43.4889 8.12174 45.3981 7.64258 47.6292 7.64258C48.887 7.64258 49.9876 7.81478 50.931 8.15918C51.8893 8.48861 52.623 8.93034 53.1321 9.48438V21.1865C53.1321 23.4176 53.6712 24.8701 54.7493 25.5439C54.7643 25.6188 54.7718 25.7611 54.7718 25.9707V26.375C54.7718 28.5612 54.1953 30.2158 53.0423 31.3389C51.9941 32.387 50.5491 32.9111 48.7073 32.9111C47.5543 32.9111 46.5061 32.6491 45.5628 32.125C44.6344 31.6009 43.9381 30.8372 43.4739 29.834C42.9648 29.834 42.7103 30.0811 42.7103 30.5752C42.7103 30.9196 42.8825 31.264 43.2269 31.6084C42.7477 31.9977 42.1712 32.3122 41.4974 32.5518C40.8235 32.7913 39.8278 32.9111 38.5101 32.9111C37.2073 32.9111 35.9345 32.6416 34.6917 32.1025C33.1494 31.4437 31.9664 30.4329 31.1429 29.0703C30.1396 27.4531 29.638 25.4017 29.638 22.916V17.2783C28.8743 15.9456 28.4925 14.4782 28.4925 12.876C28.4925 12.0524 28.5973 11.1989 28.8069 10.3154C29.0166 9.43197 29.3535 8.64583 29.8177 7.95703H34.7591C36.6158 7.95703 38.0683 8.39876 39.1165 9.28223C40.1797 10.1507 40.7112 11.4759 40.7112 13.2578V20.5352C40.7112 21.9876 40.9882 22.7139 41.5423 22.7139Z" fill="#FF471E"/>
<path d="M78.6262 21.3887C78.6262 22.4668 78.746 23.3353 78.9856 23.9941C79.2251 24.653 79.6444 25.1696 80.2434 25.5439C80.2584 25.6188 80.2658 25.7611 80.2658 25.9707V26.375C80.2658 28.4414 79.6669 30.0511 78.469 31.2041C77.286 32.3421 75.7512 32.9111 73.8645 32.9111C71.9927 32.9111 70.4729 32.3796 69.3049 31.3164C67.9423 30.1035 67.261 28.2617 67.261 25.791C67.261 24.7428 67.3059 23.8219 67.3957 23.0283C67.5005 22.2197 67.5679 21.6432 67.5979 21.2988C67.6428 20.9544 67.6877 20.6325 67.7326 20.333C67.7776 20.0335 67.8 19.5918 67.8 19.0078C67.8 18.4238 67.7177 18.0046 67.5529 17.75C67.4032 17.4954 67.1861 17.3682 66.9016 17.3682C66.632 17.3682 66.3925 17.4281 66.1828 17.5479L66.4748 21.209C66.2053 22.7214 66.0705 24.3236 66.0705 26.0156C66.0705 27.7077 66.4524 29.25 67.216 30.6426C65.7486 32.1549 63.6897 32.9111 61.0393 32.9111C59.5269 32.9111 58.2167 32.5143 57.1086 31.7207C55.8208 30.8223 55.177 29.6318 55.177 28.1494V17.2783C54.2935 16.0355 53.8518 14.5081 53.8518 12.6963C53.8518 10.8695 54.2935 9.28971 55.177 7.95703H59.175C60.2382 7.95703 61.1441 8.35384 61.8928 9.14746C61.2339 9.76139 60.9045 10.2705 60.9045 10.6748C60.9045 11.139 61.1666 11.3711 61.6906 11.3711C62.3495 10.2331 63.3527 9.28971 64.7004 8.54102C66.063 7.79232 67.6054 7.41797 69.3274 7.41797C71.9179 7.41797 74.0217 8.05436 75.6389 9.32715C77.6753 10.9294 78.6936 13.415 78.6936 16.7842L78.6262 21.3887Z" fill="#FF471E"/>
<path d="M92.4181 33.2031C88.5249 33.2031 85.4178 32.0052 83.0968 29.6094C80.7908 27.1986 79.6378 23.9717 79.6378 19.9287C79.6378 15.8857 80.948 12.6888 83.5685 10.3379C85.9044 8.24154 88.8243 7.19336 92.3283 7.19336C95.4428 7.19336 98.0258 7.96452 100.077 9.50684C102.129 11.0342 103.154 13.1156 103.154 15.751C103.154 17.5778 102.585 19.0677 101.447 20.2207C100.324 21.3587 98.8419 21.9277 97.0001 21.9277C95.5027 21.9277 94.2524 21.5309 93.2492 20.7373C92.2609 19.9287 91.6769 18.8805 91.4972 17.5928C90.8383 17.5928 90.5089 17.8324 90.5089 18.3115C90.5089 19.4046 91.048 20.4079 92.1261 21.3213C93.3689 22.3994 94.9113 22.9385 96.7531 22.9385C98.6098 22.9385 100.145 22.5417 101.358 21.748C102.106 22.901 102.481 24.3011 102.481 25.9482C102.481 27.8649 101.657 29.5046 100.01 30.8672C98.1232 32.4245 95.5926 33.2031 92.4181 33.2031Z" fill="#FF471E"/>
<path d="M126.807 21.3887C126.807 22.4668 126.926 23.3353 127.166 23.9941C127.406 24.653 127.825 25.1696 128.424 25.5439C128.439 25.6188 128.446 25.7611 128.446 25.9707V26.375C128.446 28.4414 127.847 30.0511 126.649 31.2041C125.467 32.3421 123.932 32.9111 122.045 32.9111C120.173 32.9111 118.653 32.3796 117.485 31.3164C116.123 30.1035 115.441 28.2617 115.441 25.791C115.441 24.7428 115.486 23.8219 115.576 23.0283C115.681 22.2197 115.748 21.6432 115.778 21.2988C115.823 20.9544 115.868 20.6325 115.913 20.333C115.958 20.0335 115.981 19.5918 115.981 19.0078C115.981 18.4238 115.898 18.0046 115.733 17.75C115.584 17.4954 115.367 17.3682 115.082 17.3682C114.813 17.3682 114.573 17.4281 114.363 17.5479L114.655 21.209C114.386 22.7214 114.251 24.3236 114.251 26.0156C114.251 27.7077 114.633 29.25 115.397 30.6426C113.929 32.1549 111.87 32.9111 109.22 32.9111C107.707 32.9111 106.397 32.5143 105.289 31.7207C104.001 30.8223 103.357 29.6318 103.357 28.1494V1.9375C104.076 1.51823 104.937 1.17383 105.94 0.904297C106.959 0.634766 107.984 0.5 109.018 0.5C110.74 0.5 112.162 0.836914 113.285 1.51074C114.558 2.30436 115.194 3.44238 115.194 4.9248V7.05859C113.892 7.13346 112.641 7.50781 111.443 8.18164C110.41 8.7806 109.894 9.32715 109.894 9.82129C109.894 9.986 109.954 10.1357 110.073 10.2705C110.193 10.3903 110.335 10.4652 110.5 10.4951C111.129 9.76139 112.012 9.14746 113.15 8.65332C114.303 8.15918 115.666 7.91211 117.238 7.91211C118.811 7.91211 120.226 8.15169 121.483 8.63086C123.071 9.22982 124.321 10.1432 125.234 11.3711C126.328 12.8685 126.874 14.7477 126.874 17.0088L126.807 21.3887Z" fill="#FF471E"/>
</svg>
