<svg width="243" height="30" viewBox="0 0 243 30" fill="none" xmlns="http://www.w3.org/2000/svg">
<path d="M27.9428 22.5876C29.25 20.3618 30 17.7688 30 15.0007C30 12.2326 29.25 9.63957 27.9428 7.41377L20.9399 16.6078L27.9428 22.5876Z" fill="#FF3F2B"/>
<path fill-rule="evenodd" clip-rule="evenodd" d="M25.6036 25.608C22.8893 28.3217 19.1401 30 14.999 30C6.71528 30 0 23.2843 0 15C0 6.71573 6.71528 0 14.999 0C19.1401 0 22.8893 1.67833 25.6036 4.392L20.4099 4.392L10.6665 16.6071L20.4099 25.608H25.6036ZM5.56775 8.531L6.80357 7.71428L8.14194 7.43632L8.67857 7.33928L8.46429 7.66071L9.4803 7.15836L12.157 6.60243L9.42489 8.531L7.60714 8.19643L5.56775 8.531ZM9.69001 5.56307L5.35714 7.2124L5.52603 7.56393L9.69001 5.56307Z" fill="#FF3F2B"/>
<path d="M42 24V6H42.8268L52.7235 6.03554C57.7763 6.03554 60.3027 8.36566 60.3027 13.0259C60.3027 17.6778 57.7763 20.0037 52.7235 20.0037H46.7229V24H42ZM46.7229 16.4584H51.2954C52.6985 16.4584 53.7633 16.2246 54.4899 15.7569C55.2165 15.2808 55.5798 14.3705 55.5798 13.0259C55.5798 11.6729 55.2165 10.7626 54.4899 10.2949C53.7633 9.81885 52.6985 9.58083 51.2954 9.58083H46.7229V16.4584Z" fill="#242222"/>
<path d="M62.6203 24V6.03554H67.3431V24H62.6203Z" fill="#242222"/>
<path d="M68.6138 24L75.9746 14.7672L69.1103 6.03554H74.4541L78.7682 11.5852L83.0854 6.03564L88.4323 6.03554L81.5619 14.7672L88.7723 24H83.2745L78.7682 17.9492L74.1116 24H68.6138Z" fill="#242222"/>
<path d="M90.1808 24V6.03565L106.993 6.03554V9.58083H94.9036V13.2263H105.477V16.7591H94.9036V20.4547H106.943V24H90.1808Z" fill="#242222"/>
<path d="M109.298 24V6.03554H114.021V20.4547H126.11V24H109.298Z" fill="#242222"/>
<path d="M126.428 24L129.83 10.9213C130.682 7.67247 133.455 6.0439 138.149 6.03554L145.978 6.03561V24H141.255V19.6655H132.348L131.133 24L126.428 24ZM133.275 16.1202H141.255V9.58083H137.685C136.883 9.58083 136.182 9.8105 135.58 10.2698C134.987 10.7208 134.587 11.3305 134.378 12.0989L133.275 16.1202Z" fill="#242222"/>
<path d="M148.02 9.58083V6.03561L166.298 6.03613V9.58083H159.521V24H154.798V9.58083H148.02Z" fill="#242222"/>
<path d="M168.352 24V6.03485L185.164 6.03552V9.58083H173.075V13.2263H183.648V16.7591H173.075V20.4547H185.114V24H168.352Z" fill="#242222"/>
<path d="M199.624 14.3353C199.624 13.3506 199.58 12.676 199.491 12.3117C199.402 11.9375 199.24 11.7504 199.004 11.7504C198.856 11.7504 198.723 11.7996 198.605 11.8981C198.625 12.0753 198.654 12.3117 198.693 12.6071C198.733 12.9025 198.753 13.5327 198.753 14.4978V15.4579C198.753 16.1275 198.738 16.615 198.708 16.9202C198.679 17.2255 198.654 17.4865 198.634 17.7031C198.625 17.8213 198.615 17.9394 198.605 18.0576C198.723 18.1561 198.856 18.2053 199.004 18.2053C199.24 18.2053 199.402 18.0231 199.491 17.6588C199.58 17.2846 199.624 16.6051 199.624 15.6204V14.3353ZM199.033 25C197.28 25 195.67 24.6406 194.203 23.9217C192.746 23.193 191.569 22.0852 190.673 20.5982C189.777 19.1014 189.329 17.2354 189.329 15C189.329 11.7602 190.304 9.22944 192.253 7.40768C193.986 5.80256 196.217 5 198.945 5C201.909 5 204.252 5.92073 205.976 7.76219C207.709 9.5938 208.575 12.0064 208.575 15C208.575 18.3284 207.65 20.869 205.798 22.6219C204.114 24.2073 201.859 25 199.033 25Z" fill="#242222" fill-opacity="0.35"/>
<path d="M208.783 21.7947V6.99409C208.783 6.48203 209.191 6.05859 210.009 5.72378C210.836 5.37912 211.806 5.20679 212.919 5.20679C213.549 5.20679 214.14 5.28557 214.691 5.44313C215.252 5.59084 215.681 5.78287 215.976 6.0192C216.38 6.53127 216.749 7.05318 217.084 7.58493C217.419 8.11669 218.172 9.35746 219.344 11.3072C219.452 11.3072 219.551 11.2728 219.639 11.2038C219.728 11.1349 219.772 11.0315 219.772 10.8936C219.772 10.7459 219.649 10.4653 219.403 10.0517L217.808 7.30428V6.49188C218.31 6.07829 218.921 5.75825 219.639 5.53176C220.358 5.30527 221.102 5.19202 221.87 5.19202C223.12 5.19202 224.13 5.41851 224.898 5.87149C225.794 6.4131 226.242 7.25997 226.242 8.41211V22.4003C226.242 23.2472 225.838 23.8626 225.031 24.2467C224.342 24.5913 223.421 24.7637 222.269 24.7637C221.629 24.7637 221.003 24.6947 220.393 24.5569C219.792 24.419 219.319 24.2418 218.975 24.0251C218.276 23.129 217.581 22.1246 216.892 21.0118L215.385 18.5007C215.1 18.5401 214.957 18.6928 214.957 18.9586C214.957 19.126 215.1 19.4461 215.385 19.9188L217.232 22.9025V23.6854C216.089 24.4239 214.799 24.7932 213.362 24.7932C211.934 24.7932 210.811 24.5323 209.994 24.0103C209.186 23.4884 208.783 22.7499 208.783 21.7947Z" fill="#242222" fill-opacity="0.35"/>
<path d="M233.377 5.47267H241.9C242.186 5.94535 242.397 6.46233 242.535 7.02363C242.673 7.57509 242.742 8.07238 242.742 8.51551C242.742 9.51009 242.545 10.2585 242.151 10.7607C241.767 11.2629 241.225 11.514 240.526 11.514H234.574C234.209 11.514 234.027 11.6568 234.027 11.9424V12.0606C234.027 12.1196 234.037 12.159 234.057 12.1787H241.117C241.294 12.484 241.447 12.868 241.575 13.3309C241.693 13.8331 241.752 14.2811 241.752 14.675C241.752 15.8469 241.536 16.7627 241.102 17.4225H237.897C236.4 17.4225 235.386 17.4815 234.854 17.5997C234.322 17.708 233.993 17.8016 233.865 17.8804C233.736 17.969 233.672 18.0822 233.672 18.2201C233.672 18.358 233.741 18.4663 233.879 18.5451C234.391 18.3776 234.928 18.2595 235.489 18.1905C236.228 18.1216 237.03 18.0871 237.897 18.0871H242.048C242.648 18.934 242.949 19.9532 242.949 21.1448C242.949 21.8144 242.865 22.4545 242.698 23.065C242.53 23.6755 242.279 24.1679 241.944 24.5421H230.881C229.66 24.5421 228.68 24.2467 227.941 23.6558C227.134 23.0256 226.73 22.1 226.73 20.8789V6.83161C226.73 6.35894 227.272 6.01428 228.355 5.79764C229.438 5.58099 231.112 5.47267 233.377 5.47267Z" fill="#242222" fill-opacity="0.35"/>
<path d="M187.164 22.5C187.164 22.2239 187.388 22 187.664 22H189.664C189.94 22 190.164 22.2239 190.164 22.5V24.5C190.164 24.7761 189.94 25 189.664 25H187.664C187.388 25 187.164 24.7761 187.164 24.5V22.5Z" fill="#242222" fill-opacity="0.35"/>
</svg>
