<svg width="1600" height="240" viewBox="0 0 1600 240" fill="none" xmlns="http://www.w3.org/2000/svg">
<g filter="url(#filter0_ii_343_128)">
<path d="M223.344 180.702C233.793 162.895 239.787 142.151 239.787 120.006C239.787 97.8612 233.793 77.1172 223.344 59.3108L167.37 120.006L223.344 180.702Z" fill="url(#paint0_radial_343_128)"/>
<path fill-rule="evenodd" clip-rule="evenodd" d="M204.647 204.864C182.952 226.573 152.985 240 119.886 240C53.6746 240 0 186.274 0 120C0 53.7259 53.6746 0 119.886 0C152.985 0 182.952 13.4267 204.647 35.136H163.134L85.2567 120L163.134 204.864H204.647ZM66.1768 59.0843L75.3323 49.92L84.4873 59.0843L75.3323 68.248L66.1768 59.0843ZM75.3046 44.5045L72.6048 38.88L39.3224 54.8869L42.0223 60.5115L75.3046 44.5045Z" fill="url(#paint1_radial_343_128)"/>
<path d="M311.127 227.227V58.8009C311.127 56.4859 311.858 54.6007 313.32 53.1433C314.867 51.6009 316.76 50.8292 318.995 50.8292H343.891C346.126 50.8292 347.975 51.6009 349.436 53.1433C350.985 54.6007 351.759 56.4859 351.759 58.8009V62.6574C365.345 53.0574 381.125 48.2574 399.098 48.2574C417.071 48.2574 432.077 54.6007 444.116 67.2864C456.155 79.8861 462.175 97.9725 462.175 121.544C462.175 145.033 455.94 163.026 443.471 175.542C431.002 188.059 414.19 194.313 393.036 194.313C382.115 194.313 369.689 192.127 355.757 187.757V227.227C355.757 229.54 354.983 231.433 353.436 232.886C351.974 234.431 350.124 235.199 347.889 235.199H318.995C316.76 235.199 314.867 234.431 313.32 232.886C311.858 231.433 311.127 229.54 311.127 227.227ZM355.757 158.061C366.851 161.572 376.181 163.327 383.749 163.327C395.529 163.327 403.871 159.99 408.773 153.298C413.761 146.614 416.254 135.945 416.254 121.287C416.254 106.629 413.889 96.0004 409.16 89.4002C404.516 82.7149 397.508 79.3723 388.134 79.3723C378.847 79.3723 368.054 83.2288 355.757 90.9435V158.061ZM486.038 23.9575V19.5863C486.038 15.0432 487.328 11.4436 489.908 8.78673C492.573 6.12891 496.228 4.80046 500.872 4.80046H516.867C521.424 4.80046 525.036 6.12891 527.702 8.78673C530.367 11.3577 531.701 14.9582 531.701 19.5863V23.9575C531.701 28.5006 530.367 32.101 527.702 34.7579C525.122 37.4148 521.51 38.7433 516.867 38.7433H500.872C496.315 38.7433 492.702 37.4148 490.037 34.7579C487.371 32.101 486.038 28.5006 486.038 23.9575ZM486.554 183.899V61.8866C486.554 59.5725 487.285 57.6864 488.747 56.229C490.295 54.7725 492.187 54.0438 494.422 54.0438H523.316C525.638 54.0438 527.53 54.8146 528.991 56.3579C530.454 57.8153 531.185 59.6576 531.185 61.8866V183.899C531.185 186.212 530.41 188.105 528.863 189.558C527.401 191.012 525.552 191.743 523.316 191.743H494.422C492.101 191.743 490.208 191.012 488.747 189.558C487.285 188.105 486.554 186.212 486.554 183.899ZM552.081 187.757C551.737 186.898 551.565 185.874 551.565 184.676C551.565 183.387 552.253 181.97 553.629 180.425L598.518 121.158L556.596 62.1435C553.844 58.5431 553.672 55.3723 556.08 52.6295C557.112 51.429 558.573 50.8292 560.466 50.8292H588.457C596.798 50.8292 603.506 54.6007 608.579 62.1435L629.992 94.5439L651.404 62.1435C656.478 54.6007 663.185 50.8292 671.526 50.8292H699.518C701.409 50.8292 702.871 51.429 703.903 52.6295C706.311 55.3723 706.14 58.5431 703.388 62.1435L661.465 121.158L706.354 180.425C707.73 181.97 708.418 183.433 708.418 184.804C708.418 186.084 708.246 187.071 707.902 187.757C707.214 190.418 705.365 191.743 702.355 191.743H674.88C666.969 191.743 660.262 187.977 654.758 180.425L629.992 146.998L605.096 180.425C599.679 187.977 593.014 191.743 585.103 191.743H557.628C554.618 191.743 552.769 190.418 552.081 187.757ZM737.57 175.542C724.327 163.026 717.705 145.033 717.705 121.544C717.705 97.9725 724.369 79.8861 737.699 67.2864C751.028 54.6007 769.516 48.2574 793.164 48.2574C816.813 48.2574 835.259 54.4288 848.502 66.7716C861.745 79.0295 868.367 96.6432 868.367 119.615V126.943C868.367 129.258 867.592 131.19 866.045 132.726C864.583 134.189 862.69 134.911 860.369 134.911H763.239C764.099 145.462 767.109 153.133 772.268 157.933C777.514 162.733 785.856 165.129 797.292 165.129C808.729 165.129 816.555 162.559 820.769 157.412C824.983 152.274 830.185 149.659 836.377 149.577H855.596C857.918 149.577 859.81 150.345 861.271 151.89C862.82 153.343 863.594 155.227 863.594 157.54C863.594 182.143 840.074 194.404 793.036 194.313C769.302 194.313 750.813 188.059 737.57 175.542ZM762.981 107.786H822.962C822.101 87.5579 812.126 77.4432 793.036 77.4432C774.031 77.4432 764.013 87.5579 762.981 107.786ZM892.101 183.899V15.3431C892.101 13.029 892.832 11.1438 894.293 9.6864C895.841 8.144 897.733 7.37234 899.969 7.37234H928.863C931.099 7.37234 932.948 8.144 934.41 9.6864C935.957 11.1438 936.731 13.029 936.731 15.3431V183.899C936.731 186.13 935.957 188.013 934.41 189.558C932.948 191.012 931.099 191.743 928.863 191.743H899.969C897.733 191.743 895.841 191.012 894.293 189.558C892.832 188.013 892.101 186.13 892.101 183.899ZM977.493 182.491C966.142 174.601 960.466 163.455 960.466 149.055C960.466 134.655 966.142 123.601 977.493 115.886C988.929 108.172 1003.64 104.315 1021.61 104.315H1064.3C1064.3 94.2861 1062.2 87.301 1057.98 83.3577C1053.77 79.4153 1046.37 77.4432 1035.8 77.4432C1025.31 77.4432 1017.91 80.058 1013.61 85.2859C1009.4 90.4297 1004.19 93.0006 998.002 93.0006H978.783C976.461 93.0006 974.526 92.272 972.978 90.8146C971.516 89.2722 970.785 87.386 970.785 85.1579C970.785 60.5581 994.218 48.2574 1041.09 48.2574C1061.55 48.2574 1077.98 52.8434 1090.36 62.0146C1102.74 71.1008 1108.93 85.2009 1108.93 104.315V183.899C1108.93 186.212 1108.21 188.105 1106.74 189.558C1105.28 191.012 1103.39 191.743 1101.06 191.743H1076.17C1073.85 191.743 1071.96 191.012 1070.49 189.558C1069.03 188.013 1068.3 186.13 1068.3 183.899V179.913C1054.71 189.604 1039.02 194.404 1021.22 194.313C1003.51 194.313 988.929 190.372 977.493 182.491ZM1024.7 133.503C1018.68 133.503 1013.91 134.957 1010.39 137.874C1006.95 140.79 1005.23 144.557 1005.23 149.183C1005.23 153.819 1007.03 157.631 1010.64 160.63C1014.26 163.629 1019.37 165.129 1025.99 165.129C1039.24 165.129 1052.01 161.27 1064.3 153.554V133.503H1024.7ZM1208.12 163.839L1225.8 162.303H1230.57C1232.89 162.303 1234.79 163.026 1236.25 164.489C1237.8 165.942 1238.57 167.826 1238.57 170.148V183.899C1238.57 185.782 1237.8 187.501 1236.25 189.046C1234.79 190.5 1232.89 191.396 1230.57 191.743C1221.8 193.462 1210.36 194.313 1196.26 194.313C1159.28 194.313 1140.8 175.03 1140.8 136.457V15.3431C1140.8 13.029 1141.52 11.1438 1142.99 9.6864C1144.54 8.144 1146.43 7.37234 1148.67 7.37234H1177.56C1179.79 7.37234 1181.64 8.144 1183.1 9.6864C1184.65 11.1438 1185.42 13.029 1185.42 15.3431V58.2861H1221.42C1223.65 58.2861 1225.5 59.0148 1226.96 60.4722C1228.51 61.9296 1229.29 63.8148 1229.29 66.1289V81.4294C1229.29 83.7435 1228.51 85.6297 1226.96 87.0861C1225.5 88.5435 1223.65 89.2722 1221.42 89.2722H1185.42V136.457C1185.42 145.197 1187.49 151.972 1191.61 156.772C1195.74 161.49 1201.25 163.839 1208.12 163.839ZM1270.3 175.542C1257.06 163.026 1250.44 145.033 1250.44 121.544C1250.44 97.9725 1257.1 79.8861 1270.43 67.2864C1283.76 54.6007 1302.25 48.2574 1325.89 48.2574C1349.55 48.2574 1367.99 54.4288 1381.23 66.7716C1394.48 79.0295 1401.1 96.6432 1401.1 119.615V126.943C1401.1 129.258 1400.32 131.19 1398.78 132.726C1397.31 134.189 1395.42 134.911 1393.1 134.911H1295.97C1296.83 145.462 1299.84 153.133 1305 157.933C1310.24 162.733 1318.58 165.129 1330.02 165.129C1341.46 165.129 1349.28 162.559 1353.5 157.412C1357.71 152.274 1362.91 149.659 1369.11 149.577H1388.33C1390.65 149.577 1392.54 150.345 1394 151.89C1395.55 153.343 1396.33 155.227 1396.33 157.54C1396.33 182.143 1372.8 194.404 1325.76 194.313C1302.03 194.313 1283.54 188.059 1270.3 175.542ZM1295.71 107.786H1355.69C1354.83 87.5579 1344.86 77.4432 1325.76 77.4432C1306.76 77.4432 1296.74 87.5579 1295.71 107.786ZM1424.83 23.9575V19.5863C1424.83 15.0432 1426.12 11.4436 1428.7 8.78673C1431.37 6.12891 1435.02 4.80046 1439.66 4.80046H1455.66C1460.22 4.80046 1463.83 6.12891 1466.5 8.78673C1469.16 11.3577 1470.49 14.9582 1470.49 19.5863V23.9575C1470.49 28.5006 1469.16 32.101 1466.5 34.7579C1463.91 37.4148 1460.3 38.7433 1455.66 38.7433H1439.66C1435.11 38.7433 1431.5 37.4148 1428.83 34.7579C1426.17 32.101 1424.83 28.5006 1424.83 23.9575ZM1425.35 183.899V61.8866C1425.35 59.5725 1426.08 57.6864 1427.54 56.229C1429.09 54.7725 1430.98 54.0438 1433.21 54.0438H1462.11C1464.43 54.0438 1466.33 54.8146 1467.79 56.3579C1469.25 57.8153 1469.98 59.6576 1469.98 61.8866V183.899C1469.98 186.212 1469.21 188.105 1467.66 189.558C1466.2 191.012 1464.35 191.743 1462.11 191.743H1433.21C1430.89 191.743 1429 191.012 1427.54 189.558C1426.08 188.105 1425.35 186.212 1425.35 183.899ZM1569.56 163.839L1587.23 162.303H1592C1594.32 162.303 1596.22 163.026 1597.68 164.489C1599.23 165.942 1600 167.826 1600 170.148V183.899C1600 185.782 1599.23 187.501 1597.68 189.046C1596.22 190.5 1594.32 191.396 1592 191.743C1583.23 193.462 1571.79 194.313 1557.7 194.313C1520.71 194.313 1502.23 175.03 1502.23 136.457V15.3431C1502.23 13.029 1502.95 11.1438 1504.42 9.6864C1505.97 8.144 1507.86 7.37234 1510.1 7.37234H1538.99C1541.22 7.37234 1543.07 8.144 1544.53 9.6864C1546.08 11.1438 1546.85 13.029 1546.85 15.3431V58.2861H1582.85C1585.09 58.2861 1586.93 59.0148 1588.4 60.4722C1589.94 61.9296 1590.72 63.8148 1590.72 66.1289V81.4294C1590.72 83.7435 1589.94 85.6297 1588.4 87.0861C1586.93 88.5435 1585.09 89.2722 1582.85 89.2722H1546.85V136.457C1546.85 145.197 1548.92 151.972 1553.05 156.772C1557.17 161.49 1562.68 163.839 1569.56 163.839Z" fill="url(#paint2_radial_343_128)"/>
</g>
<defs>
<filter id="filter0_ii_343_128" x="0" y="0" width="1600" height="240" filterUnits="userSpaceOnUse" color-interpolation-filters="sRGB">
<feFlood flood-opacity="0" result="BackgroundImageFix"/>
<feBlend mode="normal" in="SourceGraphic" in2="BackgroundImageFix" result="shape"/>
<feColorMatrix in="SourceAlpha" type="matrix" values="0 0 0 0 0 0 0 0 0 0 0 0 0 0 0 0 0 0 127 0" result="hardAlpha"/>
<feOffset/>
<feGaussianBlur stdDeviation="14.9856"/>
<feComposite in2="hardAlpha" operator="arithmetic" k2="-1" k3="1"/>
<feColorMatrix type="matrix" values="0 0 0 0 0.469231 0 0 0 0 0.469231 0 0 0 0 0.469231 0 0 0 0.1 0"/>
<feBlend mode="normal" in2="shape" result="effect1_innerShadow_343_128"/>
<feColorMatrix in="SourceAlpha" type="matrix" values="0 0 0 0 0 0 0 0 0 0 0 0 0 0 0 0 0 0 127 0" result="hardAlpha"/>
<feOffset/>
<feGaussianBlur stdDeviation="1.99808"/>
<feComposite in2="hardAlpha" operator="arithmetic" k2="-1" k3="1"/>
<feColorMatrix type="matrix" values="0 0 0 0 0.469231 0 0 0 0 0.469231 0 0 0 0 0.469231 0 0 0 0.05 0"/>
<feBlend mode="normal" in2="effect1_innerShadow_343_128" result="effect2_innerShadow_343_128"/>
</filter>
<radialGradient id="paint0_radial_343_128" cx="0" cy="0" r="1" gradientUnits="userSpaceOnUse" gradientTransform="translate(800 240) rotate(-8.53076) scale(808.95 709.588)">
<stop stop-color="#E7E7E7"/>
<stop offset="1" stop-color="#F5F5F5"/>
</radialGradient>
<radialGradient id="paint1_radial_343_128" cx="0" cy="0" r="1" gradientUnits="userSpaceOnUse" gradientTransform="translate(800 240) rotate(-8.53076) scale(808.95 709.588)">
<stop stop-color="#E7E7E7"/>
<stop offset="1" stop-color="#F5F5F5"/>
</radialGradient>
<radialGradient id="paint2_radial_343_128" cx="0" cy="0" r="1" gradientUnits="userSpaceOnUse" gradientTransform="translate(800 240) rotate(-8.53076) scale(808.95 709.588)">
<stop stop-color="#E7E7E7"/>
<stop offset="1" stop-color="#F5F5F5"/>
</radialGradient>
</defs>
</svg>
