<svg width="256" height="60" viewBox="0 0 256 60" fill="none" xmlns="http://www.w3.org/2000/svg">
<g filter="url(#filter0_dd_966_12)">
<mask id="path-1-inside-1_966_12" fill="white">
<path d="M3 16C3 7.71573 9.71573 1 18 1L236 1C244.284 1 251 7.71573 251 16V38C251 46.2843 244.284 53 236 53H18C9.71573 53 3 46.2843 3 38L3 16Z"/>
</mask>
<path d="M3 16C3 7.71573 9.71573 1 18 1L236 1C244.284 1 251 7.71573 251 16V38C251 46.2843 244.284 53 236 53H18C9.71573 53 3 46.2843 3 38L3 16Z" fill="url(#paint0_linear_966_12)" shape-rendering="crispEdges"/>
<path d="M3 1L251 1L3 1ZM251 38C251 46.8366 243.837 54 235 54H19C10.1634 54 3 46.8366 3 38C3 45.732 9.71573 52 18 52H236C244.284 52 251 45.732 251 38ZM3 53L3 1L3 53ZM251 1V53V1Z" fill="#23211F" fill-opacity="0.22" mask="url(#path-1-inside-1_966_12)"/>
<g filter="url(#filter1_di_966_12)">
<path d="M33.9258 34.8398C33.9258 36.2376 33.5856 37.4375 32.9053 38.4395C32.2249 39.429 31.2168 40.1836 29.8809 40.7031C28.5573 41.2103 26.943 41.4639 25.0381 41.4639C23.2197 41.4639 21.6611 41.1855 20.3623 40.6289C19.0635 40.0723 18.1048 39.3796 17.4863 38.5508C16.8678 37.7096 16.5586 36.8685 16.5586 36.0273C16.5586 35.4707 16.7565 34.9945 17.1523 34.5986C17.5482 34.2028 18.0492 34.0049 18.6553 34.0049C19.1872 34.0049 19.5954 34.1348 19.8799 34.3945C20.1644 34.6543 20.4365 35.0192 20.6963 35.4893C21.2158 36.3923 21.8343 37.0664 22.5518 37.5117C23.2816 37.957 24.2712 38.1797 25.5205 38.1797C26.5348 38.1797 27.3636 37.957 28.0068 37.5117C28.6624 37.054 28.9902 36.5345 28.9902 35.9531C28.9902 35.0625 28.6501 34.4131 27.9697 34.0049C27.3018 33.5967 26.1947 33.207 24.6484 32.8359C22.9043 32.403 21.4818 31.9515 20.3809 31.4814C19.2923 30.999 18.4202 30.3682 17.7646 29.5889C17.109 28.8096 16.7812 27.8509 16.7812 26.7129C16.7812 25.6986 17.0843 24.7399 17.6904 23.8369C18.2965 22.9339 19.1872 22.2165 20.3623 21.6846C21.5498 21.1403 22.9785 20.8682 24.6484 20.8682C25.9596 20.8682 27.1348 21.0042 28.1738 21.2764C29.2253 21.5485 30.0973 21.9134 30.79 22.3711C31.4951 22.8288 32.027 23.3359 32.3857 23.8926C32.7568 24.4492 32.9424 24.9935 32.9424 25.5254C32.9424 26.1068 32.7445 26.583 32.3486 26.9541C31.9652 27.3252 31.4147 27.5107 30.6973 27.5107C30.1777 27.5107 29.7324 27.3623 29.3613 27.0654C29.0026 26.7686 28.5882 26.3232 28.1182 25.7295C27.7347 25.2347 27.2832 24.8389 26.7637 24.542C26.2441 24.2451 25.5391 24.0967 24.6484 24.0967C23.7331 24.0967 22.9723 24.2946 22.3662 24.6904C21.7601 25.0739 21.457 25.5563 21.457 26.1377C21.457 26.6696 21.6797 27.1087 22.125 27.4551C22.5703 27.7891 23.1702 28.0674 23.9248 28.29C24.6794 28.5127 25.7184 28.7848 27.042 29.1064C28.613 29.4899 29.8932 29.9476 30.8828 30.4795C31.8848 31.0114 32.6393 31.6423 33.1465 32.3721C33.666 33.0895 33.9258 33.9121 33.9258 34.8398ZM56.4148 31.166C56.4148 32.6751 56.1798 34.0667 55.7097 35.3408C55.2397 36.6149 54.5593 37.7096 53.6687 38.625C52.7781 39.5404 51.7143 40.2454 50.4773 40.7402C49.2403 41.2227 47.8487 41.4639 46.3025 41.4639C44.7686 41.4639 43.3894 41.2165 42.1648 40.7217C40.9402 40.2269 39.8764 39.5218 38.9734 38.6064C38.0828 37.6787 37.4024 36.5902 36.9324 35.3408C36.4747 34.0791 36.2459 32.6875 36.2459 31.166C36.2459 29.6322 36.4809 28.2282 36.9509 26.9541C37.421 25.68 38.0951 24.5915 38.9734 23.6885C39.8517 22.7855 40.9155 22.0928 42.1648 21.6104C43.4142 21.1156 44.7934 20.8682 46.3025 20.8682C47.8364 20.8682 49.228 21.1156 50.4773 21.6104C51.7267 22.1051 52.7966 22.8102 53.6873 23.7256C54.5779 24.641 55.252 25.7295 55.7097 26.9912C56.1798 28.2529 56.4148 29.6445 56.4148 31.166ZM51.3308 31.166C51.3308 29.1003 50.8731 27.4922 49.9578 26.3418C49.0548 25.1914 47.8364 24.6162 46.3025 24.6162C45.3129 24.6162 44.4408 24.876 43.6863 25.3955C42.9317 25.9027 42.3504 26.6572 41.9421 27.6592C41.5339 28.6611 41.3298 29.8301 41.3298 31.166C41.3298 32.4896 41.5278 33.6462 41.9236 34.6357C42.3318 35.6253 42.907 36.3861 43.6492 36.918C44.4037 37.4375 45.2882 37.6973 46.3025 37.6973C47.8364 37.6973 49.0548 37.1221 49.9578 35.9717C50.8731 34.8089 51.3308 33.207 51.3308 31.166ZM77.8277 35.1924C77.8277 35.8232 77.6359 36.4974 77.2525 37.2148C76.8814 37.9323 76.3062 38.6188 75.5269 39.2744C74.7599 39.9176 73.7889 40.4372 72.6138 40.833C71.4387 41.2288 70.1151 41.4268 68.6431 41.4268C65.5135 41.4268 63.0705 40.5176 61.314 38.6992C59.5575 36.8685 58.6792 34.4193 58.6792 31.3516C58.6792 29.2734 59.0812 27.4365 59.8853 25.8408C60.6893 24.2451 61.8521 23.0143 63.3736 22.1484C64.895 21.2702 66.7134 20.8311 68.8286 20.8311C70.1398 20.8311 71.3397 21.0228 72.4282 21.4062C73.5292 21.7897 74.4569 22.2845 75.2114 22.8906C75.9784 23.4967 76.5598 24.1462 76.9556 24.8389C77.3638 25.5192 77.5679 26.1562 77.5679 26.75C77.5679 27.3561 77.339 27.8695 76.8814 28.29C76.4361 28.7106 75.8918 28.9209 75.2486 28.9209C74.828 28.9209 74.4754 28.8158 74.1909 28.6055C73.9188 28.3828 73.6096 28.0303 73.2632 27.5479C72.6447 26.6077 71.9953 25.9027 71.315 25.4326C70.647 24.9626 69.7935 24.7275 68.7544 24.7275C67.2577 24.7275 66.0516 25.3151 65.1362 26.4902C64.2209 27.653 63.7632 29.2487 63.7632 31.2773C63.7632 32.2298 63.8807 33.1081 64.1157 33.9121C64.3508 34.7038 64.6909 35.3841 65.1362 35.9531C65.5816 36.5098 66.1196 36.9365 66.7505 37.2334C67.3814 37.5179 68.0741 37.6602 68.8286 37.6602C69.843 37.6602 70.7088 37.4251 71.4263 36.9551C72.1561 36.485 72.7993 35.7676 73.356 34.8027C73.6652 34.2337 73.9992 33.7884 74.3579 33.4668C74.7167 33.1452 75.1558 32.9844 75.6753 32.9844C76.2938 32.9844 76.8071 33.2194 77.2154 33.6895C77.6236 34.1595 77.8277 34.6605 77.8277 35.1924ZM86.5677 23.7441V38.3838C86.5677 39.3981 86.3264 40.165 85.844 40.6846C85.3616 41.2041 84.7493 41.4639 84.0071 41.4639C83.2649 41.4639 82.6588 41.1979 82.1888 40.666C81.7311 40.1341 81.5022 39.3734 81.5022 38.3838V23.8926C81.5022 22.8906 81.7311 22.1361 82.1888 21.6289C82.6588 21.1217 83.2649 20.8682 84.0071 20.8682C84.7493 20.8682 85.3616 21.1217 85.844 21.6289C86.3264 22.1361 86.5677 22.8411 86.5677 23.7441ZM84.0628 18.5117C83.3577 18.5117 82.7516 18.2952 82.2444 17.8623C81.7496 17.4294 81.5022 16.8171 81.5022 16.0254C81.5022 15.3079 81.7558 14.7204 82.263 14.2627C82.7825 13.7926 83.3824 13.5576 84.0628 13.5576C84.7184 13.5576 85.2998 13.7679 85.8069 14.1885C86.3141 14.609 86.5677 15.2214 86.5677 16.0254C86.5677 16.8047 86.3203 17.417 85.8255 17.8623C85.3307 18.2952 84.7431 18.5117 84.0628 18.5117ZM103.861 38.6064C102.637 39.5589 101.449 40.2764 100.299 40.7588C99.1608 41.2288 97.8806 41.4639 96.458 41.4639C95.1592 41.4639 94.015 41.2103 93.0254 40.7031C92.0482 40.1836 91.2937 39.4847 90.7618 38.6064C90.2299 37.7282 89.9639 36.7757 89.9639 35.749C89.9639 34.3636 90.403 33.1823 91.2813 32.2051C92.1595 31.2279 93.3656 30.5723 94.8995 30.2383C95.2211 30.1641 96.0189 29.9971 97.293 29.7373C98.5671 29.4775 99.6556 29.2425 100.559 29.0322C101.474 28.8096 102.464 28.5436 103.527 28.2344C103.466 26.8984 103.193 25.9212 102.711 25.3027C102.241 24.6719 101.258 24.3564 99.7608 24.3564C98.4743 24.3564 97.5033 24.5358 96.8477 24.8945C96.2045 25.2533 95.6478 25.7913 95.1778 26.5088C94.7201 27.2262 94.3923 27.7025 94.1944 27.9375C94.0088 28.1602 93.6006 28.2715 92.9698 28.2715C92.4008 28.2715 91.906 28.0921 91.4854 27.7334C91.0772 27.3623 90.8731 26.8923 90.8731 26.3232C90.8731 25.4326 91.1885 24.5667 91.8194 23.7256C92.4502 22.8844 93.4336 22.1917 94.7696 21.6475C96.1055 21.1032 97.7692 20.8311 99.7608 20.8311C101.987 20.8311 103.738 21.097 105.012 21.6289C106.286 22.1484 107.183 22.9772 107.702 24.1152C108.234 25.2533 108.5 26.7624 108.5 28.6426C108.5 29.8301 108.494 30.8382 108.481 31.667C108.481 32.4958 108.475 33.4173 108.463 34.4316C108.463 35.3841 108.618 36.3799 108.927 37.4189C109.248 38.4456 109.409 39.1074 109.409 39.4043C109.409 39.9238 109.162 40.4001 108.667 40.833C108.185 41.2536 107.634 41.4639 107.016 41.4639C106.496 41.4639 105.983 41.2227 105.476 40.7402C104.968 40.2454 104.43 39.5342 103.861 38.6064ZM103.527 31.2773C102.785 31.5495 101.703 31.8402 100.28 32.1494C98.8702 32.4463 97.8929 32.6689 97.3487 32.8174C96.8044 32.9535 96.2849 33.2318 95.7901 33.6523C95.2953 34.0605 95.0479 34.6357 95.0479 35.3779C95.0479 36.1449 95.3386 36.8005 95.92 37.3447C96.5013 37.8766 97.2621 38.1426 98.2022 38.1426C99.2041 38.1426 100.126 37.9261 100.967 37.4932C101.82 37.0479 102.445 36.4788 102.841 35.7861C103.299 35.0192 103.527 33.7575 103.527 32.001V31.2773ZM112.898 38.3838V16.415C112.898 15.4007 113.121 14.6338 113.566 14.1143C114.024 13.5947 114.636 13.335 115.403 13.335C116.17 13.335 116.789 13.5947 117.259 14.1143C117.729 14.6214 117.964 15.3883 117.964 16.415V38.3838C117.964 39.4105 117.722 40.1836 117.24 40.7031C116.77 41.2103 116.158 41.4639 115.403 41.4639C114.661 41.4639 114.055 41.1979 113.585 40.666C113.127 40.1341 112.898 39.3734 112.898 38.3838ZM148.042 31.5371V38.2725C148.042 39.3363 147.801 40.1341 147.319 40.666C146.836 41.1979 146.199 41.4639 145.408 41.4639C144.641 41.4639 144.016 41.1979 143.534 40.666C143.063 40.1341 142.828 39.3363 142.828 38.2725V30.2012C142.828 28.9271 142.785 27.9375 142.699 27.2324C142.612 26.5273 142.377 25.9521 141.993 25.5068C141.61 25.0492 141.004 24.8203 140.175 24.8203C138.518 24.8203 137.423 25.3893 136.891 26.5273C136.371 27.6654 136.112 29.2982 136.112 31.4258V38.2725C136.112 39.3239 135.87 40.1217 135.388 40.666C134.918 41.1979 134.293 41.4639 133.514 41.4639C132.747 41.4639 132.116 41.1979 131.621 40.666C131.139 40.1217 130.898 39.3239 130.898 38.2725V23.7812C130.898 22.8288 131.114 22.1051 131.547 21.6104C131.993 21.1156 132.574 20.8682 133.291 20.8682C133.984 20.8682 134.559 21.1032 135.017 21.5732C135.487 22.0309 135.722 22.668 135.722 23.4844V23.9668C136.6 22.9154 137.54 22.1423 138.542 21.6475C139.544 21.1527 140.658 20.9053 141.882 20.9053C143.156 20.9053 144.251 21.1589 145.166 21.666C146.082 22.1732 146.836 22.9401 147.43 23.9668C148.284 22.9277 149.199 22.1608 150.176 21.666C151.153 21.1589 152.236 20.9053 153.423 20.9053C154.809 20.9053 156.002 21.1774 157.004 21.7217C158.006 22.266 158.755 23.0452 159.249 24.0596C159.682 24.9749 159.899 26.416 159.899 28.3828V38.2725C159.899 39.3363 159.658 40.1341 159.175 40.666C158.693 41.1979 158.056 41.4639 157.264 41.4639C156.497 41.4639 155.866 41.1979 155.371 40.666C154.889 40.1217 154.648 39.3239 154.648 38.2725V29.7559C154.648 28.6673 154.598 27.7952 154.499 27.1396C154.413 26.484 154.165 25.9336 153.757 25.4883C153.349 25.043 152.73 24.8203 151.902 24.8203C151.234 24.8203 150.597 25.0182 149.991 25.4141C149.397 25.8099 148.933 26.3418 148.599 27.0098C148.228 27.8633 148.042 29.3724 148.042 31.5371ZM178.194 32.4092H168.286C168.299 33.5596 168.527 34.5739 168.973 35.4521C169.43 36.3304 170.03 36.9922 170.773 37.4375C171.527 37.8828 172.356 38.1055 173.259 38.1055C173.865 38.1055 174.415 38.0374 174.91 37.9014C175.417 37.7529 175.906 37.5303 176.376 37.2334C176.846 36.9242 177.279 36.5964 177.675 36.25C178.071 35.9036 178.584 35.4336 179.215 34.8398C179.475 34.6172 179.846 34.5059 180.328 34.5059C180.848 34.5059 181.268 34.6481 181.59 34.9326C181.912 35.2171 182.072 35.6191 182.072 36.1387C182.072 36.5964 181.893 37.1344 181.534 37.7529C181.176 38.359 180.631 38.9466 179.901 39.5156C179.184 40.0723 178.275 40.5361 177.174 40.9072C176.085 41.2783 174.83 41.4639 173.407 41.4639C170.154 41.4639 167.624 40.5361 165.818 38.6807C164.012 36.8252 163.109 34.3079 163.109 31.1289C163.109 29.6322 163.332 28.2467 163.777 26.9727C164.223 25.6862 164.872 24.5853 165.726 23.6699C166.579 22.7546 167.631 22.0557 168.88 21.5732C170.129 21.0785 171.515 20.8311 173.036 20.8311C175.015 20.8311 176.71 21.2516 178.12 22.0928C179.543 22.9215 180.607 23.9977 181.312 25.3213C182.017 26.6449 182.369 27.9932 182.369 29.3662C182.369 30.6403 182.004 31.4691 181.274 31.8525C180.545 32.2236 179.518 32.4092 178.194 32.4092ZM168.286 29.5332H177.471C177.347 27.8014 176.877 26.5088 176.061 25.6553C175.257 24.7894 174.193 24.3564 172.869 24.3564C171.607 24.3564 170.568 24.7956 169.752 25.6738C168.948 26.5397 168.459 27.8262 168.286 29.5332ZM199.774 38.5693V38.0684C199.094 38.8477 198.42 39.4847 197.752 39.9795C197.096 40.4619 196.379 40.8268 195.599 41.0742C194.833 41.334 193.991 41.4639 193.076 41.4639C191.864 41.4639 190.738 41.2103 189.699 40.7031C188.672 40.1836 187.782 39.4476 187.027 38.4951C186.273 37.5426 185.697 36.4232 185.302 35.1367C184.918 33.8503 184.726 32.4587 184.726 30.9619C184.726 27.7952 185.5 25.3275 187.046 23.5586C188.592 21.7897 190.627 20.9053 193.15 20.9053C194.61 20.9053 195.841 21.1589 196.843 21.666C197.845 22.1608 198.822 22.9277 199.774 23.9668V16.4893C199.774 15.4502 199.978 14.6647 200.387 14.1328C200.807 13.6009 201.401 13.335 202.168 13.335C202.935 13.335 203.522 13.5824 203.931 14.0771C204.351 14.5596 204.561 15.277 204.561 16.2295V38.5693C204.561 39.5342 204.339 40.2578 203.893 40.7402C203.448 41.2227 202.873 41.4639 202.168 41.4639C201.475 41.4639 200.9 41.2165 200.442 40.7217C199.997 40.2145 199.774 39.4971 199.774 38.5693ZM189.81 31.1289C189.81 32.502 190.021 33.6709 190.441 34.6357C190.874 35.6006 191.462 36.3304 192.204 36.8252C192.946 37.3076 193.756 37.5488 194.635 37.5488C195.525 37.5488 196.335 37.32 197.065 36.8623C197.807 36.3923 198.395 35.681 198.828 34.7285C199.273 33.7637 199.496 32.5638 199.496 31.1289C199.496 29.7806 199.273 28.624 198.828 27.6592C198.395 26.682 197.801 25.9398 197.047 25.4326C196.305 24.9131 195.488 24.6533 194.598 24.6533C193.67 24.6533 192.841 24.9193 192.111 25.4512C191.381 25.9707 190.812 26.7253 190.404 27.7148C190.008 28.6921 189.81 29.8301 189.81 31.1289ZM213.951 23.7441V38.3838C213.951 39.3981 213.71 40.165 213.227 40.6846C212.745 41.2041 212.132 41.4639 211.39 41.4639C210.648 41.4639 210.042 41.1979 209.572 40.666C209.114 40.1341 208.885 39.3734 208.885 38.3838V23.8926C208.885 22.8906 209.114 22.1361 209.572 21.6289C210.042 21.1217 210.648 20.8682 211.39 20.8682C212.132 20.8682 212.745 21.1217 213.227 21.6289C213.71 22.1361 213.951 22.8411 213.951 23.7441ZM211.446 18.5117C210.741 18.5117 210.135 18.2952 209.628 17.8623C209.133 17.4294 208.885 16.8171 208.885 16.0254C208.885 15.3079 209.139 14.7204 209.646 14.2627C210.166 13.7926 210.766 13.5576 211.446 13.5576C212.101 13.5576 212.683 13.7679 213.19 14.1885C213.697 14.609 213.951 15.2214 213.951 16.0254C213.951 16.8047 213.703 17.417 213.209 17.8623C212.714 18.2952 212.126 18.5117 211.446 18.5117ZM231.244 38.6064C230.02 39.5589 228.832 40.2764 227.682 40.7588C226.544 41.2288 225.264 41.4639 223.841 41.4639C222.542 41.4639 221.398 41.2103 220.409 40.7031C219.431 40.1836 218.677 39.4847 218.145 38.6064C217.613 37.7282 217.347 36.7757 217.347 35.749C217.347 34.3636 217.786 33.1823 218.664 32.2051C219.543 31.2279 220.749 30.5723 222.283 30.2383C222.604 30.1641 223.402 29.9971 224.676 29.7373C225.95 29.4775 227.039 29.2425 227.942 29.0322C228.857 28.8096 229.847 28.5436 230.911 28.2344C230.849 26.8984 230.577 25.9212 230.094 25.3027C229.624 24.6719 228.641 24.3564 227.144 24.3564C225.857 24.3564 224.886 24.5358 224.231 24.8945C223.588 25.2533 223.031 25.7913 222.561 26.5088C222.103 27.2262 221.775 27.7025 221.577 27.9375C221.392 28.1602 220.984 28.2715 220.353 28.2715C219.784 28.2715 219.289 28.0921 218.869 27.7334C218.46 27.3623 218.256 26.8923 218.256 26.3232C218.256 25.4326 218.572 24.5667 219.202 23.7256C219.833 22.8844 220.817 22.1917 222.153 21.6475C223.489 21.1032 225.152 20.8311 227.144 20.8311C229.37 20.8311 231.121 21.097 232.395 21.6289C233.669 22.1484 234.566 22.9772 235.085 24.1152C235.617 25.2533 235.883 26.7624 235.883 28.6426C235.883 29.8301 235.877 30.8382 235.865 31.667C235.865 32.4958 235.858 33.4173 235.846 34.4316C235.846 35.3841 236.001 36.3799 236.31 37.4189C236.632 38.4456 236.792 39.1074 236.792 39.4043C236.792 39.9238 236.545 40.4001 236.05 40.833C235.568 41.2536 235.017 41.4639 234.399 41.4639C233.879 41.4639 233.366 41.2227 232.859 40.7402C232.352 40.2454 231.814 39.5342 231.244 38.6064ZM230.911 31.2773C230.168 31.5495 229.086 31.8402 227.663 32.1494C226.253 32.4463 225.276 32.6689 224.732 32.8174C224.188 32.9535 223.668 33.2318 223.173 33.6523C222.678 34.0605 222.431 34.6357 222.431 35.3779C222.431 36.1449 222.722 36.8005 223.303 37.3447C223.884 37.8766 224.645 38.1426 225.585 38.1426C226.587 38.1426 227.509 37.9261 228.35 37.4932C229.203 37.0479 229.828 36.4788 230.224 35.7861C230.682 35.0192 230.911 33.7575 230.911 32.001V31.2773Z" fill="#7F3110"/>
</g>
</g>
<defs>
<filter id="filter0_dd_966_12" x="0" y="0" width="256" height="60" filterUnits="userSpaceOnUse" color-interpolation-filters="sRGB">
<feFlood flood-opacity="0" result="BackgroundImageFix"/>
<feColorMatrix in="SourceAlpha" type="matrix" values="0 0 0 0 0 0 0 0 0 0 0 0 0 0 0 0 0 0 127 0" result="hardAlpha"/>
<feOffset dx="1" dy="3"/>
<feGaussianBlur stdDeviation="2"/>
<feComposite in2="hardAlpha" operator="out"/>
<feColorMatrix type="matrix" values="0 0 0 0 0 0 0 0 0 0 0 0 0 0 0 0 0 0 0.12 0"/>
<feBlend mode="normal" in2="BackgroundImageFix" result="effect1_dropShadow_966_12"/>
<feColorMatrix in="SourceAlpha" type="matrix" values="0 0 0 0 0 0 0 0 0 0 0 0 0 0 0 0 0 0 127 0" result="hardAlpha"/>
<feOffset dx="1" dy="1"/>
<feGaussianBlur stdDeviation="1"/>
<feComposite in2="hardAlpha" operator="out"/>
<feColorMatrix type="matrix" values="0 0 0 0 0 0 0 0 0 0 0 0 0 0 0 0 0 0 0.25 0"/>
<feBlend mode="normal" in2="effect1_dropShadow_966_12" result="effect2_dropShadow_966_12"/>
<feBlend mode="normal" in="SourceGraphic" in2="effect2_dropShadow_966_12" result="shape"/>
</filter>
<filter id="filter1_di_966_12" x="16.2586" y="13.335" width="221.834" height="29.7289" filterUnits="userSpaceOnUse" color-interpolation-filters="sRGB">
<feFlood flood-opacity="0" result="BackgroundImageFix"/>
<feColorMatrix in="SourceAlpha" type="matrix" values="0 0 0 0 0 0 0 0 0 0 0 0 0 0 0 0 0 0 127 0" result="hardAlpha"/>
<feOffset dx="0.5" dy="0.8"/>
<feGaussianBlur stdDeviation="0.4"/>
<feComposite in2="hardAlpha" operator="out"/>
<feColorMatrix type="matrix" values="0 0 0 0 1 0 0 0 0 1 0 0 0 0 1 0 0 0 0.2 0"/>
<feBlend mode="normal" in2="BackgroundImageFix" result="effect1_dropShadow_966_12"/>
<feBlend mode="normal" in="SourceGraphic" in2="effect1_dropShadow_966_12" result="shape"/>
<feColorMatrix in="SourceAlpha" type="matrix" values="0 0 0 0 0 0 0 0 0 0 0 0 0 0 0 0 0 0 127 0" result="hardAlpha"/>
<feOffset dy="1"/>
<feGaussianBlur stdDeviation="1"/>
<feComposite in2="hardAlpha" operator="arithmetic" k2="-1" k3="1"/>
<feColorMatrix type="matrix" values="0 0 0 0 0 0 0 0 0 0 0 0 0 0 0 0 0 0 0.35 0"/>
<feBlend mode="normal" in2="shape" result="effect2_innerShadow_966_12"/>
</filter>
<linearGradient id="paint0_linear_966_12" x1="2.93842" y1="1.95511" x2="251.011" y2="52.5825" gradientUnits="userSpaceOnUse">
<stop stop-color="#FF7E29"/>
<stop offset="1" stop-color="#FD9662"/>
</linearGradient>
</defs>
</svg>
