<svg width="301" height="60" viewBox="0 0 301 60" fill="none" xmlns="http://www.w3.org/2000/svg">
<g filter="url(#filter0_dd_966_16)">
<mask id="path-1-inside-1_966_16" fill="white">
<path d="M3 16C3 7.71573 9.71573 1 18 1H281C289.284 1 296 7.71573 296 16V38C296 46.2843 289.284 53 281 53H18C9.71573 53 3 46.2843 3 38V16Z"/>
</mask>
<path d="M3 16C3 7.71573 9.71573 1 18 1H281C289.284 1 296 7.71573 296 16V38C296 46.2843 289.284 53 281 53H18C9.71573 53 3 46.2843 3 38V16Z" fill="url(#paint0_linear_966_16)" shape-rendering="crispEdges"/>
<path d="M3 1H296H3ZM296 38C296 46.8366 288.837 54 280 54H19C10.1634 54 3 46.8366 3 38C3 45.732 9.71573 52 18 52H281C289.284 52 296 45.732 296 38ZM3 53V1V53ZM296 1V53V1Z" fill="#23211F" fill-opacity="0.22" mask="url(#path-1-inside-1_966_16)"/>
<g filter="url(#filter1_di_966_16)">
<path d="M22.292 23.707V24.3193C23.2445 23.1442 24.234 22.2845 25.2607 21.7402C26.2874 21.1836 27.4502 20.9053 28.749 20.9053C30.3076 20.9053 31.7425 21.3073 33.0537 22.1113C34.3649 22.9154 35.3978 24.0905 36.1523 25.6367C36.9193 27.1829 37.3027 29.0137 37.3027 31.1289C37.3027 32.6875 37.0801 34.1224 36.6348 35.4336C36.2018 36.7324 35.6019 37.8271 34.835 38.7178C34.068 39.596 33.1589 40.2764 32.1074 40.7588C31.0684 41.2288 29.9489 41.4639 28.749 41.4639C27.3018 41.4639 26.0833 41.1732 25.0938 40.5918C24.1165 40.0104 23.1826 39.1569 22.292 38.0312V45.6387C22.292 47.8652 21.4818 48.9785 19.8613 48.9785C18.9089 48.9785 18.278 48.6878 17.9688 48.1064C17.6595 47.5374 17.5049 46.7025 17.5049 45.6016V23.7441C17.5049 22.7793 17.7152 22.0618 18.1357 21.5918C18.5563 21.1094 19.1315 20.8682 19.8613 20.8682C20.5788 20.8682 21.1602 21.1156 21.6055 21.6104C22.0632 22.0928 22.292 22.7917 22.292 23.707ZM32.2188 31.0732C32.2188 29.7373 32.0146 28.5931 31.6064 27.6406C31.1982 26.6758 30.6292 25.9398 29.8994 25.4326C29.182 24.9131 28.3841 24.6533 27.5059 24.6533C26.1081 24.6533 24.9268 25.2038 23.9619 26.3047C23.0094 27.4056 22.5332 29.026 22.5332 31.166C22.5332 33.1823 23.0094 34.7533 23.9619 35.8789C24.9144 36.9922 26.0957 37.5488 27.5059 37.5488C28.347 37.5488 29.1263 37.3076 29.8438 36.8252C30.5612 36.3304 31.1364 35.5944 31.5693 34.6172C32.0023 33.64 32.2188 32.4587 32.2188 31.0732ZM45.6345 34.1533V38.3838C45.6345 39.4105 45.3933 40.1836 44.9109 40.7031C44.4285 41.2103 43.8162 41.4639 43.074 41.4639C42.3442 41.4639 41.7442 41.2041 41.2742 40.6846C40.8041 40.165 40.5691 39.3981 40.5691 38.3838V24.2822C40.5691 22.0062 41.3917 20.8682 43.0369 20.8682C43.878 20.8682 44.4841 21.1341 44.8552 21.666C45.2263 22.1979 45.4304 22.9834 45.4675 24.0225C46.0737 22.9834 46.6921 22.1979 47.323 21.666C47.9662 21.1341 48.8198 20.8682 49.8836 20.8682C50.9474 20.8682 51.9802 21.1341 52.9822 21.666C53.9841 22.1979 54.4851 22.903 54.4851 23.7812C54.4851 24.3997 54.2686 24.9131 53.8357 25.3213C53.4151 25.7171 52.9574 25.915 52.4627 25.915C52.2771 25.915 51.8256 25.8037 51.1082 25.5811C50.4031 25.346 49.7784 25.2285 49.2341 25.2285C48.492 25.2285 47.8858 25.4264 47.4158 25.8223C46.9457 26.2057 46.5808 26.7809 46.3211 27.5479C46.0613 28.3148 45.8819 29.2301 45.783 30.2939C45.684 31.3454 45.6345 32.6318 45.6345 34.1533ZM74.0239 31.166C74.0239 32.6751 73.7889 34.0667 73.3189 35.3408C72.8488 36.6149 72.1685 37.7096 71.2779 38.625C70.3872 39.5404 69.3234 40.2454 68.0864 40.7402C66.8495 41.2227 65.4579 41.4639 63.9116 41.4639C62.3778 41.4639 60.9986 41.2165 59.7739 40.7217C58.5493 40.2269 57.4855 39.5218 56.5825 38.6064C55.6919 37.6787 55.0116 36.5902 54.5415 35.3408C54.0838 34.0791 53.855 32.6875 53.855 31.166C53.855 29.6322 54.09 28.2282 54.5601 26.9541C55.0301 25.68 55.7043 24.5915 56.5825 23.6885C57.4608 22.7855 58.5246 22.0928 59.7739 21.6104C61.0233 21.1156 62.4025 20.8682 63.9116 20.8682C65.4455 20.8682 66.8371 21.1156 68.0864 21.6104C69.3358 22.1051 70.4058 22.8102 71.2964 23.7256C72.187 24.641 72.8612 25.7295 73.3189 26.9912C73.7889 28.2529 74.0239 29.6445 74.0239 31.166ZM68.94 31.166C68.94 29.1003 68.4823 27.4922 67.5669 26.3418C66.6639 25.1914 65.4455 24.6162 63.9116 24.6162C62.9221 24.6162 62.05 24.876 61.2954 25.3955C60.5409 25.9027 59.9595 26.6572 59.5513 27.6592C59.1431 28.6611 58.939 29.8301 58.939 31.166C58.939 32.4896 59.1369 33.6462 59.5327 34.6357C59.9409 35.6253 60.5161 36.3861 61.2583 36.918C62.0129 37.4375 62.8973 37.6973 63.9116 37.6973C65.4455 37.6973 66.6639 37.1221 67.5669 35.9717C68.4823 34.8089 68.94 33.207 68.94 31.166ZM91.1507 38.5693V38.0684C90.4703 38.8477 89.7962 39.4847 89.1282 39.9795C88.4726 40.4619 87.7552 40.8268 86.9759 41.0742C86.2089 41.334 85.3678 41.4639 84.4524 41.4639C83.2402 41.4639 82.1145 41.2103 81.0755 40.7031C80.0488 40.1836 79.1582 39.4476 78.4036 38.4951C77.649 37.5426 77.0738 36.4232 76.678 35.1367C76.2945 33.8503 76.1028 32.4587 76.1028 30.9619C76.1028 27.7952 76.8759 25.3275 78.4221 23.5586C79.9684 21.7897 82.0032 20.9053 84.5266 20.9053C85.9863 20.9053 87.2171 21.1589 88.219 21.666C89.221 22.1608 90.1982 22.9277 91.1507 23.9668V16.4893C91.1507 15.4502 91.3548 14.6647 91.763 14.1328C92.1835 13.6009 92.7773 13.335 93.5442 13.335C94.3111 13.335 94.8987 13.5824 95.3069 14.0771C95.7275 14.5596 95.9378 15.277 95.9378 16.2295V38.5693C95.9378 39.5342 95.7151 40.2578 95.2698 40.7402C94.8245 41.2227 94.2493 41.4639 93.5442 41.4639C92.8515 41.4639 92.2763 41.2165 91.8186 40.7217C91.3733 40.2145 91.1507 39.4971 91.1507 38.5693ZM81.1868 31.1289C81.1868 32.502 81.3971 33.6709 81.8177 34.6357C82.2506 35.6006 82.8382 36.3304 83.5804 36.8252C84.3225 37.3076 85.1328 37.5488 86.011 37.5488C86.9016 37.5488 87.7119 37.32 88.4417 36.8623C89.1839 36.3923 89.7714 35.681 90.2044 34.7285C90.6497 33.7637 90.8723 32.5638 90.8723 31.1289C90.8723 29.7806 90.6497 28.624 90.2044 27.6592C89.7714 26.682 89.1777 25.9398 88.4231 25.4326C87.6809 24.9131 86.8645 24.6533 85.9739 24.6533C85.0462 24.6533 84.2174 24.9193 83.4876 25.4512C82.7578 25.9707 82.1888 26.7253 81.7805 27.7148C81.3847 28.6921 81.1868 29.8301 81.1868 31.1289ZM113.417 38.6064V37.957C112.811 38.724 112.174 39.3672 111.506 39.8867C110.838 40.4062 110.108 40.7897 109.316 41.0371C108.525 41.2969 107.622 41.4268 106.607 41.4268C105.383 41.4268 104.282 41.1732 103.305 40.666C102.34 40.1589 101.592 39.46 101.06 38.5693C100.429 37.4932 100.113 35.9469 100.113 33.9307V23.8926C100.113 22.8783 100.342 22.1237 100.8 21.6289C101.258 21.1217 101.864 20.8682 102.618 20.8682C103.385 20.8682 104.004 21.1217 104.474 21.6289C104.944 22.1361 105.179 22.8906 105.179 23.8926V32.001C105.179 33.1761 105.278 34.1657 105.476 34.9697C105.674 35.7614 106.026 36.3861 106.533 36.8438C107.053 37.2891 107.752 37.5117 108.63 37.5117C109.483 37.5117 110.287 37.2581 111.042 36.751C111.797 36.2438 112.347 35.582 112.693 34.7656C112.978 34.0482 113.12 32.4772 113.12 30.0527V23.8926C113.12 22.8906 113.355 22.1361 113.825 21.6289C114.295 21.1217 114.908 20.8682 115.662 20.8682C116.417 20.8682 117.023 21.1217 117.481 21.6289C117.938 22.1237 118.167 22.8783 118.167 23.8926V38.5693C118.167 39.5342 117.944 40.2578 117.499 40.7402C117.066 41.2227 116.503 41.4639 115.811 41.4639C115.118 41.4639 114.543 41.2165 114.085 40.7217C113.64 40.2145 113.417 39.5094 113.417 38.6064ZM140.637 35.1924C140.637 35.8232 140.446 36.4974 140.062 37.2148C139.691 37.9323 139.116 38.6188 138.337 39.2744C137.57 39.9176 136.599 40.4372 135.424 40.833C134.248 41.2288 132.925 41.4268 131.453 41.4268C128.323 41.4268 125.88 40.5176 124.124 38.6992C122.367 36.8685 121.489 34.4193 121.489 31.3516C121.489 29.2734 121.891 27.4365 122.695 25.8408C123.499 24.2451 124.662 23.0143 126.183 22.1484C127.705 21.2702 129.523 20.8311 131.638 20.8311C132.95 20.8311 134.15 21.0228 135.238 21.4062C136.339 21.7897 137.267 22.2845 138.021 22.8906C138.788 23.4967 139.37 24.1462 139.765 24.8389C140.174 25.5192 140.378 26.1562 140.378 26.75C140.378 27.3561 140.149 27.8695 139.691 28.29C139.246 28.7106 138.702 28.9209 138.058 28.9209C137.638 28.9209 137.285 28.8158 137.001 28.6055C136.729 28.3828 136.419 28.0303 136.073 27.5479C135.455 26.6077 134.805 25.9027 134.125 25.4326C133.457 24.9626 132.603 24.7275 131.564 24.7275C130.068 24.7275 128.861 25.3151 127.946 26.4902C127.031 27.653 126.573 29.2487 126.573 31.2773C126.573 32.2298 126.691 33.1081 126.926 33.9121C127.161 34.7038 127.501 35.3841 127.946 35.9531C128.391 36.5098 128.929 36.9365 129.56 37.2334C130.191 37.5179 130.884 37.6602 131.638 37.6602C132.653 37.6602 133.519 37.4251 134.236 36.9551C134.966 36.485 135.609 35.7676 136.166 34.8027C136.475 34.2337 136.809 33.7884 137.168 33.4668C137.526 33.1452 137.966 32.9844 138.485 32.9844C139.104 32.9844 139.617 33.2194 140.025 33.6895C140.433 34.1595 140.637 34.6605 140.637 35.1924ZM144.59 21.3135H145.147V18.2705C145.147 17.4541 145.166 16.8171 145.203 16.3594C145.252 15.8893 145.376 15.4873 145.574 15.1533C145.772 14.807 146.056 14.5286 146.427 14.3184C146.798 14.0957 147.213 13.9844 147.67 13.9844C148.314 13.9844 148.895 14.2256 149.415 14.708C149.761 15.0296 149.977 15.4255 150.064 15.8955C150.163 16.3532 150.212 17.0088 150.212 17.8623V21.3135H152.068C152.785 21.3135 153.33 21.4867 153.701 21.833C154.084 22.167 154.276 22.5999 154.276 23.1318C154.276 23.8122 154.004 24.2884 153.46 24.5605C152.928 24.8327 152.161 24.9688 151.159 24.9688H150.212V34.2832C150.212 35.0749 150.237 35.6872 150.287 36.1201C150.349 36.5407 150.497 36.887 150.732 37.1592C150.979 37.4189 151.375 37.5488 151.919 37.5488C152.216 37.5488 152.618 37.4993 153.126 37.4004C153.633 37.2891 154.029 37.2334 154.313 37.2334C154.721 37.2334 155.086 37.4004 155.408 37.7344C155.742 38.056 155.909 38.458 155.909 38.9404C155.909 39.7568 155.463 40.3815 154.573 40.8145C153.682 41.2474 152.402 41.4639 150.732 41.4639C149.149 41.4639 147.949 41.1979 147.132 40.666C146.316 40.1341 145.778 39.3981 145.518 38.458C145.271 37.5179 145.147 36.2624 145.147 34.6914V24.9688H144.479C143.749 24.9688 143.193 24.7956 142.809 24.4492C142.426 24.1029 142.234 23.6637 142.234 23.1318C142.234 22.5999 142.432 22.167 142.828 21.833C143.236 21.4867 143.823 21.3135 144.59 21.3135ZM179.642 38.5693V38.0684C178.961 38.8477 178.287 39.4847 177.619 39.9795C176.964 40.4619 176.246 40.8268 175.467 41.0742C174.7 41.334 173.859 41.4639 172.943 41.4639C171.731 41.4639 170.606 41.2103 169.566 40.7031C168.54 40.1836 167.649 39.4476 166.895 38.4951C166.14 37.5426 165.565 36.4232 165.169 35.1367C164.786 33.8503 164.594 32.4587 164.594 30.9619C164.594 27.7952 165.367 25.3275 166.913 23.5586C168.459 21.7897 170.494 20.9053 173.018 20.9053C174.477 20.9053 175.708 21.1589 176.71 21.666C177.712 22.1608 178.689 22.9277 179.642 23.9668V16.4893C179.642 15.4502 179.846 14.6647 180.254 14.1328C180.675 13.6009 181.268 13.335 182.035 13.335C182.802 13.335 183.39 13.5824 183.798 14.0771C184.219 14.5596 184.429 15.277 184.429 16.2295V38.5693C184.429 39.5342 184.206 40.2578 183.761 40.7402C183.316 41.2227 182.74 41.4639 182.035 41.4639C181.343 41.4639 180.767 41.2165 180.31 40.7217C179.864 40.2145 179.642 39.4971 179.642 38.5693ZM169.678 31.1289C169.678 32.502 169.888 33.6709 170.309 34.6357C170.742 35.6006 171.329 36.3304 172.071 36.8252C172.814 37.3076 173.624 37.5488 174.502 37.5488C175.393 37.5488 176.203 37.32 176.933 36.8623C177.675 36.3923 178.262 35.681 178.695 34.7285C179.141 33.7637 179.363 32.5638 179.363 31.1289C179.363 29.7806 179.141 28.624 178.695 27.6592C178.262 26.682 177.669 25.9398 176.914 25.4326C176.172 24.9131 175.356 24.6533 174.465 24.6533C173.537 24.6533 172.708 24.9193 171.979 25.4512C171.249 25.9707 170.68 26.7253 170.272 27.7148C169.876 28.6921 169.678 29.8301 169.678 31.1289ZM202.891 32.4092H192.983C192.996 33.5596 193.224 34.5739 193.67 35.4521C194.127 36.3304 194.727 36.9922 195.47 37.4375C196.224 37.8828 197.053 38.1055 197.956 38.1055C198.562 38.1055 199.112 38.0374 199.607 37.9014C200.114 37.7529 200.603 37.5303 201.073 37.2334C201.543 36.9242 201.976 36.5964 202.372 36.25C202.768 35.9036 203.281 35.4336 203.912 34.8398C204.172 34.6172 204.543 34.5059 205.025 34.5059C205.545 34.5059 205.965 34.6481 206.287 34.9326C206.609 35.2171 206.769 35.6191 206.769 36.1387C206.769 36.5964 206.59 37.1344 206.231 37.7529C205.873 38.359 205.328 38.9466 204.598 39.5156C203.881 40.0723 202.972 40.5361 201.871 40.9072C200.782 41.2783 199.527 41.4639 198.104 41.4639C194.851 41.4639 192.321 40.5361 190.515 38.6807C188.709 36.8252 187.806 34.3079 187.806 31.1289C187.806 29.6322 188.029 28.2467 188.474 26.9727C188.92 25.6862 189.569 24.5853 190.423 23.6699C191.276 22.7546 192.328 22.0557 193.577 21.5732C194.826 21.0785 196.212 20.8311 197.733 20.8311C199.712 20.8311 201.407 21.2516 202.817 22.0928C204.24 22.9215 205.304 23.9977 206.009 25.3213C206.714 26.6449 207.066 27.9932 207.066 29.3662C207.066 30.6403 206.701 31.4691 205.972 31.8525C205.242 32.2236 204.215 32.4092 202.891 32.4092ZM192.983 29.5332H202.168C202.044 27.8014 201.574 26.5088 200.758 25.6553C199.954 24.7894 198.89 24.3564 197.566 24.3564C196.305 24.3564 195.265 24.7956 194.449 25.6738C193.645 26.5397 193.156 27.8262 192.983 29.5332ZM226.902 34.8398C226.902 36.2376 226.562 37.4375 225.881 38.4395C225.201 39.429 224.193 40.1836 222.857 40.7031C221.533 41.2103 219.919 41.4639 218.014 41.4639C216.196 41.4639 214.637 41.1855 213.338 40.6289C212.04 40.0723 211.081 39.3796 210.462 38.5508C209.844 37.7096 209.535 36.8685 209.535 36.0273C209.535 35.4707 209.733 34.9945 210.129 34.5986C210.524 34.2028 211.025 34.0049 211.631 34.0049C212.163 34.0049 212.572 34.1348 212.856 34.3945C213.141 34.6543 213.413 35.0192 213.672 35.4893C214.192 36.3923 214.81 37.0664 215.528 37.5117C216.258 37.957 217.247 38.1797 218.497 38.1797C219.511 38.1797 220.34 37.957 220.983 37.5117C221.639 37.054 221.966 36.5345 221.966 35.9531C221.966 35.0625 221.626 34.4131 220.946 34.0049C220.278 33.5967 219.171 33.207 217.625 32.8359C215.88 32.403 214.458 31.9515 213.357 31.4814C212.268 30.999 211.396 30.3682 210.741 29.5889C210.085 28.8096 209.757 27.8509 209.757 26.7129C209.757 25.6986 210.06 24.7399 210.667 23.8369C211.273 22.9339 212.163 22.2165 213.338 21.6846C214.526 21.1403 215.955 20.8682 217.625 20.8682C218.936 20.8682 220.111 21.0042 221.15 21.2764C222.201 21.5485 223.073 21.9134 223.766 22.3711C224.471 22.8288 225.003 23.3359 225.362 23.8926C225.733 24.4492 225.919 24.9935 225.919 25.5254C225.919 26.1068 225.721 26.583 225.325 26.9541C224.941 27.3252 224.391 27.5107 223.673 27.5107C223.154 27.5107 222.709 27.3623 222.337 27.0654C221.979 26.7686 221.564 26.3232 221.094 25.7295C220.711 25.2347 220.259 24.8389 219.74 24.542C219.22 24.2451 218.515 24.0967 217.625 24.0967C216.709 24.0967 215.948 24.2946 215.342 24.6904C214.736 25.0739 214.433 25.5563 214.433 26.1377C214.433 26.6696 214.656 27.1087 215.101 27.4551C215.546 27.7891 216.146 28.0674 216.901 28.29C217.656 28.5127 218.695 28.7848 220.018 29.1064C221.589 29.4899 222.869 29.9476 223.859 30.4795C224.861 31.0114 225.615 31.6423 226.123 32.3721C226.642 33.0895 226.902 33.9121 226.902 34.8398ZM235.494 23.7441V38.3838C235.494 39.3981 235.252 40.165 234.77 40.6846C234.287 41.2041 233.675 41.4639 232.933 41.4639C232.191 41.4639 231.585 41.1979 231.115 40.666C230.657 40.1341 230.428 39.3734 230.428 38.3838V23.8926C230.428 22.8906 230.657 22.1361 231.115 21.6289C231.585 21.1217 232.191 20.8682 232.933 20.8682C233.675 20.8682 234.287 21.1217 234.77 21.6289C235.252 22.1361 235.494 22.8411 235.494 23.7441ZM232.989 18.5117C232.284 18.5117 231.677 18.2952 231.17 17.8623C230.675 17.4294 230.428 16.8171 230.428 16.0254C230.428 15.3079 230.682 14.7204 231.189 14.2627C231.708 13.7926 232.308 13.5576 232.989 13.5576C233.644 13.5576 234.226 13.7679 234.733 14.1885C235.24 14.609 235.494 15.2214 235.494 16.0254C235.494 16.8047 235.246 17.417 234.751 17.8623C234.257 18.2952 233.669 18.5117 232.989 18.5117ZM258.613 24.5791V39.293C258.613 40.9753 258.434 42.4225 258.075 43.6348C257.717 44.847 257.141 45.849 256.35 46.6406C255.558 47.4323 254.519 48.0199 253.233 48.4033C251.958 48.7868 250.369 48.9785 248.464 48.9785C246.72 48.9785 245.161 48.7311 243.788 48.2363C242.415 47.7539 241.358 47.123 240.615 46.3438C239.873 45.5768 239.502 44.7852 239.502 43.9688C239.502 43.3503 239.712 42.8431 240.133 42.4473C240.554 42.0638 241.061 41.8721 241.654 41.8721C242.397 41.8721 243.046 42.1999 243.603 42.8555C243.875 43.1895 244.153 43.5234 244.438 43.8574C244.734 44.2038 245.056 44.4945 245.402 44.7295C245.761 44.9769 246.188 45.1562 246.683 45.2676C247.178 45.3913 247.747 45.4531 248.39 45.4531C249.701 45.4531 250.715 45.2676 251.433 44.8965C252.163 44.5378 252.67 44.0306 252.954 43.375C253.251 42.7194 253.424 42.0143 253.474 41.2598C253.523 40.5176 253.56 39.3177 253.585 37.6602C252.806 38.7487 251.903 39.5775 250.876 40.1465C249.862 40.7155 248.65 41 247.239 41C245.545 41 244.06 40.5671 242.786 39.7012C241.525 38.8353 240.554 37.623 239.873 36.0645C239.193 34.5059 238.853 32.7061 238.853 30.665C238.853 29.1436 239.057 27.7705 239.465 26.5459C239.886 25.3213 240.479 24.2884 241.246 23.4473C242.013 22.6061 242.898 21.9753 243.9 21.5547C244.901 21.1217 246.002 20.9053 247.202 20.9053C248.637 20.9053 249.88 21.1836 250.932 21.7402C251.983 22.2845 252.96 23.1442 253.863 24.3193V23.6328C253.863 22.7546 254.08 22.0742 254.513 21.5918C254.946 21.1094 255.502 20.8682 256.183 20.8682C257.16 20.8682 257.809 21.1898 258.131 21.833C258.453 22.4639 258.613 23.3792 258.613 24.5791ZM243.937 30.999C243.937 33.0524 244.382 34.6048 245.273 35.6562C246.176 36.7077 247.338 37.2334 248.761 37.2334C249.602 37.2334 250.394 37.0107 251.136 36.5654C251.89 36.1077 252.503 35.4274 252.973 34.5244C253.443 33.609 253.678 32.502 253.678 31.2031C253.678 29.1374 253.22 27.5293 252.305 26.3789C251.402 25.2285 250.208 24.6533 248.724 24.6533C247.276 24.6533 246.114 25.2038 245.235 26.3047C244.37 27.4056 243.937 28.9704 243.937 30.999ZM267.576 23.6699V24.2822C268.467 23.1071 269.438 22.2474 270.489 21.7031C271.553 21.1465 272.771 20.8682 274.144 20.8682C275.48 20.8682 276.674 21.1589 277.725 21.7402C278.777 22.3216 279.562 23.1442 280.082 24.208C280.416 24.8265 280.632 25.4945 280.731 26.2119C280.83 26.9294 280.88 27.8447 280.88 28.958V38.3838C280.88 39.3981 280.645 40.165 280.175 40.6846C279.717 41.2041 279.117 41.4639 278.375 41.4639C277.62 41.4639 277.008 41.1979 276.538 40.666C276.068 40.1341 275.833 39.3734 275.833 38.3838V29.9414C275.833 28.2715 275.598 26.9974 275.128 26.1191C274.67 25.2285 273.749 24.7832 272.363 24.7832C271.46 24.7832 270.638 25.0553 269.895 25.5996C269.153 26.1315 268.609 26.8675 268.263 27.8076C268.015 28.5622 267.891 29.9723 267.891 32.0381V38.3838C267.891 39.4105 267.65 40.1836 267.168 40.7031C266.698 41.2103 266.085 41.4639 265.331 41.4639C264.601 41.4639 264.001 41.1979 263.531 40.666C263.061 40.1341 262.826 39.3734 262.826 38.3838V23.7441C262.826 22.7793 263.036 22.0618 263.457 21.5918C263.877 21.1094 264.453 20.8682 265.182 20.8682C265.628 20.8682 266.03 20.9733 266.389 21.1836C266.747 21.3939 267.032 21.7093 267.242 22.1299C267.465 22.5505 267.576 23.0638 267.576 23.6699Z" fill="#223962"/>
</g>
</g>
<defs>
<filter id="filter0_dd_966_16" x="0" y="0" width="301" height="60" filterUnits="userSpaceOnUse" color-interpolation-filters="sRGB">
<feFlood flood-opacity="0" result="BackgroundImageFix"/>
<feColorMatrix in="SourceAlpha" type="matrix" values="0 0 0 0 0 0 0 0 0 0 0 0 0 0 0 0 0 0 127 0" result="hardAlpha"/>
<feOffset dx="1" dy="3"/>
<feGaussianBlur stdDeviation="2"/>
<feComposite in2="hardAlpha" operator="out"/>
<feColorMatrix type="matrix" values="0 0 0 0 0 0 0 0 0 0 0 0 0 0 0 0 0 0 0.12 0"/>
<feBlend mode="normal" in2="BackgroundImageFix" result="effect1_dropShadow_966_16"/>
<feColorMatrix in="SourceAlpha" type="matrix" values="0 0 0 0 0 0 0 0 0 0 0 0 0 0 0 0 0 0 127 0" result="hardAlpha"/>
<feOffset dx="1" dy="1"/>
<feGaussianBlur stdDeviation="1"/>
<feComposite in2="hardAlpha" operator="out"/>
<feColorMatrix type="matrix" values="0 0 0 0 0 0 0 0 0 0 0 0 0 0 0 0 0 0 0.25 0"/>
<feBlend mode="normal" in2="effect1_dropShadow_966_16" result="effect2_dropShadow_966_16"/>
<feBlend mode="normal" in="SourceGraphic" in2="effect2_dropShadow_966_16" result="shape"/>
</filter>
<filter id="filter1_di_966_16" x="17.2049" y="13.335" width="264.975" height="37.2436" filterUnits="userSpaceOnUse" color-interpolation-filters="sRGB">
<feFlood flood-opacity="0" result="BackgroundImageFix"/>
<feColorMatrix in="SourceAlpha" type="matrix" values="0 0 0 0 0 0 0 0 0 0 0 0 0 0 0 0 0 0 127 0" result="hardAlpha"/>
<feOffset dx="0.5" dy="0.8"/>
<feGaussianBlur stdDeviation="0.4"/>
<feComposite in2="hardAlpha" operator="out"/>
<feColorMatrix type="matrix" values="0 0 0 0 1 0 0 0 0 1 0 0 0 0 1 0 0 0 0.2 0"/>
<feBlend mode="normal" in2="BackgroundImageFix" result="effect1_dropShadow_966_16"/>
<feBlend mode="normal" in="SourceGraphic" in2="effect1_dropShadow_966_16" result="shape"/>
<feColorMatrix in="SourceAlpha" type="matrix" values="0 0 0 0 0 0 0 0 0 0 0 0 0 0 0 0 0 0 127 0" result="hardAlpha"/>
<feOffset dy="1"/>
<feGaussianBlur stdDeviation="1"/>
<feComposite in2="hardAlpha" operator="arithmetic" k2="-1" k3="1"/>
<feColorMatrix type="matrix" values="0 0 0 0 0 0 0 0 0 0 0 0 0 0 0 0 0 0 0.35 0"/>
<feBlend mode="normal" in2="shape" result="effect2_innerShadow_966_16"/>
</filter>
<linearGradient id="paint0_linear_966_16" x1="3" y1="27" x2="296" y2="27" gradientUnits="userSpaceOnUse">
<stop stop-color="#317EF3"/>
<stop offset="1" stop-color="#438FF9"/>
</linearGradient>
</defs>
</svg>
