<svg width="213" height="61" viewBox="0 0 213 61" fill="none" xmlns="http://www.w3.org/2000/svg">
<g filter="url(#filter0_dd_1250_2)">
<mask id="path-1-inside-1_1250_2" fill="white">
<path d="M3.43872 16.3838C3.43872 8.09952 10.1545 1.38379 18.4387 1.38379L192.439 1.38379C200.723 1.38379 207.439 8.09952 207.439 16.3838V38.3838C207.439 46.6681 200.723 53.3838 192.439 53.3838L18.4387 53.3838C10.1545 53.3838 3.43872 46.6681 3.43872 38.3838L3.43872 16.3838Z"/>
</mask>
<path d="M3.43872 16.3838C3.43872 8.09952 10.1545 1.38379 18.4387 1.38379L192.439 1.38379C200.723 1.38379 207.439 8.09952 207.439 16.3838V38.3838C207.439 46.6681 200.723 53.3838 192.439 53.3838L18.4387 53.3838C10.1545 53.3838 3.43872 46.6681 3.43872 38.3838L3.43872 16.3838Z" fill="url(#paint0_linear_1250_2)" shape-rendering="crispEdges"/>
<path d="M3.43872 1.38379L207.439 1.38379L3.43872 1.38379ZM207.439 38.3838C207.439 47.2203 200.275 54.3838 191.439 54.3838L19.4387 54.3838C10.6022 54.3838 3.43872 47.2203 3.43872 38.3838C3.43872 46.1158 10.1544 52.3838 18.4387 52.3838L192.439 52.3838C200.723 52.3838 207.439 46.1158 207.439 38.3838ZM3.43872 53.3838L3.43872 1.38379L3.43872 53.3838ZM207.439 1.38379V53.3838V1.38379Z" fill="#23211F" fill-opacity="0.22" mask="url(#path-1-inside-1_1250_2)"/>
<g filter="url(#filter1_di_1250_2)">
<path d="M35.8118 38.3037L34.5129 34.8896H23.4543L22.1555 38.3779C21.6484 39.7386 21.2154 40.6602 20.8567 41.1426C20.498 41.6126 19.9104 41.8477 19.094 41.8477C18.4013 41.8477 17.789 41.5941 17.2571 41.0869C16.7252 40.5798 16.4592 40.0046 16.4592 39.3613C16.4592 38.9902 16.5211 38.6068 16.6448 38.2109C16.7685 37.8151 16.9726 37.2646 17.2571 36.5596L24.2151 18.8955C24.413 18.3883 24.648 17.7822 24.9202 17.0771C25.2047 16.3597 25.5015 15.766 25.8108 15.2959C26.1324 14.8258 26.5468 14.4486 27.054 14.1641C27.5735 13.8672 28.2105 13.7188 28.9651 13.7188C29.732 13.7188 30.3691 13.8672 30.8762 14.1641C31.3958 14.4486 31.8101 14.8197 32.1194 15.2773C32.441 15.735 32.7069 16.2298 32.9172 16.7617C33.1399 17.2812 33.4182 17.9801 33.7522 18.8584L40.8586 36.4111C41.4153 37.7471 41.6936 38.7181 41.6936 39.3242C41.6936 39.9551 41.4277 40.5365 40.8958 41.0684C40.3762 41.5879 39.7454 41.8477 39.0032 41.8477C38.5702 41.8477 38.1991 41.7673 37.8899 41.6064C37.5806 41.458 37.3209 41.2539 37.1106 40.9941C36.9003 40.722 36.6715 40.3138 36.4241 39.7695C36.189 39.2129 35.9849 38.7243 35.8118 38.3037ZM24.9016 30.752H33.0286L28.928 19.5264L24.9016 30.752ZM49.2461 24.0537V24.666C50.1367 23.4909 51.1078 22.6312 52.1592 22.0869C53.223 21.5303 54.4414 21.252 55.8145 21.252C57.1504 21.252 58.3441 21.5426 59.3955 22.124C60.4469 22.7054 61.2324 23.528 61.752 24.5918C62.0859 25.2103 62.3024 25.8783 62.4014 26.5957C62.5003 27.3132 62.5498 28.2285 62.5498 29.3418V38.7676C62.5498 39.7819 62.3148 40.5488 61.8447 41.0684C61.3871 41.5879 60.7871 41.8477 60.0449 41.8477C59.2904 41.8477 58.6781 41.5817 58.208 41.0498C57.738 40.5179 57.5029 39.7572 57.5029 38.7676V30.3252C57.5029 28.6553 57.2679 27.3812 56.7979 26.5029C56.3402 25.6123 55.4186 25.167 54.0332 25.167C53.1302 25.167 52.3076 25.4391 51.5654 25.9834C50.8233 26.5153 50.279 27.2513 49.9326 28.1914C49.6852 28.946 49.5615 30.3561 49.5615 32.4219V38.7676C49.5615 39.7943 49.3203 40.5674 48.8379 41.0869C48.3678 41.5941 47.7555 41.8477 47.001 41.8477C46.2712 41.8477 45.6712 41.5817 45.2012 41.0498C44.7311 40.5179 44.4961 39.7572 44.4961 38.7676V24.1279C44.4961 23.1631 44.7064 22.4456 45.127 21.9756C45.5475 21.4932 46.1227 21.252 46.8525 21.252C47.2979 21.252 47.6999 21.3571 48.0586 21.5674C48.4173 21.7777 48.7018 22.0931 48.9121 22.5137C49.1348 22.9342 49.2461 23.4476 49.2461 24.0537ZM71.9207 24.1279V38.7676C71.9207 39.7819 71.6795 40.5488 71.197 41.0684C70.7146 41.5879 70.1023 41.8477 69.3601 41.8477C68.6179 41.8477 68.0118 41.5817 67.5418 41.0498C67.0841 40.5179 66.8552 39.7572 66.8552 38.7676V24.2764C66.8552 23.2744 67.0841 22.5199 67.5418 22.0127C68.0118 21.5055 68.6179 21.252 69.3601 21.252C70.1023 21.252 70.7146 21.5055 71.197 22.0127C71.6795 22.5199 71.9207 23.2249 71.9207 24.1279ZM69.4158 18.8955C68.7107 18.8955 68.1046 18.679 67.5974 18.2461C67.1026 17.8132 66.8552 17.2008 66.8552 16.4092C66.8552 15.6917 67.1088 15.1042 67.616 14.6465C68.1355 14.1764 68.7355 13.9414 69.4158 13.9414C70.0714 13.9414 70.6528 14.1517 71.1599 14.5723C71.6671 14.9928 71.9207 15.6051 71.9207 16.4092C71.9207 17.1885 71.6733 17.8008 71.1785 18.2461C70.6837 18.679 70.0961 18.8955 69.4158 18.8955ZM93.2593 31.9209V38.6562C93.2593 39.7201 93.0181 40.5179 92.5357 41.0498C92.0533 41.5817 91.4162 41.8477 90.6245 41.8477C89.8576 41.8477 89.2329 41.5817 88.7505 41.0498C88.2805 40.5179 88.0454 39.7201 88.0454 38.6562V30.585C88.0454 29.3109 88.0021 28.3213 87.9156 27.6162C87.829 26.9111 87.5939 26.3359 87.2105 25.8906C86.827 25.4329 86.2209 25.2041 85.3921 25.2041C83.7346 25.2041 82.6398 25.7731 82.1079 26.9111C81.5884 28.0492 81.3286 29.682 81.3286 31.8096V38.6562C81.3286 39.7077 81.0874 40.5055 80.605 41.0498C80.135 41.5817 79.5103 41.8477 78.731 41.8477C77.9641 41.8477 77.3332 41.5817 76.8384 41.0498C76.356 40.5055 76.1148 39.7077 76.1148 38.6562V24.165C76.1148 23.2126 76.3312 22.4889 76.7642 21.9941C77.2095 21.4993 77.7909 21.252 78.5083 21.252C79.201 21.252 79.7762 21.487 80.2339 21.957C80.704 22.4147 80.939 23.0518 80.939 23.8682V24.3506C81.8173 23.2992 82.7574 22.526 83.7593 22.0313C84.7613 21.5365 85.8745 21.2891 87.0992 21.2891C88.3732 21.2891 89.468 21.5426 90.3833 22.0498C91.2987 22.557 92.0533 23.3239 92.647 24.3506C93.5005 23.3115 94.4159 22.5446 95.3931 22.0498C96.3703 21.5426 97.4527 21.2891 98.6402 21.2891C100.026 21.2891 101.219 21.5612 102.221 22.1055C103.223 22.6497 103.972 23.429 104.466 24.4434C104.899 25.3587 105.116 26.7998 105.116 28.7666V38.6562C105.116 39.7201 104.875 40.5179 104.392 41.0498C103.91 41.5817 103.273 41.8477 102.481 41.8477C101.714 41.8477 101.083 41.5817 100.588 41.0498C100.106 40.5055 99.8648 39.7077 99.8648 38.6562V30.1396C99.8648 29.0511 99.8153 28.179 99.7163 27.5234C99.6298 26.8678 99.3824 26.3174 98.9742 25.8721C98.5659 25.4268 97.9475 25.2041 97.1187 25.2041C96.4507 25.2041 95.8137 25.402 95.2076 25.7979C94.6138 26.1937 94.1499 26.7256 93.8159 27.3936C93.4449 28.2471 93.2593 29.7562 93.2593 31.9209ZM122.075 38.9902C120.851 39.9427 119.663 40.6602 118.513 41.1426C117.375 41.6126 116.095 41.8477 114.672 41.8477C113.373 41.8477 112.229 41.5941 111.24 41.0869C110.262 40.5674 109.508 39.8685 108.976 38.9902C108.444 38.112 108.178 37.1595 108.178 36.1328C108.178 34.7474 108.617 33.5661 109.495 32.5889C110.374 31.6117 111.58 30.9561 113.114 30.6221C113.435 30.5479 114.233 30.3809 115.507 30.1211C116.781 29.8613 117.87 29.6263 118.773 29.416C119.688 29.1934 120.678 28.9274 121.741 28.6182C121.68 27.2822 121.408 26.305 120.925 25.6865C120.455 25.0557 119.472 24.7402 117.975 24.7402C116.688 24.7402 115.717 24.9196 115.062 25.2783C114.419 25.637 113.862 26.1751 113.392 26.8926C112.934 27.61 112.606 28.0863 112.408 28.3213C112.223 28.5439 111.815 28.6553 111.184 28.6553C110.615 28.6553 110.12 28.4759 109.7 28.1172C109.291 27.7461 109.087 27.276 109.087 26.707C109.087 25.8164 109.403 24.9505 110.033 24.1094C110.664 23.2682 111.648 22.5755 112.984 22.0313C114.32 21.487 115.983 21.2148 117.975 21.2148C120.201 21.2148 121.952 21.4808 123.226 22.0127C124.5 22.5322 125.397 23.361 125.916 24.499C126.448 25.637 126.714 27.1462 126.714 29.0264C126.714 30.2139 126.708 31.222 126.696 32.0508C126.696 32.8796 126.689 33.8011 126.677 34.8154C126.677 35.7679 126.832 36.7637 127.141 37.8027C127.463 38.8294 127.623 39.4912 127.623 39.7881C127.623 40.3076 127.376 40.7839 126.881 41.2168C126.399 41.6374 125.848 41.8477 125.23 41.8477C124.71 41.8477 124.197 41.6064 123.69 41.124C123.183 40.6292 122.644 39.918 122.075 38.9902ZM121.741 31.6611C120.999 31.9333 119.917 32.224 118.494 32.5332C117.084 32.8301 116.107 33.0527 115.563 33.2012C115.019 33.3372 114.499 33.6156 114.004 34.0361C113.509 34.4443 113.262 35.0195 113.262 35.7617C113.262 36.5286 113.553 37.1842 114.134 37.7285C114.715 38.2604 115.476 38.5264 116.416 38.5264C117.418 38.5264 118.34 38.3099 119.181 37.877C120.034 37.4316 120.659 36.8626 121.055 36.1699C121.513 35.403 121.741 34.1413 121.741 32.3848V31.6611ZM130.426 21.6973H130.982V18.6543C130.982 17.8379 131.001 17.2008 131.038 16.7432C131.088 16.2731 131.211 15.8711 131.409 15.5371C131.607 15.1908 131.892 14.9124 132.263 14.7021C132.634 14.4795 133.048 14.3682 133.506 14.3682C134.149 14.3682 134.731 14.6094 135.25 15.0918C135.596 15.4134 135.813 15.8092 135.899 16.2793C135.998 16.737 136.048 17.3926 136.048 18.2461V21.6973H137.903C138.621 21.6973 139.165 21.8704 139.536 22.2168C139.92 22.5508 140.111 22.9837 140.111 23.5156C140.111 24.196 139.839 24.6722 139.295 24.9443C138.763 25.2165 137.996 25.3525 136.994 25.3525H136.048V34.667C136.048 35.4587 136.073 36.071 136.122 36.5039C136.184 36.9245 136.332 37.2708 136.567 37.543C136.815 37.8027 137.211 37.9326 137.755 37.9326C138.052 37.9326 138.454 37.8831 138.961 37.7842C139.468 37.6729 139.864 37.6172 140.148 37.6172C140.557 37.6172 140.922 37.7842 141.243 38.1182C141.577 38.4398 141.744 38.8418 141.744 39.3242C141.744 40.1406 141.299 40.7653 140.408 41.1982C139.518 41.6312 138.237 41.8477 136.567 41.8477C134.984 41.8477 133.784 41.5817 132.968 41.0498C132.151 40.5179 131.613 39.7819 131.354 38.8418C131.106 37.9017 130.982 36.6462 130.982 35.0752V25.3525H130.314C129.585 25.3525 129.028 25.1794 128.645 24.833C128.261 24.4867 128.069 24.0475 128.069 23.5156C128.069 22.9837 128.267 22.5508 128.663 22.2168C129.071 21.8704 129.659 21.6973 130.426 21.6973ZM147.924 24.1279V38.7676C147.924 39.7819 147.682 40.5488 147.2 41.0684C146.718 41.5879 146.105 41.8477 145.363 41.8477C144.621 41.8477 144.015 41.5817 143.545 41.0498C143.087 40.5179 142.858 39.7572 142.858 38.7676V24.2764C142.858 23.2744 143.087 22.5199 143.545 22.0127C144.015 21.5055 144.621 21.252 145.363 21.252C146.105 21.252 146.718 21.5055 147.2 22.0127C147.682 22.5199 147.924 23.2249 147.924 24.1279ZM145.419 18.8955C144.714 18.8955 144.108 18.679 143.6 18.2461C143.106 17.8132 142.858 17.2008 142.858 16.4092C142.858 15.6917 143.112 15.1042 143.619 14.6465C144.138 14.1764 144.738 13.9414 145.419 13.9414C146.074 13.9414 146.656 14.1517 147.163 14.5723C147.67 14.9928 147.924 15.6051 147.924 16.4092C147.924 17.1885 147.676 17.8008 147.181 18.2461C146.687 18.679 146.099 18.8955 145.419 18.8955ZM171.378 31.5498C171.378 33.0589 171.142 34.4505 170.672 35.7246C170.202 36.9987 169.522 38.0934 168.631 39.0088C167.741 39.9242 166.677 40.6292 165.44 41.124C164.203 41.6064 162.811 41.8477 161.265 41.8477C159.731 41.8477 158.352 41.6003 157.128 41.1055C155.903 40.6107 154.839 39.9056 153.936 38.9902C153.045 38.0625 152.365 36.974 151.895 35.7246C151.437 34.4629 151.209 33.0713 151.209 31.5498C151.209 30.016 151.444 28.612 151.914 27.3379C152.384 26.0638 153.058 24.9753 153.936 24.0723C154.814 23.1693 155.878 22.4766 157.128 21.9941C158.377 21.4993 159.756 21.252 161.265 21.252C162.799 21.252 164.191 21.4993 165.44 21.9941C166.689 22.4889 167.759 23.194 168.65 24.1094C169.541 25.0247 170.215 26.1133 170.672 27.375C171.142 28.6367 171.378 30.0283 171.378 31.5498ZM166.294 31.5498C166.294 29.484 165.836 27.876 164.92 26.7256C164.017 25.5752 162.799 25 161.265 25C160.276 25 159.404 25.2598 158.649 25.7793C157.894 26.2865 157.313 27.041 156.905 28.043C156.497 29.0449 156.293 30.2139 156.293 31.5498C156.293 32.8734 156.49 34.0299 156.886 35.0195C157.294 36.0091 157.87 36.7699 158.612 37.3018C159.366 37.8213 160.251 38.0811 161.265 38.0811C162.799 38.0811 164.017 37.5059 164.92 36.3555C165.836 35.1927 166.294 33.5908 166.294 31.5498ZM179.227 24.0537V24.666C180.118 23.4909 181.089 22.6312 182.14 22.0869C183.204 21.5303 184.422 21.252 185.795 21.252C187.131 21.252 188.325 21.5426 189.376 22.124C190.428 22.7054 191.213 23.528 191.733 24.5918C192.067 25.2103 192.283 25.8783 192.382 26.5957C192.481 27.3132 192.531 28.2285 192.531 29.3418V38.7676C192.531 39.7819 192.296 40.5488 191.826 41.0684C191.368 41.5879 190.768 41.8477 190.026 41.8477C189.271 41.8477 188.659 41.5817 188.189 41.0498C187.719 40.5179 187.484 39.7572 187.484 38.7676V30.3252C187.484 28.6553 187.249 27.3812 186.779 26.5029C186.321 25.6123 185.399 25.167 184.014 25.167C183.111 25.167 182.288 25.4391 181.546 25.9834C180.804 26.5153 180.26 27.2513 179.913 28.1914C179.666 28.946 179.542 30.3561 179.542 32.4219V38.7676C179.542 39.7943 179.301 40.5674 178.819 41.0869C178.349 41.5941 177.736 41.8477 176.982 41.8477C176.252 41.8477 175.652 41.5817 175.182 41.0498C174.712 40.5179 174.477 39.7572 174.477 38.7676V24.1279C174.477 23.1631 174.687 22.4456 175.108 21.9756C175.528 21.4932 176.104 21.252 176.833 21.252C177.279 21.252 177.681 21.3571 178.039 21.5674C178.398 21.7777 178.683 22.0931 178.893 22.5137C179.116 22.9342 179.227 23.4476 179.227 24.0537Z" fill="#003B41"/>
</g>
</g>
<defs>
<filter id="filter0_dd_1250_2" x="0.438721" y="0.383789" width="212" height="60" filterUnits="userSpaceOnUse" color-interpolation-filters="sRGB">
<feFlood flood-opacity="0" result="BackgroundImageFix"/>
<feColorMatrix in="SourceAlpha" type="matrix" values="0 0 0 0 0 0 0 0 0 0 0 0 0 0 0 0 0 0 127 0" result="hardAlpha"/>
<feOffset dx="1" dy="3"/>
<feGaussianBlur stdDeviation="2"/>
<feComposite in2="hardAlpha" operator="out"/>
<feColorMatrix type="matrix" values="0 0 0 0 0 0 0 0 0 0 0 0 0 0 0 0 0 0 0.12 0"/>
<feBlend mode="normal" in2="BackgroundImageFix" result="effect1_dropShadow_1250_2"/>
<feColorMatrix in="SourceAlpha" type="matrix" values="0 0 0 0 0 0 0 0 0 0 0 0 0 0 0 0 0 0 127 0" result="hardAlpha"/>
<feOffset dx="1" dy="1"/>
<feGaussianBlur stdDeviation="1"/>
<feComposite in2="hardAlpha" operator="out"/>
<feColorMatrix type="matrix" values="0 0 0 0 0 0 0 0 0 0 0 0 0 0 0 0 0 0 0.25 0"/>
<feBlend mode="normal" in2="effect1_dropShadow_1250_2" result="effect2_dropShadow_1250_2"/>
<feBlend mode="normal" in="SourceGraphic" in2="effect2_dropShadow_1250_2" result="shape"/>
</filter>
<filter id="filter1_di_1250_2" x="16.1592" y="13.7188" width="177.671" height="29.7289" filterUnits="userSpaceOnUse" color-interpolation-filters="sRGB">
<feFlood flood-opacity="0" result="BackgroundImageFix"/>
<feColorMatrix in="SourceAlpha" type="matrix" values="0 0 0 0 0 0 0 0 0 0 0 0 0 0 0 0 0 0 127 0" result="hardAlpha"/>
<feOffset dx="0.5" dy="0.8"/>
<feGaussianBlur stdDeviation="0.4"/>
<feComposite in2="hardAlpha" operator="out"/>
<feColorMatrix type="matrix" values="0 0 0 0 1 0 0 0 0 1 0 0 0 0 1 0 0 0 0.32 0"/>
<feBlend mode="normal" in2="BackgroundImageFix" result="effect1_dropShadow_1250_2"/>
<feBlend mode="normal" in="SourceGraphic" in2="effect1_dropShadow_1250_2" result="shape"/>
<feColorMatrix in="SourceAlpha" type="matrix" values="0 0 0 0 0 0 0 0 0 0 0 0 0 0 0 0 0 0 127 0" result="hardAlpha"/>
<feOffset dy="1"/>
<feGaussianBlur stdDeviation="1"/>
<feComposite in2="hardAlpha" operator="arithmetic" k2="-1" k3="1"/>
<feColorMatrix type="matrix" values="0 0 0 0 0 0 0 0 0 0 0 0 0 0 0 0 0 0 0.35 0"/>
<feBlend mode="normal" in2="shape" result="effect2_innerShadow_1250_2"/>
</filter>
<linearGradient id="paint0_linear_1250_2" x1="3.43872" y1="17.6914" x2="144.468" y2="-67.3511" gradientUnits="userSpaceOnUse">
<stop stop-color="#09BDF9"/>
<stop offset="1" stop-color="#37CDFF"/>
</linearGradient>
</defs>
</svg>
