<svg width="128" height="58" viewBox="0 0 128 58" fill="none" xmlns="http://www.w3.org/2000/svg">
<g filter="url(#filter0_dd_966_18)">
<mask id="path-1-inside-1_966_18" fill="white">
<path d="M3 15.4231C3 7.45744 9.45743 1 17.4231 1H108.654C116.619 1 123.077 7.45743 123.077 15.4231V36.2692C123.077 44.2349 116.619 50.6923 108.654 50.6923H17.4231C9.45743 50.6923 3 44.2349 3 36.2692V15.4231Z"/>
</mask>
<path d="M3 15.4231C3 7.45744 9.45743 1 17.4231 1H108.654C116.619 1 123.077 7.45743 123.077 15.4231V36.2692C123.077 44.2349 116.619 50.6923 108.654 50.6923H17.4231C9.45743 50.6923 3 44.2349 3 36.2692V15.4231Z" fill="url(#paint0_linear_966_18)" shape-rendering="crispEdges"/>
<path d="M3 1H123.077H3ZM123.077 36.2692C123.077 44.7659 116.189 51.6538 107.692 51.6538H18.3846C9.88793 51.6538 3 44.7659 3 36.2692V36.2692C3 43.7038 9.45743 49.7308 17.4231 49.7308H108.654C116.619 49.7308 123.077 43.7038 123.077 36.2692V36.2692ZM3 50.6923V1V50.6923ZM123.077 1V50.6923V1Z" fill="#23211F" fill-opacity="0.22" mask="url(#path-1-inside-1_966_18)"/>
<g filter="url(#filter1_di_966_18)">
<path d="M17.4288 28.0343V15.4563C17.4288 14.3859 17.6667 13.583 18.1425 13.0478C18.6301 12.5126 19.2665 12.2449 20.0515 12.2449C20.8721 12.2449 21.5204 12.5126 21.9961 13.0478C22.4838 13.583 22.7276 14.3859 22.7276 15.4563V28.3197C22.7276 29.7827 22.8882 31.0078 23.2093 31.995C23.5424 32.9703 24.1252 33.7315 24.9577 34.2786C25.7903 34.8139 26.9559 35.0815 28.4546 35.0815C30.5242 35.0815 31.9871 34.5344 32.8435 33.4401C33.6999 32.334 34.128 30.6629 34.128 28.4268V15.4563C34.128 14.374 34.3659 13.5711 34.8417 13.0478C35.3174 12.5126 35.9538 12.2449 36.7507 12.2449C37.5476 12.2449 38.1899 12.5126 38.6775 13.0478C39.1771 13.5711 39.4268 14.374 39.4268 15.4563V28.0343C39.4268 30.08 39.2246 31.7868 38.8202 33.1547C38.4277 34.5225 37.6784 35.7238 36.5723 36.7585C35.6207 37.6387 34.5146 38.281 33.2538 38.6854C31.9931 39.0898 30.5182 39.292 28.8293 39.292C26.8192 39.292 25.0886 39.0779 23.6375 38.6497C22.1864 38.2096 21.003 37.5376 20.0871 36.6337C19.1713 35.7178 18.4993 34.5522 18.0711 33.1368C17.6429 31.7095 17.4288 30.0087 17.4288 28.0343ZM44.6371 36.0627V15.4563C44.6371 14.3859 44.881 13.583 45.3686 13.0478C45.8563 12.5126 46.4867 12.2449 47.2598 12.2449C48.0567 12.2449 48.6989 12.5126 49.1866 13.0478C49.6861 13.5711 49.9359 14.374 49.9359 15.4563V36.0627C49.9359 37.1451 49.6861 37.9539 49.1866 38.4891C48.6989 39.0244 48.0567 39.292 47.2598 39.292C46.4985 39.292 45.8682 39.0244 45.3686 38.4891C44.881 37.942 44.6371 37.1332 44.6371 36.0627ZM61.7117 15.8667L56.7162 36.4374C56.5497 37.1154 56.401 37.6506 56.2702 38.0431C56.1513 38.4356 55.961 38.7389 55.6993 38.953C55.4495 39.179 55.0808 39.292 54.5931 39.292C53.38 39.292 52.7734 38.7686 52.7734 37.722C52.7734 37.4484 52.8923 36.7645 53.1302 35.6702L58.1078 15.0995C58.3695 14.0053 58.6193 13.2559 58.8572 12.8515C59.095 12.4471 59.5589 12.2449 60.2488 12.2449C60.8435 12.2449 61.2954 12.3877 61.6047 12.6731C61.9258 12.9586 62.0864 13.3511 62.0864 13.8506C62.0864 14.2194 61.9615 14.8914 61.7117 15.8667ZM64.7276 28.0343V15.4563C64.7276 14.3859 64.9655 13.583 65.4412 13.0478C65.9289 12.5126 66.5652 12.2449 67.3502 12.2449C68.1709 12.2449 68.8191 12.5126 69.2949 13.0478C69.7825 13.583 70.0264 14.3859 70.0264 15.4563V28.3197C70.0264 29.7827 70.1869 31.0078 70.5081 31.995C70.8411 32.9703 71.4239 33.7315 72.2565 34.2786C73.0891 34.8139 74.2547 35.0815 75.7533 35.0815C77.8229 35.0815 79.2859 34.5344 80.1422 33.4401C80.9986 32.334 81.4268 30.6629 81.4268 28.4268V15.4563C81.4268 14.374 81.6647 13.5711 82.1404 13.0478C82.6162 12.5126 83.2525 12.2449 84.0494 12.2449C84.8463 12.2449 85.4886 12.5126 85.9763 13.0478C86.4758 13.5711 86.7256 14.374 86.7256 15.4563V28.0343C86.7256 30.08 86.5234 31.7868 86.119 33.1547C85.7265 34.5225 84.9772 35.7238 83.871 36.7585C82.9195 37.6387 81.8133 38.281 80.5526 38.6854C79.2918 39.0898 77.817 39.292 76.128 39.292C74.1179 39.292 72.3873 39.0779 70.9363 38.6497C69.4852 38.2096 68.3017 37.5376 67.3859 36.6337C66.4701 35.7178 65.798 34.5522 65.3699 33.1368C64.9417 31.7095 64.7276 30.0087 64.7276 28.0343ZM90.7584 33.7612L96.6102 25.2154L91.6861 17.6151C91.2222 16.8777 90.8714 16.2473 90.6335 15.724C90.4075 15.1887 90.2945 14.6773 90.2945 14.1896C90.2945 13.6901 90.5145 13.244 90.9546 12.8515C91.4066 12.4471 91.9537 12.2449 92.596 12.2449C93.3334 12.2449 93.9043 12.465 94.3087 12.9051C94.725 13.3333 95.2959 14.1361 96.0215 15.3136L99.9465 21.665L104.139 15.3136C104.484 14.7784 104.775 14.3205 105.013 13.9398C105.263 13.5592 105.501 13.244 105.727 12.9943C105.953 12.7445 106.203 12.5601 106.476 12.4412C106.762 12.3104 107.089 12.2449 107.458 12.2449C108.124 12.2449 108.665 12.4471 109.081 12.8515C109.509 13.244 109.723 13.7139 109.723 14.261C109.723 15.0579 109.265 16.1402 108.35 17.5081L103.194 25.2154L108.742 33.7612C109.242 34.5106 109.604 35.135 109.83 35.6346C110.056 36.1222 110.169 36.5861 110.169 37.0262C110.169 37.4425 110.068 37.8231 109.866 38.168C109.664 38.5129 109.378 38.7865 109.01 38.9887C108.641 39.1909 108.225 39.292 107.761 39.292C107.261 39.292 106.839 39.1849 106.494 38.9708C106.149 38.7686 105.87 38.5129 105.656 38.2037C105.442 37.8944 105.043 37.2938 104.46 36.4017L99.8573 29.1583L94.9689 36.6158C94.5882 37.2105 94.3147 37.6268 94.1482 37.8647C93.9935 38.1026 93.8032 38.3345 93.5773 38.5605C93.3513 38.7865 93.0837 38.9649 92.7744 39.0957C92.4652 39.2266 92.1024 39.292 91.6861 39.292C91.0438 39.292 90.5086 39.0957 90.0804 38.7032C89.6641 38.3107 89.456 37.7398 89.456 36.9905C89.456 36.1103 89.8901 35.0339 90.7584 33.7612Z" fill="#6B1F0C"/>
</g>
</g>
<defs>
<filter id="filter0_dd_966_18" x="0.115385" y="0.0384616" width="127.769" height="57.3847" filterUnits="userSpaceOnUse" color-interpolation-filters="sRGB">
<feFlood flood-opacity="0" result="BackgroundImageFix"/>
<feColorMatrix in="SourceAlpha" type="matrix" values="0 0 0 0 0 0 0 0 0 0 0 0 0 0 0 0 0 0 127 0" result="hardAlpha"/>
<feOffset dx="0.961538" dy="2.88462"/>
<feGaussianBlur stdDeviation="1.92308"/>
<feComposite in2="hardAlpha" operator="out"/>
<feColorMatrix type="matrix" values="0 0 0 0 0 0 0 0 0 0 0 0 0 0 0 0 0 0 0.12 0"/>
<feBlend mode="normal" in2="BackgroundImageFix" result="effect1_dropShadow_966_18"/>
<feColorMatrix in="SourceAlpha" type="matrix" values="0 0 0 0 0 0 0 0 0 0 0 0 0 0 0 0 0 0 127 0" result="hardAlpha"/>
<feOffset dx="0.961538" dy="0.961538"/>
<feGaussianBlur stdDeviation="0.961538"/>
<feComposite in2="hardAlpha" operator="out"/>
<feColorMatrix type="matrix" values="0 0 0 0 0 0 0 0 0 0 0 0 0 0 0 0 0 0 0.25 0"/>
<feBlend mode="normal" in2="effect1_dropShadow_966_18" result="effect2_dropShadow_966_18"/>
<feBlend mode="normal" in="SourceGraphic" in2="effect2_dropShadow_966_18" result="shape"/>
</filter>
<filter id="filter1_di_966_18" x="17.1402" y="12.2449" width="94.2792" height="28.5856" filterUnits="userSpaceOnUse" color-interpolation-filters="sRGB">
<feFlood flood-opacity="0" result="BackgroundImageFix"/>
<feColorMatrix in="SourceAlpha" type="matrix" values="0 0 0 0 0 0 0 0 0 0 0 0 0 0 0 0 0 0 127 0" result="hardAlpha"/>
<feOffset dx="0.480769" dy="0.769231"/>
<feGaussianBlur stdDeviation="0.384615"/>
<feComposite in2="hardAlpha" operator="out"/>
<feColorMatrix type="matrix" values="0 0 0 0 1 0 0 0 0 1 0 0 0 0 1 0 0 0 0.2 0"/>
<feBlend mode="normal" in2="BackgroundImageFix" result="effect1_dropShadow_966_18"/>
<feBlend mode="normal" in="SourceGraphic" in2="effect1_dropShadow_966_18" result="shape"/>
<feColorMatrix in="SourceAlpha" type="matrix" values="0 0 0 0 0 0 0 0 0 0 0 0 0 0 0 0 0 0 127 0" result="hardAlpha"/>
<feOffset dy="0.961538"/>
<feGaussianBlur stdDeviation="0.961538"/>
<feComposite in2="hardAlpha" operator="arithmetic" k2="-1" k3="1"/>
<feColorMatrix type="matrix" values="0 0 0 0 0 0 0 0 0 0 0 0 0 0 0 0 0 0 0.35 0"/>
<feBlend mode="normal" in2="shape" result="effect2_innerShadow_966_18"/>
</filter>
<linearGradient id="paint0_linear_966_18" x1="123.022" y1="50.7886" x2="4.69275" y2="-4.39901" gradientUnits="userSpaceOnUse">
<stop stop-color="#FF8366"/>
<stop offset="1" stop-color="#FF602E"/>
</linearGradient>
</defs>
</svg>
