<svg width="301" height="60" viewBox="0 0 301 60" fill="none" xmlns="http://www.w3.org/2000/svg">
<g filter="url(#filter0_dd_966_22)">
<mask id="path-1-inside-1_966_22" fill="white">
<path d="M3 16C3 7.71573 9.71573 1 18 1H281C289.284 1 296 7.71573 296 16V38C296 46.2843 289.284 53 281 53H18C9.71573 53 3 46.2843 3 38V16Z"/>
</mask>
<path d="M3 16C3 7.71573 9.71573 1 18 1H281C289.284 1 296 7.71573 296 16V38C296 46.2843 289.284 53 281 53H18C9.71573 53 3 46.2843 3 38V16Z" fill="url(#paint0_linear_966_22)" shape-rendering="crispEdges"/>
<path d="M3 1H296H3ZM296 38C296 46.8366 288.837 54 280 54H19C10.1634 54 3 46.8366 3 38C3 45.732 9.71573 52 18 52H281C289.284 52 296 45.732 296 38ZM3 53V1V53ZM296 1V53V1Z" fill="#23211F" fill-opacity="0.22" mask="url(#path-1-inside-1_966_22)"/>
<g filter="url(#filter1_di_966_22)">
<path d="M38.2451 24.5791V39.293C38.2451 40.9753 38.0658 42.4225 37.707 43.6348C37.3483 44.847 36.7731 45.849 35.9814 46.6406C35.1898 47.4323 34.1507 48.0199 32.8643 48.4033C31.5902 48.7868 30.0007 48.9785 28.0957 48.9785C26.3516 48.9785 24.793 48.7311 23.4199 48.2363C22.0469 47.7539 20.9893 47.123 20.2471 46.3438C19.5049 45.5768 19.1338 44.7852 19.1338 43.9688C19.1338 43.3503 19.3441 42.8431 19.7646 42.4473C20.1852 42.0638 20.6924 41.8721 21.2861 41.8721C22.0283 41.8721 22.6777 42.1999 23.2344 42.8555C23.5065 43.1895 23.7848 43.5234 24.0693 43.8574C24.3662 44.2038 24.6878 44.4945 25.0342 44.7295C25.3929 44.9769 25.8197 45.1562 26.3145 45.2676C26.8092 45.3913 27.3783 45.4531 28.0215 45.4531C29.3327 45.4531 30.347 45.2676 31.0645 44.8965C31.7943 44.5378 32.3014 44.0306 32.5859 43.375C32.8828 42.7194 33.056 42.0143 33.1055 41.2598C33.1549 40.5176 33.1921 39.3177 33.2168 37.6602C32.4375 38.7487 31.5345 39.5775 30.5078 40.1465C29.4935 40.7155 28.2812 41 26.8711 41C25.1764 41 23.6921 40.5671 22.418 39.7012C21.1562 38.8353 20.1852 37.623 19.5049 36.0645C18.8245 34.5059 18.4844 32.7061 18.4844 30.665C18.4844 29.1436 18.6885 27.7705 19.0967 26.5459C19.5173 25.3213 20.111 24.2884 20.8779 23.4473C21.6449 22.6061 22.5293 21.9753 23.5312 21.5547C24.5332 21.1217 25.6341 20.9053 26.834 20.9053C28.2689 20.9053 29.512 21.1836 30.5635 21.7402C31.6149 22.2845 32.5921 23.1442 33.4951 24.3193V23.6328C33.4951 22.7546 33.7116 22.0742 34.1445 21.5918C34.5775 21.1094 35.1341 20.8682 35.8145 20.8682C36.7917 20.8682 37.4411 21.1898 37.7627 21.833C38.0843 22.4639 38.2451 23.3792 38.2451 24.5791ZM23.5684 30.999C23.5684 33.0524 24.0137 34.6048 24.9043 35.6562C25.8073 36.7077 26.9701 37.2334 28.3926 37.2334C29.2337 37.2334 30.0254 37.0107 30.7676 36.5654C31.5221 36.1077 32.1344 35.4274 32.6045 34.5244C33.0745 33.609 33.3096 32.502 33.3096 31.2031C33.3096 29.1374 32.8519 27.5293 31.9365 26.3789C31.0335 25.2285 29.8398 24.6533 28.3555 24.6533C26.9082 24.6533 25.7454 25.2038 24.8672 26.3047C24.0013 27.4056 23.5684 28.9704 23.5684 30.999ZM47.115 34.1533V38.3838C47.115 39.4105 46.8738 40.1836 46.3914 40.7031C45.9089 41.2103 45.2966 41.4639 44.5545 41.4639C43.8246 41.4639 43.2247 41.2041 42.7546 40.6846C42.2846 40.165 42.0496 39.3981 42.0496 38.3838V24.2822C42.0496 22.0062 42.8722 20.8682 44.5173 20.8682C45.3585 20.8682 45.9646 21.1341 46.3357 21.666C46.7068 22.1979 46.9109 22.9834 46.948 24.0225C47.5541 22.9834 48.1726 22.1979 48.8035 21.666C49.4467 21.1341 50.3002 20.8682 51.364 20.8682C52.4278 20.8682 53.4607 21.1341 54.4627 21.666C55.4646 22.1979 55.9656 22.903 55.9656 23.7812C55.9656 24.3997 55.7491 24.9131 55.3162 25.3213C54.8956 25.7171 54.4379 25.915 53.9431 25.915C53.7576 25.915 53.3061 25.8037 52.5886 25.5811C51.8836 25.346 51.2589 25.2285 50.7146 25.2285C49.9724 25.2285 49.3663 25.4264 48.8962 25.8223C48.4262 26.2057 48.0613 26.7809 47.8015 27.5479C47.5418 28.3148 47.3624 29.2301 47.2634 30.2939C47.1645 31.3454 47.115 32.6318 47.115 34.1533ZM69.8267 38.6064C68.6021 39.5589 67.4146 40.2764 66.2642 40.7588C65.1262 41.2288 63.8459 41.4639 62.4234 41.4639C61.1245 41.4639 59.9803 41.2103 58.9907 40.7031C58.0135 40.1836 57.259 39.4847 56.7271 38.6064C56.1952 37.7282 55.9292 36.7757 55.9292 35.749C55.9292 34.3636 56.3683 33.1823 57.2466 32.2051C58.1249 31.2279 59.3309 30.5723 60.8648 30.2383C61.1864 30.1641 61.9842 29.9971 63.2583 29.7373C64.5324 29.4775 65.621 29.2425 66.5239 29.0322C67.4393 28.8096 68.4289 28.5436 69.4927 28.2344C69.4308 26.8984 69.1587 25.9212 68.6763 25.3027C68.2062 24.6719 67.2228 24.3564 65.7261 24.3564C64.4396 24.3564 63.4686 24.5358 62.813 24.8945C62.1698 25.2533 61.6131 25.7913 61.1431 26.5088C60.6854 27.2262 60.3576 27.7025 60.1597 27.9375C59.9741 28.1602 59.5659 28.2715 58.9351 28.2715C58.3661 28.2715 57.8713 28.0921 57.4507 27.7334C57.0425 27.3623 56.8384 26.8923 56.8384 26.3232C56.8384 25.4326 57.1538 24.5667 57.7847 23.7256C58.4155 22.8844 59.3989 22.1917 60.7349 21.6475C62.0708 21.1032 63.7346 20.8311 65.7261 20.8311C67.9527 20.8311 69.703 21.097 70.9771 21.6289C72.2512 22.1484 73.148 22.9772 73.6675 24.1152C74.1994 25.2533 74.4654 26.7624 74.4654 28.6426C74.4654 29.8301 74.4592 30.8382 74.4468 31.667C74.4468 32.4958 74.4406 33.4173 74.4282 34.4316C74.4282 35.3841 74.5829 36.3799 74.8921 37.4189C75.2137 38.4456 75.3745 39.1074 75.3745 39.4043C75.3745 39.9238 75.1271 40.4001 74.6323 40.833C74.1499 41.2536 73.5995 41.4639 72.981 41.4639C72.4614 41.4639 71.9481 41.2227 71.4409 40.7402C70.9338 40.2454 70.3957 39.5342 69.8267 38.6064ZM69.4927 31.2773C68.7505 31.5495 67.6682 31.8402 66.2456 32.1494C64.8355 32.4463 63.8583 32.6689 63.314 32.8174C62.7697 32.9535 62.2502 33.2318 61.7554 33.6523C61.2606 34.0605 61.0132 34.6357 61.0132 35.3779C61.0132 36.1449 61.3039 36.8005 61.8853 37.3447C62.4667 37.8766 63.2274 38.1426 64.1675 38.1426C65.1695 38.1426 66.091 37.9261 66.9321 37.4932C67.7857 37.0479 68.4103 36.4788 68.8062 35.7861C69.2639 35.0192 69.4927 33.7575 69.4927 32.001V31.2773ZM83.0198 23.707V24.3193C83.9723 23.1442 84.9619 22.2845 85.9886 21.7402C87.0152 21.1836 88.178 20.9053 89.4768 20.9053C91.0354 20.9053 92.4703 21.3073 93.7815 22.1113C95.0927 22.9154 96.1256 24.0905 96.8802 25.6367C97.6471 27.1829 98.0305 29.0137 98.0305 31.1289C98.0305 32.6875 97.8079 34.1224 97.3626 35.4336C96.9296 36.7324 96.3297 37.8271 95.5628 38.7178C94.7958 39.596 93.8867 40.2764 92.8352 40.7588C91.7962 41.2288 90.6767 41.4639 89.4768 41.4639C88.0296 41.4639 86.8111 41.1732 85.8216 40.5918C84.8444 40.0104 83.9104 39.1569 83.0198 38.0312V45.6387C83.0198 47.8652 82.2096 48.9785 80.5891 48.9785C79.6367 48.9785 79.0058 48.6878 78.6966 48.1064C78.3873 47.5374 78.2327 46.7025 78.2327 45.6016V23.7441C78.2327 22.7793 78.443 22.0618 78.8636 21.5918C79.2841 21.1094 79.8593 20.8682 80.5891 20.8682C81.3066 20.8682 81.888 21.1156 82.3333 21.6104C82.791 22.0928 83.0198 22.7917 83.0198 23.707ZM92.9466 31.0732C92.9466 29.7373 92.7425 28.5931 92.3343 27.6406C91.9261 26.6758 91.357 25.9398 90.6272 25.4326C89.9098 24.9131 89.1119 24.6533 88.2337 24.6533C86.8359 24.6533 85.6546 25.2038 84.6897 26.3047C83.7373 27.4056 83.261 29.026 83.261 31.166C83.261 33.1823 83.7373 34.7533 84.6897 35.8789C85.6422 36.9922 86.8235 37.5488 88.2337 37.5488C89.0748 37.5488 89.8541 37.3076 90.5716 36.8252C91.289 36.3304 91.8642 35.5944 92.2971 34.6172C92.7301 33.64 92.9466 32.4587 92.9466 31.0732ZM106.288 16.415V23.9297C106.931 23.1875 107.556 22.5999 108.162 22.167C108.781 21.734 109.461 21.4124 110.203 21.2021C110.945 20.9795 111.743 20.8682 112.597 20.8682C113.883 20.8682 115.021 21.1403 116.011 21.6846C117.013 22.2288 117.798 23.0205 118.367 24.0596C118.726 24.6657 118.967 25.346 119.091 26.1006C119.215 26.8428 119.276 27.7025 119.276 28.6797V38.3838C119.276 39.3981 119.041 40.165 118.571 40.6846C118.114 41.2041 117.501 41.4639 116.734 41.4639C115.064 41.4639 114.23 40.4372 114.23 38.3838V29.8301C114.23 28.2096 113.988 26.9665 113.506 26.1006C113.023 25.2223 112.108 24.7832 110.76 24.7832C109.857 24.7832 109.04 25.043 108.311 25.5625C107.593 26.0697 107.055 26.7686 106.696 27.6592C106.424 28.4137 106.288 29.7559 106.288 31.6855V38.3838C106.288 39.3857 106.059 40.1527 105.602 40.6846C105.156 41.2041 104.532 41.4639 103.728 41.4639C102.058 41.4639 101.223 40.4372 101.223 38.3838V16.415C101.223 15.3883 101.439 14.6214 101.872 14.1143C102.317 13.5947 102.936 13.335 103.728 13.335C104.532 13.335 105.156 13.5947 105.602 14.1143C106.059 14.6338 106.288 15.4007 106.288 16.415ZM128.61 23.7441V38.3838C128.61 39.3981 128.369 40.165 127.887 40.6846C127.404 41.2041 126.792 41.4639 126.05 41.4639C125.307 41.4639 124.701 41.1979 124.231 40.666C123.774 40.1341 123.545 39.3734 123.545 38.3838V23.8926C123.545 22.8906 123.774 22.1361 124.231 21.6289C124.701 21.1217 125.307 20.8682 126.05 20.8682C126.792 20.8682 127.404 21.1217 127.887 21.6289C128.369 22.1361 128.61 22.8411 128.61 23.7441ZM126.105 18.5117C125.4 18.5117 124.794 18.2952 124.287 17.8623C123.792 17.4294 123.545 16.8171 123.545 16.0254C123.545 15.3079 123.798 14.7204 124.305 14.2627C124.825 13.7926 125.425 13.5576 126.105 13.5576C126.761 13.5576 127.342 13.7679 127.849 14.1885C128.357 14.609 128.61 15.2214 128.61 16.0254C128.61 16.8047 128.363 17.417 127.868 17.8623C127.373 18.2952 126.786 18.5117 126.105 18.5117ZM151.266 35.1924C151.266 35.8232 151.074 36.4974 150.691 37.2148C150.32 37.9323 149.745 38.6188 148.965 39.2744C148.198 39.9176 147.227 40.4372 146.052 40.833C144.877 41.2288 143.554 41.4268 142.082 41.4268C138.952 41.4268 136.509 40.5176 134.753 38.6992C132.996 36.8685 132.118 34.4193 132.118 31.3516C132.118 29.2734 132.52 27.4365 133.324 25.8408C134.128 24.2451 135.291 23.0143 136.812 22.1484C138.334 21.2702 140.152 20.8311 142.267 20.8311C143.578 20.8311 144.778 21.0228 145.867 21.4062C146.968 21.7897 147.895 22.2845 148.65 22.8906C149.417 23.4967 149.998 24.1462 150.394 24.8389C150.802 25.5192 151.006 26.1562 151.006 26.75C151.006 27.3561 150.778 27.8695 150.32 28.29C149.875 28.7106 149.33 28.9209 148.687 28.9209C148.266 28.9209 147.914 28.8158 147.629 28.6055C147.357 28.3828 147.048 28.0303 146.702 27.5479C146.083 26.6077 145.434 25.9027 144.753 25.4326C144.086 24.9626 143.232 24.7275 142.193 24.7275C140.696 24.7275 139.49 25.3151 138.575 26.4902C137.659 27.653 137.202 29.2487 137.202 31.2773C137.202 32.2298 137.319 33.1081 137.554 33.9121C137.789 34.7038 138.129 35.3841 138.575 35.9531C139.02 36.5098 139.558 36.9365 140.189 37.2334C140.82 37.5179 141.513 37.6602 142.267 37.6602C143.281 37.6602 144.147 37.4251 144.865 36.9551C145.595 36.485 146.238 35.7676 146.794 34.8027C147.104 34.2337 147.438 33.7884 147.796 33.4668C148.155 33.1452 148.594 32.9844 149.114 32.9844C149.732 32.9844 150.246 33.2194 150.654 33.6895C151.062 34.1595 151.266 34.6605 151.266 35.1924ZM177.56 38.5693V38.0684C176.879 38.8477 176.205 39.4847 175.537 39.9795C174.882 40.4619 174.164 40.8268 173.385 41.0742C172.618 41.334 171.777 41.4639 170.861 41.4639C169.649 41.4639 168.524 41.2103 167.484 40.7031C166.458 40.1836 165.567 39.4476 164.813 38.4951C164.058 37.5426 163.483 36.4232 163.087 35.1367C162.704 33.8503 162.512 32.4587 162.512 30.9619C162.512 27.7952 163.285 25.3275 164.831 23.5586C166.377 21.7897 168.412 20.9053 170.936 20.9053C172.395 20.9053 173.626 21.1589 174.628 21.666C175.63 22.1608 176.607 22.9277 177.56 23.9668V16.4893C177.56 15.4502 177.764 14.6647 178.172 14.1328C178.593 13.6009 179.186 13.335 179.953 13.335C180.72 13.335 181.308 13.5824 181.716 14.0771C182.136 14.5596 182.347 15.277 182.347 16.2295V38.5693C182.347 39.5342 182.124 40.2578 181.679 40.7402C181.233 41.2227 180.658 41.4639 179.953 41.4639C179.26 41.4639 178.685 41.2165 178.228 40.7217C177.782 40.2145 177.56 39.4971 177.56 38.5693ZM167.596 31.1289C167.596 32.502 167.806 33.6709 168.227 34.6357C168.66 35.6006 169.247 36.3304 169.989 36.8252C170.732 37.3076 171.542 37.5488 172.42 37.5488C173.311 37.5488 174.121 37.32 174.851 36.8623C175.593 36.3923 176.18 35.681 176.613 34.7285C177.059 33.7637 177.281 32.5638 177.281 31.1289C177.281 29.7806 177.059 28.624 176.613 27.6592C176.18 26.682 175.587 25.9398 174.832 25.4326C174.09 24.9131 173.274 24.6533 172.383 24.6533C171.455 24.6533 170.626 24.9193 169.897 25.4512C169.167 25.9707 168.598 26.7253 168.19 27.7148C167.794 28.6921 167.596 29.8301 167.596 31.1289ZM200.809 32.4092H190.901C190.914 33.5596 191.142 34.5739 191.588 35.4521C192.045 36.3304 192.645 36.9922 193.388 37.4375C194.142 37.8828 194.971 38.1055 195.874 38.1055C196.48 38.1055 197.03 38.0374 197.525 37.9014C198.032 37.7529 198.521 37.5303 198.991 37.2334C199.461 36.9242 199.894 36.5964 200.29 36.25C200.686 35.9036 201.199 35.4336 201.83 34.8398C202.09 34.6172 202.461 34.5059 202.943 34.5059C203.463 34.5059 203.883 34.6481 204.205 34.9326C204.527 35.2171 204.687 35.6191 204.687 36.1387C204.687 36.5964 204.508 37.1344 204.149 37.7529C203.791 38.359 203.246 38.9466 202.516 39.5156C201.799 40.0723 200.89 40.5361 199.789 40.9072C198.7 41.2783 197.445 41.4639 196.022 41.4639C192.769 41.4639 190.239 40.5361 188.433 38.6807C186.627 36.8252 185.724 34.3079 185.724 31.1289C185.724 29.6322 185.947 28.2467 186.392 26.9727C186.838 25.6862 187.487 24.5853 188.341 23.6699C189.194 22.7546 190.246 22.0557 191.495 21.5732C192.744 21.0785 194.13 20.8311 195.651 20.8311C197.63 20.8311 199.325 21.2516 200.735 22.0928C202.158 22.9215 203.222 23.9977 203.927 25.3213C204.632 26.6449 204.984 27.9932 204.984 29.3662C204.984 30.6403 204.619 31.4691 203.889 31.8525C203.16 32.2236 202.133 32.4092 200.809 32.4092ZM190.901 29.5332H200.086C199.962 27.8014 199.492 26.5088 198.676 25.6553C197.872 24.7894 196.808 24.3564 195.484 24.3564C194.223 24.3564 193.183 24.7956 192.367 25.6738C191.563 26.5397 191.074 27.8262 190.901 29.5332ZM224.82 34.8398C224.82 36.2376 224.48 37.4375 223.799 38.4395C223.119 39.429 222.111 40.1836 220.775 40.7031C219.451 41.2103 217.837 41.4639 215.932 41.4639C214.114 41.4639 212.555 41.1855 211.256 40.6289C209.958 40.0723 208.999 39.3796 208.38 38.5508C207.762 37.7096 207.453 36.8685 207.453 36.0273C207.453 35.4707 207.651 34.9945 208.046 34.5986C208.442 34.2028 208.943 34.0049 209.549 34.0049C210.081 34.0049 210.49 34.1348 210.774 34.3945C211.059 34.6543 211.331 35.0192 211.59 35.4893C212.11 36.3923 212.728 37.0664 213.446 37.5117C214.176 37.957 215.165 38.1797 216.415 38.1797C217.429 38.1797 218.258 37.957 218.901 37.5117C219.557 37.054 219.884 36.5345 219.884 35.9531C219.884 35.0625 219.544 34.4131 218.864 34.0049C218.196 33.5967 217.089 33.207 215.543 32.8359C213.798 32.403 212.376 31.9515 211.275 31.4814C210.186 30.999 209.314 30.3682 208.659 29.5889C208.003 28.8096 207.675 27.8509 207.675 26.7129C207.675 25.6986 207.978 24.7399 208.585 23.8369C209.191 22.9339 210.081 22.2165 211.256 21.6846C212.444 21.1403 213.873 20.8682 215.543 20.8682C216.854 20.8682 218.029 21.0042 219.068 21.2764C220.119 21.5485 220.991 21.9134 221.684 22.3711C222.389 22.8288 222.921 23.3359 223.28 23.8926C223.651 24.4492 223.837 24.9935 223.837 25.5254C223.837 26.1068 223.639 26.583 223.243 26.9541C222.859 27.3252 222.309 27.5107 221.591 27.5107C221.072 27.5107 220.627 27.3623 220.255 27.0654C219.897 26.7686 219.482 26.3232 219.012 25.7295C218.629 25.2347 218.177 24.8389 217.658 24.542C217.138 24.2451 216.433 24.0967 215.543 24.0967C214.627 24.0967 213.866 24.2946 213.26 24.6904C212.654 25.0739 212.351 25.5563 212.351 26.1377C212.351 26.6696 212.574 27.1087 213.019 27.4551C213.464 27.7891 214.064 28.0674 214.819 28.29C215.573 28.5127 216.613 28.7848 217.936 29.1064C219.507 29.4899 220.787 29.9476 221.777 30.4795C222.779 31.0114 223.533 31.6423 224.041 32.3721C224.56 33.0895 224.82 33.9121 224.82 34.8398ZM233.411 23.7441V38.3838C233.411 39.3981 233.17 40.165 232.688 40.6846C232.205 41.2041 231.593 41.4639 230.851 41.4639C230.109 41.4639 229.503 41.1979 229.033 40.666C228.575 40.1341 228.346 39.3734 228.346 38.3838V23.8926C228.346 22.8906 228.575 22.1361 229.033 21.6289C229.503 21.1217 230.109 20.8682 230.851 20.8682C231.593 20.8682 232.205 21.1217 232.688 21.6289C233.17 22.1361 233.411 22.8411 233.411 23.7441ZM230.907 18.5117C230.202 18.5117 229.595 18.2952 229.088 17.8623C228.593 17.4294 228.346 16.8171 228.346 16.0254C228.346 15.3079 228.6 14.7204 229.107 14.2627C229.626 13.7926 230.226 13.5576 230.907 13.5576C231.562 13.5576 232.144 13.7679 232.651 14.1885C233.158 14.609 233.411 15.2214 233.411 16.0254C233.411 16.8047 233.164 17.417 232.669 17.8623C232.175 18.2952 231.587 18.5117 230.907 18.5117ZM256.531 24.5791V39.293C256.531 40.9753 256.352 42.4225 255.993 43.6348C255.635 44.847 255.059 45.849 254.268 46.6406C253.476 47.4323 252.437 48.0199 251.151 48.4033C249.876 48.7868 248.287 48.9785 246.382 48.9785C244.638 48.9785 243.079 48.7311 241.706 48.2363C240.333 47.7539 239.276 47.123 238.533 46.3438C237.791 45.5768 237.42 44.7852 237.42 43.9688C237.42 43.3503 237.63 42.8431 238.051 42.4473C238.471 42.0638 238.979 41.8721 239.572 41.8721C240.315 41.8721 240.964 42.1999 241.521 42.8555C241.793 43.1895 242.071 43.5234 242.356 43.8574C242.652 44.2038 242.974 44.4945 243.32 44.7295C243.679 44.9769 244.106 45.1562 244.601 45.2676C245.095 45.3913 245.665 45.4531 246.308 45.4531C247.619 45.4531 248.633 45.2676 249.351 44.8965C250.081 44.5378 250.588 44.0306 250.872 43.375C251.169 42.7194 251.342 42.0143 251.392 41.2598C251.441 40.5176 251.478 39.3177 251.503 37.6602C250.724 38.7487 249.821 39.5775 248.794 40.1465C247.78 40.7155 246.568 41 245.157 41C243.463 41 241.978 40.5671 240.704 39.7012C239.443 38.8353 238.471 37.623 237.791 36.0645C237.111 34.5059 236.771 32.7061 236.771 30.665C236.771 29.1436 236.975 27.7705 237.383 26.5459C237.804 25.3213 238.397 24.2884 239.164 23.4473C239.931 22.6061 240.816 21.9753 241.818 21.5547C242.819 21.1217 243.92 20.9053 245.12 20.9053C246.555 20.9053 247.798 21.1836 248.85 21.7402C249.901 22.2845 250.878 23.1442 251.781 24.3193V23.6328C251.781 22.7546 251.998 22.0742 252.431 21.5918C252.864 21.1094 253.42 20.8682 254.101 20.8682C255.078 20.8682 255.727 21.1898 256.049 21.833C256.371 22.4639 256.531 23.3792 256.531 24.5791ZM241.855 30.999C241.855 33.0524 242.3 34.6048 243.191 35.6562C244.094 36.7077 245.256 37.2334 246.679 37.2334C247.52 37.2334 248.312 37.0107 249.054 36.5654C249.808 36.1077 250.421 35.4274 250.891 34.5244C251.361 33.609 251.596 32.502 251.596 31.2031C251.596 29.1374 251.138 27.5293 250.223 26.3789C249.32 25.2285 248.126 24.6533 246.642 24.6533C245.194 24.6533 244.032 25.2038 243.153 26.3047C242.288 27.4056 241.855 28.9704 241.855 30.999ZM265.494 23.6699V24.2822C266.385 23.1071 267.356 22.2474 268.407 21.7031C269.471 21.1465 270.689 20.8682 272.062 20.8682C273.398 20.8682 274.592 21.1589 275.643 21.7402C276.695 22.3216 277.48 23.1442 278 24.208C278.334 24.8265 278.55 25.4945 278.649 26.2119C278.748 26.9294 278.798 27.8447 278.798 28.958V38.3838C278.798 39.3981 278.563 40.165 278.093 40.6846C277.635 41.2041 277.035 41.4639 276.293 41.4639C275.538 41.4639 274.926 41.1979 274.456 40.666C273.986 40.1341 273.751 39.3734 273.751 38.3838V29.9414C273.751 28.2715 273.516 26.9974 273.046 26.1191C272.588 25.2285 271.667 24.7832 270.281 24.7832C269.378 24.7832 268.556 25.0553 267.813 25.5996C267.071 26.1315 266.527 26.8675 266.181 27.8076C265.933 28.5622 265.809 29.9723 265.809 32.0381V38.3838C265.809 39.4105 265.568 40.1836 265.086 40.7031C264.616 41.2103 264.003 41.4639 263.249 41.4639C262.519 41.4639 261.919 41.1979 261.449 40.666C260.979 40.1341 260.744 39.3734 260.744 38.3838V23.7441C260.744 22.7793 260.954 22.0618 261.375 21.5918C261.795 21.1094 262.371 20.8682 263.1 20.8682C263.546 20.8682 263.948 20.9733 264.307 21.1836C264.665 21.3939 264.95 21.7093 265.16 22.1299C265.383 22.5505 265.494 23.0638 265.494 23.6699Z" fill="#502626"/>
</g>
</g>
<defs>
<filter id="filter0_dd_966_22" x="0" y="0" width="301" height="60" filterUnits="userSpaceOnUse" color-interpolation-filters="sRGB">
<feFlood flood-opacity="0" result="BackgroundImageFix"/>
<feColorMatrix in="SourceAlpha" type="matrix" values="0 0 0 0 0 0 0 0 0 0 0 0 0 0 0 0 0 0 127 0" result="hardAlpha"/>
<feOffset dx="1" dy="3"/>
<feGaussianBlur stdDeviation="2"/>
<feComposite in2="hardAlpha" operator="out"/>
<feColorMatrix type="matrix" values="0 0 0 0 0 0 0 0 0 0 0 0 0 0 0 0 0 0 0.12 0"/>
<feBlend mode="normal" in2="BackgroundImageFix" result="effect1_dropShadow_966_22"/>
<feColorMatrix in="SourceAlpha" type="matrix" values="0 0 0 0 0 0 0 0 0 0 0 0 0 0 0 0 0 0 127 0" result="hardAlpha"/>
<feOffset dx="1" dy="1"/>
<feGaussianBlur stdDeviation="1"/>
<feComposite in2="hardAlpha" operator="out"/>
<feColorMatrix type="matrix" values="0 0 0 0 0 0 0 0 0 0 0 0 0 0 0 0 0 0 0.25 0"/>
<feBlend mode="normal" in2="effect1_dropShadow_966_22" result="effect2_dropShadow_966_22"/>
<feBlend mode="normal" in="SourceGraphic" in2="effect2_dropShadow_966_22" result="shape"/>
</filter>
<filter id="filter1_di_966_22" x="18.1844" y="13.335" width="261.913" height="37.2436" filterUnits="userSpaceOnUse" color-interpolation-filters="sRGB">
<feFlood flood-opacity="0" result="BackgroundImageFix"/>
<feColorMatrix in="SourceAlpha" type="matrix" values="0 0 0 0 0 0 0 0 0 0 0 0 0 0 0 0 0 0 127 0" result="hardAlpha"/>
<feOffset dx="0.5" dy="0.8"/>
<feGaussianBlur stdDeviation="0.4"/>
<feComposite in2="hardAlpha" operator="out"/>
<feColorMatrix type="matrix" values="0 0 0 0 1 0 0 0 0 1 0 0 0 0 1 0 0 0 0.2 0"/>
<feBlend mode="normal" in2="BackgroundImageFix" result="effect1_dropShadow_966_22"/>
<feBlend mode="normal" in="SourceGraphic" in2="effect1_dropShadow_966_22" result="shape"/>
<feColorMatrix in="SourceAlpha" type="matrix" values="0 0 0 0 0 0 0 0 0 0 0 0 0 0 0 0 0 0 127 0" result="hardAlpha"/>
<feOffset dy="1"/>
<feGaussianBlur stdDeviation="1"/>
<feComposite in2="hardAlpha" operator="arithmetic" k2="-1" k3="1"/>
<feColorMatrix type="matrix" values="0 0 0 0 0 0 0 0 0 0 0 0 0 0 0 0 0 0 0.35 0"/>
<feBlend mode="normal" in2="shape" result="effect2_innerShadow_966_22"/>
</filter>
<linearGradient id="paint0_linear_966_22" x1="3" y1="27" x2="296" y2="27" gradientUnits="userSpaceOnUse">
<stop stop-color="#FFA3A3"/>
<stop offset="1" stop-color="#FCB6B6"/>
</linearGradient>
</defs>
</svg>
