<svg width="212" height="60" viewBox="0 0 212 60" fill="none" xmlns="http://www.w3.org/2000/svg">
<g filter="url(#filter0_dd_966_14)">
<mask id="path-1-inside-1_966_14" fill="white">
<path d="M3 16C3 7.71573 9.71573 1 18 1H192C200.284 1 207 7.71573 207 16V38C207 46.2843 200.284 53 192 53H18C9.71573 53 3 46.2843 3 38V16Z"/>
</mask>
<path d="M3 16C3 7.71573 9.71573 1 18 1H192C200.284 1 207 7.71573 207 16V38C207 46.2843 200.284 53 192 53H18C9.71573 53 3 46.2843 3 38V16Z" fill="url(#paint0_linear_966_14)" shape-rendering="crispEdges"/>
<path d="M3 1H207H3ZM207 38C207 46.8366 199.837 54 191 54H19C10.1634 54 3 46.8366 3 38C3 45.732 9.71573 52 18 52H192C200.284 52 207 45.732 207 38ZM3 53V1V53ZM207 1V53V1Z" fill="#23211F" fill-opacity="0.22" mask="url(#path-1-inside-1_966_14)"/>
<g filter="url(#filter1_di_966_14)">
<path d="M34.4639 31.5371V38.2725C34.4639 39.3363 34.2227 40.1341 33.7402 40.666C33.2578 41.1979 32.6208 41.4639 31.8291 41.4639C31.0622 41.4639 30.4375 41.1979 29.9551 40.666C29.485 40.1341 29.25 39.3363 29.25 38.2725V30.2012C29.25 28.9271 29.2067 27.9375 29.1201 27.2324C29.0335 26.5273 28.7985 25.9521 28.415 25.5068C28.0316 25.0492 27.4255 24.8203 26.5967 24.8203C24.9391 24.8203 23.8444 25.3893 23.3125 26.5273C22.793 27.6654 22.5332 29.2982 22.5332 31.4258V38.2725C22.5332 39.3239 22.292 40.1217 21.8096 40.666C21.3395 41.1979 20.7148 41.4639 19.9355 41.4639C19.1686 41.4639 18.5378 41.1979 18.043 40.666C17.5605 40.1217 17.3193 39.3239 17.3193 38.2725V23.7812C17.3193 22.8288 17.5358 22.1051 17.9688 21.6104C18.4141 21.1156 18.9954 20.8682 19.7129 20.8682C20.4056 20.8682 20.9808 21.1032 21.4385 21.5732C21.9085 22.0309 22.1436 22.668 22.1436 23.4844V23.9668C23.0218 22.9154 23.9619 22.1423 24.9639 21.6475C25.9658 21.1527 27.0791 20.9053 28.3037 20.9053C29.5778 20.9053 30.6725 21.1589 31.5879 21.666C32.5033 22.1732 33.2578 22.9401 33.8516 23.9668C34.7051 22.9277 35.6204 22.1608 36.5977 21.666C37.5749 21.1589 38.6572 20.9053 39.8447 20.9053C41.2301 20.9053 42.4238 21.1774 43.4258 21.7217C44.4277 22.266 45.1761 23.0452 45.6709 24.0596C46.1038 24.9749 46.3203 26.416 46.3203 28.3828V38.2725C46.3203 39.3363 46.0791 40.1341 45.5967 40.666C45.1143 41.1979 44.4772 41.4639 43.6855 41.4639C42.9186 41.4639 42.2878 41.1979 41.793 40.666C41.3105 40.1217 41.0693 39.3239 41.0693 38.2725V29.7559C41.0693 28.6673 41.0199 27.7952 40.9209 27.1396C40.8343 26.484 40.5869 25.9336 40.1787 25.4883C39.7705 25.043 39.152 24.8203 38.3232 24.8203C37.6553 24.8203 37.0182 25.0182 36.4121 25.4141C35.8184 25.8099 35.3545 26.3418 35.0205 27.0098C34.6494 27.8633 34.4639 29.3724 34.4639 31.5371ZM63.28 38.6064C62.0554 39.5589 60.8679 40.2764 59.7175 40.7588C58.5795 41.2288 57.2992 41.4639 55.8767 41.4639C54.5779 41.4639 53.4337 41.2103 52.4441 40.7031C51.4669 40.1836 50.7123 39.4847 50.1804 38.6064C49.6485 37.7282 49.3826 36.7757 49.3826 35.749C49.3826 34.3636 49.8217 33.1823 50.7 32.2051C51.5782 31.2279 52.7843 30.5723 54.3181 30.2383C54.6397 30.1641 55.4376 29.9971 56.7117 29.7373C57.9858 29.4775 59.0743 29.2425 59.9773 29.0322C60.8927 28.8096 61.8823 28.5436 62.9461 28.2344C62.8842 26.8984 62.6121 25.9212 62.1297 25.3027C61.6596 24.6719 60.6762 24.3564 59.1795 24.3564C57.893 24.3564 56.922 24.5358 56.2664 24.8945C55.6231 25.2533 55.0665 25.7913 54.5964 26.5088C54.1388 27.2262 53.811 27.7025 53.613 27.9375C53.4275 28.1602 53.0193 28.2715 52.3884 28.2715C51.8194 28.2715 51.3246 28.0921 50.9041 27.7334C50.4959 27.3623 50.2918 26.8923 50.2918 26.3232C50.2918 25.4326 50.6072 24.5667 51.238 23.7256C51.8689 22.8844 52.8523 22.1917 54.1882 21.6475C55.5242 21.1032 57.1879 20.8311 59.1795 20.8311C61.406 20.8311 63.1563 21.097 64.4304 21.6289C65.7045 22.1484 66.6013 22.9772 67.1209 24.1152C67.6528 25.2533 67.9187 26.7624 67.9187 28.6426C67.9187 29.8301 67.9125 30.8382 67.9002 31.667C67.9002 32.4958 67.894 33.4173 67.8816 34.4316C67.8816 35.3841 68.0362 36.3799 68.3455 37.4189C68.6671 38.4456 68.8279 39.1074 68.8279 39.4043C68.8279 39.9238 68.5805 40.4001 68.0857 40.833C67.6033 41.2536 67.0528 41.4639 66.4343 41.4639C65.9148 41.4639 65.4015 41.2227 64.8943 40.7402C64.3871 40.2454 63.8491 39.5342 63.28 38.6064ZM62.9461 31.2773C62.2039 31.5495 61.1215 31.8402 59.699 32.1494C58.2888 32.4463 57.3116 32.6689 56.7673 32.8174C56.2231 32.9535 55.7035 33.2318 55.2088 33.6523C54.714 34.0605 54.4666 34.6357 54.4666 35.3779C54.4666 36.1449 54.7573 36.8005 55.3386 37.3447C55.92 37.8766 56.6808 38.1426 57.6209 38.1426C58.6228 38.1426 59.5444 37.9261 60.3855 37.4932C61.239 37.0479 61.8637 36.4788 62.2595 35.7861C62.7172 35.0192 62.9461 33.7575 62.9461 32.001V31.2773ZM77.3452 34.1533V38.3838C77.3452 39.4105 77.104 40.1836 76.6216 40.7031C76.1392 41.2103 75.5269 41.4639 74.7847 41.4639C74.0549 41.4639 73.4549 41.2041 72.9849 40.6846C72.5148 40.165 72.2798 39.3981 72.2798 38.3838V24.2822C72.2798 22.0062 73.1024 20.8682 74.7476 20.8682C75.5887 20.8682 76.1948 21.1341 76.5659 21.666C76.937 22.1979 77.1411 22.9834 77.1782 24.0225C77.7844 22.9834 78.4029 22.1979 79.0337 21.666C79.6769 21.1341 80.5305 20.8682 81.5943 20.8682C82.6581 20.8682 83.6909 21.1341 84.6929 21.666C85.6948 22.1979 86.1958 22.903 86.1958 23.7812C86.1958 24.3997 85.9793 24.9131 85.5464 25.3213C85.1258 25.7171 84.6682 25.915 84.1734 25.915C83.9878 25.915 83.5363 25.8037 82.8189 25.5811C82.1138 25.346 81.4891 25.2285 80.9448 25.2285C80.2027 25.2285 79.5965 25.4264 79.1265 25.8223C78.6564 26.2057 78.2915 26.7809 78.0318 27.5479C77.772 28.3148 77.5926 29.2301 77.4937 30.2939C77.3947 31.3454 77.3452 32.6318 77.3452 34.1533ZM99.8714 39.1445L95.3997 31.7969L92.6536 34.3945V38.4209C92.6536 39.3981 92.3938 40.1527 91.8743 40.6846C91.3671 41.2041 90.7796 41.4639 90.1116 41.4639C89.3323 41.4639 88.72 41.2041 88.2747 40.6846C87.8294 40.165 87.6067 39.3981 87.6067 38.3838V16.7861C87.6067 15.6605 87.8232 14.807 88.2561 14.2256C88.6891 13.6318 89.3076 13.335 90.1116 13.335C90.8909 13.335 91.5094 13.6009 91.9671 14.1328C92.4248 14.6647 92.6536 15.4502 92.6536 16.4893V28.7725L98.3499 22.7979C99.055 22.0557 99.593 21.5485 99.9641 21.2764C100.335 21.0042 100.787 20.8682 101.319 20.8682C101.949 20.8682 102.475 21.0723 102.896 21.4805C103.316 21.8763 103.527 22.3773 103.527 22.9834C103.527 23.7256 102.84 24.7152 101.467 25.9521L98.7766 28.4199L103.972 36.584C104.355 37.1901 104.628 37.654 104.788 37.9756C104.962 38.2848 105.048 38.5817 105.048 38.8662C105.048 39.6702 104.825 40.3073 104.38 40.7773C103.947 41.235 103.372 41.4639 102.655 41.4639C102.036 41.4639 101.56 41.2969 101.226 40.9629C100.892 40.6289 100.44 40.0228 99.8714 39.1445ZM120.969 32.4092H111.061C111.073 33.5596 111.302 34.5739 111.747 35.4521C112.205 36.3304 112.805 36.9922 113.547 37.4375C114.301 37.8828 115.13 38.1055 116.033 38.1055C116.639 38.1055 117.19 38.0374 117.685 37.9014C118.192 37.7529 118.68 37.5303 119.15 37.2334C119.62 36.9242 120.053 36.5964 120.449 36.25C120.845 35.9036 121.358 35.4336 121.989 34.8398C122.249 34.6172 122.62 34.5059 123.103 34.5059C123.622 34.5059 124.043 34.6481 124.364 34.9326C124.686 35.2171 124.847 35.6191 124.847 36.1387C124.847 36.5964 124.667 37.1344 124.309 37.7529C123.95 38.359 123.406 38.9466 122.676 39.5156C121.958 40.0723 121.049 40.5361 119.948 40.9072C118.86 41.2783 117.604 41.4639 116.182 41.4639C112.928 41.4639 110.399 40.5361 108.593 38.6807C106.787 36.8252 105.884 34.3079 105.884 31.1289C105.884 29.6322 106.106 28.2467 106.552 26.9727C106.997 25.6862 107.647 24.5853 108.5 23.6699C109.354 22.7546 110.405 22.0557 111.654 21.5732C112.904 21.0785 114.289 20.8311 115.811 20.8311C117.79 20.8311 119.484 21.2516 120.895 22.0928C122.317 22.9215 123.381 23.9977 124.086 25.3213C124.791 26.6449 125.144 27.9932 125.144 29.3662C125.144 30.6403 124.779 31.4691 124.049 31.8525C123.319 32.2236 122.292 32.4092 120.969 32.4092ZM111.061 29.5332H120.245C120.121 27.8014 119.651 26.5088 118.835 25.6553C118.031 24.7894 116.967 24.3564 115.644 24.3564C114.382 24.3564 113.343 24.7956 112.526 25.6738C111.722 26.5397 111.234 27.8262 111.061 29.5332ZM128.948 21.3135H129.505V18.2705C129.505 17.4541 129.523 16.8171 129.56 16.3594C129.61 15.8893 129.734 15.4873 129.931 15.1533C130.129 14.807 130.414 14.5286 130.785 14.3184C131.156 14.0957 131.57 13.9844 132.028 13.9844C132.671 13.9844 133.253 14.2256 133.772 14.708C134.119 15.0296 134.335 15.4255 134.422 15.8955C134.521 16.3532 134.57 17.0088 134.57 17.8623V21.3135H136.426C137.143 21.3135 137.687 21.4867 138.058 21.833C138.442 22.167 138.634 22.5999 138.634 23.1318C138.634 23.8122 138.361 24.2884 137.817 24.5605C137.285 24.8327 136.518 24.9688 135.516 24.9688H134.57V34.2832C134.57 35.0749 134.595 35.6872 134.644 36.1201C134.706 36.5407 134.855 36.887 135.09 37.1592C135.337 37.4189 135.733 37.5488 136.277 37.5488C136.574 37.5488 136.976 37.4993 137.483 37.4004C137.99 37.2891 138.386 37.2334 138.671 37.2334C139.079 37.2334 139.444 37.4004 139.765 37.7344C140.099 38.056 140.266 38.458 140.266 38.9404C140.266 39.7568 139.821 40.3815 138.93 40.8145C138.04 41.2474 136.76 41.4639 135.09 41.4639C133.506 41.4639 132.306 41.1979 131.49 40.666C130.674 40.1341 130.136 39.3981 129.876 38.458C129.628 37.5179 129.505 36.2624 129.505 34.6914V24.9688H128.837C128.107 24.9688 127.55 24.7956 127.167 24.4492C126.783 24.1029 126.592 23.6637 126.592 23.1318C126.592 22.5999 126.79 22.167 127.185 21.833C127.594 21.4867 128.181 21.3135 128.948 21.3135ZM146.446 23.7441V38.3838C146.446 39.3981 146.205 40.165 145.722 40.6846C145.24 41.2041 144.628 41.4639 143.885 41.4639C143.143 41.4639 142.537 41.1979 142.067 40.666C141.609 40.1341 141.38 39.3734 141.38 38.3838V23.8926C141.38 22.8906 141.609 22.1361 142.067 21.6289C142.537 21.1217 143.143 20.8682 143.885 20.8682C144.628 20.8682 145.24 21.1217 145.722 21.6289C146.205 22.1361 146.446 22.8411 146.446 23.7441ZM143.941 18.5117C143.236 18.5117 142.63 18.2952 142.123 17.8623C141.628 17.4294 141.38 16.8171 141.38 16.0254C141.38 15.3079 141.634 14.7204 142.141 14.2627C142.661 13.7926 143.261 13.5576 143.941 13.5576C144.597 13.5576 145.178 13.7679 145.685 14.1885C146.192 14.609 146.446 15.2214 146.446 16.0254C146.446 16.8047 146.198 17.417 145.704 17.8623C145.209 18.2952 144.621 18.5117 143.941 18.5117ZM155.538 23.6699V24.2822C156.429 23.1071 157.4 22.2474 158.451 21.7031C159.515 21.1465 160.734 20.8682 162.107 20.8682C163.443 20.8682 164.636 21.1589 165.688 21.7402C166.739 22.3216 167.525 23.1442 168.044 24.208C168.378 24.8265 168.595 25.4945 168.694 26.2119C168.793 26.9294 168.842 27.8447 168.842 28.958V38.3838C168.842 39.3981 168.607 40.165 168.137 40.6846C167.679 41.2041 167.079 41.4639 166.337 41.4639C165.583 41.4639 164.97 41.1979 164.5 40.666C164.03 40.1341 163.795 39.3734 163.795 38.3838V29.9414C163.795 28.2715 163.56 26.9974 163.09 26.1191C162.632 25.2285 161.711 24.7832 160.326 24.7832C159.423 24.7832 158.6 25.0553 157.858 25.5996C157.116 26.1315 156.571 26.8675 156.225 27.8076C155.978 28.5622 155.854 29.9723 155.854 32.0381V38.3838C155.854 39.4105 155.613 40.1836 155.13 40.7031C154.66 41.2103 154.048 41.4639 153.293 41.4639C152.563 41.4639 151.964 41.1979 151.493 40.666C151.023 40.1341 150.788 39.3734 150.788 38.3838V23.7441C150.788 22.7793 150.999 22.0618 151.419 21.5918C151.84 21.1094 152.415 20.8682 153.145 20.8682C153.59 20.8682 153.992 20.9733 154.351 21.1836C154.71 21.3939 154.994 21.7093 155.204 22.1299C155.427 22.5505 155.538 23.0638 155.538 23.6699ZM191.776 24.5791V39.293C191.776 40.9753 191.597 42.4225 191.238 43.6348C190.88 44.847 190.304 45.849 189.513 46.6406C188.721 47.4323 187.682 48.0199 186.396 48.4033C185.121 48.7868 183.532 48.9785 181.627 48.9785C179.883 48.9785 178.324 48.7311 176.951 48.2363C175.578 47.7539 174.521 47.123 173.778 46.3438C173.036 45.5768 172.665 44.7852 172.665 43.9688C172.665 43.3503 172.875 42.8431 173.296 42.4473C173.717 42.0638 174.224 41.8721 174.817 41.8721C175.56 41.8721 176.209 42.1999 176.766 42.8555C177.038 43.1895 177.316 43.5234 177.601 43.8574C177.898 44.2038 178.219 44.4945 178.566 44.7295C178.924 44.9769 179.351 45.1562 179.846 45.2676C180.341 45.3913 180.91 45.4531 181.553 45.4531C182.864 45.4531 183.878 45.2676 184.596 44.8965C185.326 44.5378 185.833 44.0306 186.117 43.375C186.414 42.7194 186.587 42.0143 186.637 41.2598C186.686 40.5176 186.723 39.3177 186.748 37.6602C185.969 38.7487 185.066 39.5775 184.039 40.1465C183.025 40.7155 181.813 41 180.402 41C178.708 41 177.223 40.5671 175.949 39.7012C174.688 38.8353 173.717 37.623 173.036 36.0645C172.356 34.5059 172.016 32.7061 172.016 30.665C172.016 29.1436 172.22 27.7705 172.628 26.5459C173.049 25.3213 173.642 24.2884 174.409 23.4473C175.176 22.6061 176.061 21.9753 177.063 21.5547C178.065 21.1217 179.165 20.9053 180.365 20.9053C181.8 20.9053 183.043 21.1836 184.095 21.7402C185.146 22.2845 186.123 23.1442 187.026 24.3193V23.6328C187.026 22.7546 187.243 22.0742 187.676 21.5918C188.109 21.1094 188.665 20.8682 189.346 20.8682C190.323 20.8682 190.972 21.1898 191.294 21.833C191.616 22.4639 191.776 23.3792 191.776 24.5791ZM177.1 30.999C177.1 33.0524 177.545 34.6048 178.436 35.6562C179.339 36.7077 180.501 37.2334 181.924 37.2334C182.765 37.2334 183.557 37.0107 184.299 36.5654C185.053 36.1077 185.666 35.4274 186.136 34.5244C186.606 33.609 186.841 32.502 186.841 31.2031C186.841 29.1374 186.383 27.5293 185.468 26.3789C184.565 25.2285 183.371 24.6533 181.887 24.6533C180.44 24.6533 179.277 25.2038 178.399 26.3047C177.533 27.4056 177.1 28.9704 177.1 30.999Z" fill="#513606"/>
</g>
</g>
<defs>
<filter id="filter0_dd_966_14" x="0" y="0" width="212" height="60" filterUnits="userSpaceOnUse" color-interpolation-filters="sRGB">
<feFlood flood-opacity="0" result="BackgroundImageFix"/>
<feColorMatrix in="SourceAlpha" type="matrix" values="0 0 0 0 0 0 0 0 0 0 0 0 0 0 0 0 0 0 127 0" result="hardAlpha"/>
<feOffset dx="1" dy="3"/>
<feGaussianBlur stdDeviation="2"/>
<feComposite in2="hardAlpha" operator="out"/>
<feColorMatrix type="matrix" values="0 0 0 0 0 0 0 0 0 0 0 0 0 0 0 0 0 0 0.12 0"/>
<feBlend mode="normal" in2="BackgroundImageFix" result="effect1_dropShadow_966_14"/>
<feColorMatrix in="SourceAlpha" type="matrix" values="0 0 0 0 0 0 0 0 0 0 0 0 0 0 0 0 0 0 127 0" result="hardAlpha"/>
<feOffset dx="1" dy="1"/>
<feGaussianBlur stdDeviation="1"/>
<feComposite in2="hardAlpha" operator="out"/>
<feColorMatrix type="matrix" values="0 0 0 0 0 0 0 0 0 0 0 0 0 0 0 0 0 0 0.25 0"/>
<feBlend mode="normal" in2="effect1_dropShadow_966_14" result="effect2_dropShadow_966_14"/>
<feBlend mode="normal" in="SourceGraphic" in2="effect2_dropShadow_966_14" result="shape"/>
</filter>
<filter id="filter1_di_966_14" x="17.0193" y="13.335" width="176.057" height="37.2436" filterUnits="userSpaceOnUse" color-interpolation-filters="sRGB">
<feFlood flood-opacity="0" result="BackgroundImageFix"/>
<feColorMatrix in="SourceAlpha" type="matrix" values="0 0 0 0 0 0 0 0 0 0 0 0 0 0 0 0 0 0 127 0" result="hardAlpha"/>
<feOffset dx="0.5" dy="0.8"/>
<feGaussianBlur stdDeviation="0.4"/>
<feComposite in2="hardAlpha" operator="out"/>
<feColorMatrix type="matrix" values="0 0 0 0 1 0 0 0 0 1 0 0 0 0 1 0 0 0 0.2 0"/>
<feBlend mode="normal" in2="BackgroundImageFix" result="effect1_dropShadow_966_14"/>
<feBlend mode="normal" in="SourceGraphic" in2="effect1_dropShadow_966_14" result="shape"/>
<feColorMatrix in="SourceAlpha" type="matrix" values="0 0 0 0 0 0 0 0 0 0 0 0 0 0 0 0 0 0 127 0" result="hardAlpha"/>
<feOffset dy="1"/>
<feGaussianBlur stdDeviation="1"/>
<feComposite in2="hardAlpha" operator="arithmetic" k2="-1" k3="1"/>
<feColorMatrix type="matrix" values="0 0 0 0 0 0 0 0 0 0 0 0 0 0 0 0 0 0 0.35 0"/>
<feBlend mode="normal" in2="shape" result="effect2_innerShadow_966_14"/>
</filter>
<linearGradient id="paint0_linear_966_14" x1="3" y1="27" x2="207" y2="27" gradientUnits="userSpaceOnUse">
<stop stop-color="#FFBE25"/>
<stop offset="1" stop-color="#FFD571"/>
</linearGradient>
</defs>
</svg>
