<svg width="54" height="25" viewBox="0 0 54 25" fill="none" xmlns="http://www.w3.org/2000/svg">
<path d="M13.557 16.4053C13.3117 17.3313 12.993 18.1686 12.6015 18.9164C12.2098 19.6642 11.712 20.4259 11.1081 21.2014C10.5042 20.4785 10.0131 19.7428 9.63461 18.995C9.25633 18.2471 8.93089 17.3838 8.65922 16.4053H13.557Z" fill="white" fill-opacity="0.2"/>
<path d="M7.59885 16.4053C7.79273 17.2678 8.08859 18.1159 8.48475 18.9489C8.88104 19.7818 9.31921 20.4809 9.79913 21.0467C8.45675 20.8699 7.24443 20.372 6.16243 19.553C5.08059 18.7338 4.24431 17.6847 3.65479 16.4053H7.59885Z" fill="white" fill-opacity="0.2"/>
<path d="M18.5614 16.4053C17.9719 17.6847 17.1356 18.7338 16.0538 19.553C14.9718 20.372 13.7594 20.8699 12.4171 21.0467C12.8312 20.4941 13.2368 19.8017 13.6329 18.9688C14.0292 18.1358 14.3576 17.281 14.6173 16.4053H18.5614Z" fill="white" fill-opacity="0.2"/>
<path d="M7.38551 10.5487C7.30768 10.9708 7.25231 11.3826 7.22008 11.7829C7.18769 12.1831 7.17217 12.5765 7.17217 12.963C7.17217 13.3494 7.18769 13.7428 7.22008 14.143C7.25231 14.5434 7.30768 14.9551 7.38551 15.3772H3.23625C3.12415 15.0212 3.03683 14.6326 2.97409 14.2126C2.91152 13.7925 2.88008 13.3759 2.88008 12.963C2.88008 12.5501 2.91152 12.1334 2.97409 11.7133C3.03683 11.2933 3.12415 10.9048 3.23625 10.5487H7.38551Z" fill="white" fill-opacity="0.2"/>
<path d="M13.802 10.5487C13.8798 10.9708 13.9352 11.3759 13.9674 11.7631C13.9998 12.1501 14.0153 12.5501 14.0153 12.963C14.0153 13.3759 13.9998 13.7759 13.9674 14.1629C13.9352 14.55 13.8798 14.9551 13.802 15.3772H8.41424C8.33642 14.9551 8.28104 14.55 8.24881 14.1629C8.21641 13.7759 8.2009 13.3759 8.2009 12.963C8.2009 12.5501 8.21641 12.1501 8.24881 11.7631C8.28104 11.3759 8.33642 10.9708 8.41424 10.5487H13.802Z" fill="white" fill-opacity="0.2"/>
<path d="M18.9799 10.5487C19.092 10.9048 19.1794 11.2933 19.2421 11.7133C19.3047 12.1334 19.3361 12.5501 19.3361 12.963C19.3361 13.3759 19.3047 13.7925 19.2421 14.2126C19.1794 14.6326 19.092 15.0212 18.9799 15.3772H14.8307C14.9085 14.9551 14.9639 14.5434 14.9961 14.143C15.0285 13.7428 15.044 13.3494 15.044 12.963C15.044 12.5765 15.0285 12.1831 14.9961 11.7829C14.9639 11.3826 14.9085 10.9708 14.8307 10.5487H18.9799Z" fill="white" fill-opacity="0.2"/>
<path d="M9.79913 4.8593C9.31915 5.49116 8.88686 6.21363 8.50373 7.02673C8.12068 7.83989 7.81892 8.67142 7.59885 9.52058H3.65479C4.2575 8.22806 5.08024 7.1814 6.12265 6.38202C7.16487 5.58285 8.39078 5.07569 9.79913 4.8593Z" fill="white" fill-opacity="0.2"/>
<path d="M11.1081 4.72457C11.6724 5.39466 12.1535 6.12019 12.5518 6.90104C12.95 7.68191 13.2853 8.55522 13.557 9.52058H8.65922C8.93092 8.55522 9.26623 7.68191 9.66444 6.90104C10.0626 6.12019 10.5438 5.39466 11.1081 4.72457Z" fill="white" fill-opacity="0.2"/>
<path d="M12.4171 4.8593C13.8123 5.07569 15.0347 5.58028 16.0836 6.37297C17.1325 7.16566 17.9587 8.21491 18.5614 9.52058H14.6173C14.3973 8.67142 14.0955 7.83989 13.7125 7.02673C13.3293 6.21363 12.897 5.49116 12.4171 4.8593Z" fill="white" fill-opacity="0.2"/>
<path d="M43.0204 16.9244C43.1599 16.9244 43.2679 16.9516 43.344 17.0058C43.4215 17.0598 43.4597 17.1326 43.4597 17.2237C43.4597 17.3199 43.4214 17.3933 43.344 17.4434C43.2679 17.4922 43.1599 17.5166 43.0204 17.5166H42.0802V16.9244H43.0204Z" fill="white" fill-opacity="0.2"/>
<path d="M30.305 13.633C30.4645 13.633 30.5877 13.6616 30.6747 13.7189C30.7633 13.7762 30.8075 13.853 30.8076 13.9495C30.8076 14.0516 30.7634 14.1296 30.6747 14.1828C30.5877 14.2345 30.4645 14.2605 30.305 14.2605H29.2284V13.633H30.305Z" fill="white" fill-opacity="0.2"/>
<path d="M42.2963 13.6583C42.5753 13.6583 42.784 13.7043 42.9227 13.7967C43.0631 13.8876 43.1334 14.0814 43.1334 14.3781C43.1334 14.6775 43.0631 14.8735 42.9227 14.9658C42.784 15.0567 42.5752 15.1024 42.2963 15.1024H41.3742V13.6583H42.2963Z" fill="white" fill-opacity="0.2"/>
<path fill-rule="evenodd" clip-rule="evenodd" d="M13.5018 0C13.7473 3.69417e-05 13.9827 0.0976554 14.1563 0.271267L23.5252 9.64265C23.8723 9.98987 24.3432 10.1851 24.8341 10.1852H46.2196C46.5463 10.1853 46.8484 10.358 47.0151 10.6391L53.8708 22.2105C54.044 22.503 54.043 22.8674 53.8681 23.159L53.0328 24.5506C52.8655 24.8294 52.5642 25 52.2391 25H1.85135C0.828877 25 0 24.1709 0 23.1481V1.85185C0 1.56041 0.137541 1.28616 0.370631 1.11129L1.60456 0.185366C1.76471 0.0652206 1.95942 6.51227e-05 2.15961 0H13.5018ZM11.1081 3.7037C9.83438 3.7037 8.63443 3.94709 7.50845 4.43432C6.38238 4.9218 5.40133 5.58353 4.566 6.41909C3.7307 7.25462 3.06911 8.23447 2.58176 9.35872C2.09459 10.4832 1.85135 11.6848 1.85135 12.963C1.85135 14.237 2.09467 15.4373 2.58176 16.5636C3.06912 17.69 3.73066 18.6713 4.566 19.5068C5.40133 20.3424 6.38238 21.0041 7.50845 21.4916C8.63443 21.9788 9.83438 22.2222 11.1081 22.2222C12.3859 22.2222 13.5872 21.9789 14.7114 21.4916C15.8353 21.0041 16.8149 20.3424 17.6502 19.5068C18.4855 18.6713 19.1471 17.69 19.6344 16.5636C20.1215 15.4373 20.3648 14.237 20.3648 12.963C20.3648 11.6848 20.1216 10.4832 19.6344 9.35872C19.1471 8.23447 18.4855 7.25462 17.6502 6.41909C16.8149 5.58356 15.8353 4.92179 14.7114 4.43432C13.5872 3.94701 12.3859 3.7037 11.1081 3.7037ZM24.0675 20.3704V21.7593H44.4324V20.3704H24.0675ZM25.8195 16.2697C25.2998 16.2697 24.8779 16.3373 24.5539 16.4732C24.2313 16.6077 24.0695 16.8316 24.0693 17.1441C24.0693 17.3948 24.1779 17.5738 24.3948 17.6794C24.6118 17.7837 24.9779 17.8607 25.4922 17.9109C25.8205 17.9373 26.0933 17.9617 26.3103 17.9841C26.5272 18.0052 26.6357 18.068 26.6357 18.1722C26.6356 18.2696 26.5581 18.3302 26.4034 18.3539C26.2484 18.3777 26.0597 18.3892 25.8384 18.3892C25.6146 18.3892 25.4247 18.3705 25.2698 18.3322C25.1152 18.2926 25.0376 18.187 25.0375 18.0158H24.0675C24.0676 18.3653 24.2261 18.614 24.543 18.7618C24.8601 18.9082 25.2951 18.9815 25.8475 18.9815C26.3744 18.9815 26.7952 18.9139 27.1094 18.778C27.4236 18.6408 27.5804 18.4081 27.5804 18.0809C27.5804 17.8421 27.4756 17.6735 27.2658 17.5745C27.0573 17.4755 26.6786 17.3999 26.1304 17.3485C25.8192 17.3221 25.5516 17.2986 25.3277 17.2788C25.1053 17.2577 24.9935 17.1928 24.9932 17.0835C24.9932 16.9846 25.0707 16.9228 25.2255 16.8991C25.3819 16.874 25.5758 16.8611 25.8068 16.8611C26.0152 16.8611 26.2008 16.8812 26.3627 16.9208C26.5247 16.959 26.6058 17.0612 26.6059 17.2273H27.5786C27.5785 16.8884 27.4158 16.6439 27.0904 16.4949C26.7663 16.3444 26.3422 16.2697 25.8195 16.2697ZM27.7748 16.2932V18.9652H30.7154V18.2943H28.7474V17.9579H30.6304V17.2833H28.7474V16.9642H30.7154V16.2932H27.7748ZM30.9043 16.2932V16.9642H32.1003V18.9652H33.073V17.2318C33.073 17.1672 33.0519 17.1154 33.0097 17.0772C32.9674 17.0376 32.9115 17.0175 32.8425 17.0175L32.8063 17.0157V16.9642H34.2653V16.2932H30.9043ZM34.4335 16.2932V16.9642H35.6303V18.9652H36.6021V17.2318C36.6021 17.1671 36.5811 17.1155 36.5388 17.0772C36.4967 17.0378 36.4413 17.0176 36.3725 17.0175L36.3363 17.0157V16.9642H37.7945V16.2932H34.4335ZM37.9716 16.2932V18.9652H40.9123V18.2943H38.9443V17.9579H40.8273V17.2833H38.9443V16.9642H40.9123V16.2932H37.9716ZM41.1075 16.2932V18.9652H42.082V18.1089H42.7564L43.3395 18.9652H44.4179L43.8466 18.0926L43.4895 18.1442L43.4597 18.1008C43.7429 18.0757 43.9674 17.9967 44.1323 17.8648C44.3322 17.7025 44.4324 17.485 44.4324 17.2119C44.4324 16.9361 44.3366 16.714 44.1449 16.5464C43.9547 16.3776 43.6792 16.2933 43.3187 16.2932H41.1075ZM24.0675 12.963V13.6746H25.4371V15.7968H26.5499V13.9585C26.5499 13.8899 26.5259 13.8345 26.4776 13.7939C26.4292 13.752 26.3649 13.7316 26.2859 13.7316L26.2452 13.7288V13.6746H27.914V12.963H24.0675ZM28.1147 12.963V15.7968H29.2302V14.8881H30.0022L30.6702 15.7968H31.9041L31.2506 14.8718L30.842 14.926L30.8076 14.8799C31.1316 14.8533 31.3882 14.7701 31.5769 14.6304C31.8059 14.4582 31.9204 14.2265 31.9204 13.9368C31.9203 13.6444 31.8106 13.4092 31.5914 13.2315C31.3736 13.0525 31.0585 12.963 30.6458 12.963H28.1147ZM32.1392 12.963V15.7968H35.5038V15.0852H33.252V14.7289H35.4071V14.0128H33.252V13.6746H35.5038V12.963H32.1392ZM35.728 12.963V15.7968H36.8381V14.0507C36.8381 14.0312 36.8356 14.0093 36.8308 13.9856C36.8276 13.9619 36.8217 13.9401 36.8136 13.9205L36.6663 13.4856H36.7296L38.2004 15.7968H40.0291V12.963H38.919V14.5499C38.919 14.5736 38.9214 14.5997 38.9262 14.6276C38.9311 14.6554 38.9372 14.68 38.9452 14.7009L39.1079 15.1421H39.0447L37.658 12.963H35.728ZM40.2641 12.963V15.7968H42.5286C43.0641 15.7968 43.4837 15.6874 43.7869 15.4677C44.0917 15.2465 44.2443 14.8832 44.2444 14.3781C44.2444 13.873 44.0915 13.5114 43.7869 13.293C43.4837 13.0733 43.0641 12.963 42.5286 12.963H40.2641Z" fill="white" fill-opacity="0.2"/>
</svg>
