<svg width="85" height="25" viewBox="0 0 85 25" fill="none" xmlns="http://www.w3.org/2000/svg">
<path d="M0.892523 21.1608V13.6719C0.892523 13.2404 1.244 12.8906 1.67757 12.8906H9.20756C9.41298 12.8906 9.61022 12.9708 9.75696 13.1138L13.7061 16.9643C13.8529 17.1074 14.0501 17.1875 14.2555 17.1875H33.1468C33.355 17.1875 33.5547 17.1052 33.7019 16.9587L40.3075 10.3851C40.4547 10.2386 40.6544 10.1562 40.8626 10.1562H55.0607C55.9279 10.1562 56.6308 10.8558 56.6308 11.7188V12.5C56.6308 13.3629 55.9279 14.0625 55.0607 14.0625H43.2177C43.0095 14.0625 42.8098 14.1448 42.6626 14.2913L41.5524 15.3962C41.4051 15.5427 41.3224 15.7414 41.3224 15.9486V16.4062C41.3224 16.8377 41.6739 17.1875 42.1075 17.1875H61.396C61.6115 17.1875 61.8176 17.0993 61.9659 16.9436L68.5588 10.018C68.7117 9.85735 68.926 9.76878 69.1483 9.77431L82.9692 10.1182C83.8207 10.1394 84.5 10.8324 84.5 11.6802V12.5C84.5 13.3629 83.797 14.0625 82.9299 14.0625H71.139C70.9005 14.0625 70.675 14.1704 70.526 14.3557L69.3636 15.8016C69.2523 15.9402 69.1916 16.1123 69.1916 16.2897V21.0938C69.1916 21.3397 69.0753 21.5712 68.8776 21.7187L67.8308 22.5C67.695 22.6014 67.5297 22.6562 67.3598 22.6562H53.8158C53.6076 22.6562 53.4079 22.7386 53.2607 22.8851L51.3655 24.7712C51.2182 24.9177 51.0185 25 50.8103 25H41.6476C41.4394 25 41.2397 24.9177 41.0925 24.7712L39.1972 22.8851C39.05 22.7386 38.8503 22.6562 38.6421 22.6562H25.5541C25.3459 22.6562 25.1463 22.7386 24.999 22.8851L23.1038 24.7712C22.9565 24.9177 22.7569 25 22.5487 25H13.7784C13.5702 25 13.3706 24.9177 13.2233 24.7712L11.7206 23.2757C11.5734 23.1292 11.3737 23.0469 11.1655 23.0469H2.78779C2.57959 23.0469 2.37991 22.9646 2.23268 22.8181L1.12246 21.7132C0.975233 21.5667 0.892523 21.368 0.892523 21.1608Z" fill="white" fill-opacity="0.4"/>
<path d="M37.5659 10.8134L32.8033 15.8915C32.7291 15.9707 32.6251 16.0156 32.5163 16.0156H28.9243C28.5746 16.0156 28.3994 15.5949 28.6467 15.3488L33.7495 10.2707C33.8231 10.1974 33.923 10.1562 34.0271 10.1562H37.279C37.6222 10.1562 37.8001 10.5637 37.5659 10.8134Z" fill="white" fill-opacity="0.4"/>
<path d="M30.5005 10.8134L25.7379 15.8915C25.6636 15.9707 25.5597 16.0156 25.4509 16.0156H21.8145C21.4713 16.0156 21.2934 15.6082 21.5275 15.3585L26.2902 10.2803C26.3644 10.2012 26.4683 10.1562 26.5771 10.1562H30.2135C30.5568 10.1562 30.7347 10.5637 30.5005 10.8134Z" fill="white" fill-opacity="0.4"/>
<path d="M23.8276 10.8134L19.065 15.8915C18.9907 15.9707 18.8868 16.0156 18.778 16.0156H15.1416C14.7984 16.0156 14.6205 15.6082 14.8546 15.3585L19.6173 10.2803C19.6915 10.2012 19.7954 10.1562 19.9042 10.1562H23.5406C23.8839 10.1562 24.0618 10.5637 23.8276 10.8134Z" fill="white" fill-opacity="0.4"/>
<path d="M5.86972 7.03125H3.46224V1.76562H0.5V0H8.8215V1.76562H5.21028V1.90104L5.29925 1.90625C5.47022 1.90625 5.60804 1.95833 5.71271 2.0625C5.81738 2.16319 5.86972 2.29861 5.86972 2.46875V7.03125Z" fill="white" fill-opacity="0.4"/>
<path d="M9.25548 0H11.663V2.70313H15.337V0H17.7392V7.03125H15.337V4.49479H11.663V7.03125H9.25548V0Z" fill="white" fill-opacity="0.4"/>
<path d="M18.256 0H25.536V1.76562H20.6635V2.60417H25.3267V4.38021H20.6635V5.26563H25.536V7.03125H18.256V0Z" fill="white" fill-opacity="0.4"/>
<path d="M31.9019 0H38.975V1.75522H34.4047V2.58365H38.7845V4.33887H34.4047V6.98983H31.9019V0Z" fill="white" fill-opacity="0.4"/>
<path d="M44.0277 7.03125C42.5151 7.03125 41.3762 6.78617 40.6109 6.29602C39.8491 5.80587 39.4683 5.00334 39.4683 3.88842V0H41.9656V3.59329C41.9656 4.22841 42.1252 4.67887 42.4444 4.94466C42.7672 5.20699 43.295 5.33816 44.0277 5.33816C44.7604 5.33816 45.2863 5.20872 45.6055 4.94983C45.9284 4.6875 46.0898 4.23532 46.0898 3.59329V0H48.5871V3.88842C48.5871 5.00334 48.2044 5.80587 47.4391 6.29602C46.6774 6.78617 45.5403 7.03125 44.0277 7.03125Z" fill="white" fill-opacity="0.4"/>
<path d="M54.6825 6.98983H52.1797V1.75522H49.1002V0H57.7511V1.75522H53.9969V1.88984L54.0894 1.89502C54.2671 1.89502 54.4104 1.9468 54.5192 2.05035C54.6281 2.15045 54.6825 2.28507 54.6825 2.45421V6.98983Z" fill="white" fill-opacity="0.4"/>
<path d="M62.7943 7.03125C61.2818 7.03125 60.1428 6.78617 59.3775 6.29602C58.6158 5.80587 58.2349 5.00334 58.2349 3.88842V0H60.7322V3.59329C60.7322 4.22841 60.8918 4.67887 61.211 4.94466C61.5339 5.20699 62.0616 5.33816 62.7943 5.33816C63.527 5.33816 64.053 5.20872 64.3722 4.94983C64.695 4.6875 64.8564 4.23532 64.8564 3.59329V0H67.3537V3.88842C67.3537 5.00334 66.9711 5.80587 66.2057 6.29602C65.444 6.78617 64.3069 7.03125 62.7943 7.03125Z" fill="white" fill-opacity="0.4"/>
<path d="M67.8831 0H73.5742C74.5028 0 75.2119 0.220913 75.7016 0.662739C76.1949 1.10111 76.4415 1.68101 76.4415 2.40243C76.4415 3.11695 76.184 3.68649 75.6689 4.11105C75.2446 4.45623 74.6678 4.66161 73.9388 4.7272L74.0149 4.8411L74.9344 4.70648L76.4035 6.98983H73.6286L72.127 4.74791H70.3913V6.98983H67.8831V0ZM72.8071 3.19979C73.1662 3.19979 73.4436 3.13593 73.6395 3.00821C73.839 2.87705 73.9388 2.68547 73.9388 2.4335C73.9388 2.19532 73.839 2.00548 73.6395 1.86395C73.4436 1.72243 73.1662 1.65167 72.8071 1.65167H70.3859V3.19979H72.8071Z" fill="white" fill-opacity="0.4"/>
<path d="M76.9318 0H84.5V1.75522H79.4346V2.58883H84.2824V4.3544H79.4346V5.23461H84.5V6.98983H76.9318V0Z" fill="white" fill-opacity="0.4"/>
</svg>
