<svg width="120" height="25" viewBox="0 0 120 25" fill="none" xmlns="http://www.w3.org/2000/svg">
<path d="M33.5676 18.8873C34.235 18.8873 34.3064 18.9461 34.3064 19.4448C34.3064 19.9626 34.2349 20.0205 33.5676 20.0205H32.2745V18.8873H33.5676Z" fill="white" fill-opacity="0.6"/>
<path d="M54.3149 18.8873L54.9752 20.753H53.5975L54.2721 18.8873H54.3149Z" fill="white" fill-opacity="0.6"/>
<path d="M83.5914 18.9524C84.6059 18.9524 84.7204 19.0882 84.7204 20.3125C84.7204 21.5368 84.6059 21.6726 83.5914 21.6726H82.3696L82.3624 20.3125L82.3696 18.9524H83.5914Z" fill="white" fill-opacity="0.6"/>
<path fill-rule="evenodd" clip-rule="evenodd" d="M23.2632 0C23.4007 0 23.5334 0.0540496 23.6311 0.150553L39.1416 15.4744C39.2392 15.5709 39.3712 15.6249 39.5085 15.625H87.9752C88.1028 15.625 88.2262 15.5783 88.3217 15.4938L92.7218 11.5896C92.8172 11.5051 92.9407 11.4583 93.0683 11.4583H115.072C115.22 11.4583 115.361 11.5205 115.46 11.6302L119.867 16.5181C119.952 16.6136 120 16.7377 120 16.866V22.701C120 22.8391 119.945 22.9716 119.847 23.0693L118.066 24.8474C117.968 24.9451 117.835 25 117.697 25H1.82609C1.66187 25 1.50682 24.9226 1.40829 24.7915L0.10394 23.056C0.0362069 22.9659 0 22.8554 0 22.7427V5.40771C0.000118599 5.27933 0.0475118 5.1553 0.133492 5.05981L4.53974 0.171916C4.63868 0.0622021 4.78011 7.30697e-06 4.92799 0H23.2632ZM12.5217 21.875C12.3826 21.875 12.2613 21.9275 12.1569 22.0317C12.0526 22.1358 12 22.2569 12 22.3958C12 22.5347 12.0526 22.6558 12.1569 22.76C12.2613 22.8642 12.3826 22.9167 12.5217 22.9167C12.6609 22.9167 12.7822 22.8642 12.8865 22.76C12.9909 22.6558 13.0435 22.5347 13.0435 22.3958C13.0435 22.2569 12.9909 22.1358 12.8865 22.0317C12.7822 21.9275 12.6609 21.875 12.5217 21.875ZM16.6957 21.875C16.5565 21.875 16.4352 21.9275 16.3308 22.0317C16.2265 22.1358 16.1739 22.2569 16.1739 22.3958C16.1739 22.5347 16.2265 22.6558 16.3308 22.76C16.4352 22.8642 16.5565 22.9167 16.6957 22.9167C16.8348 22.9167 16.9561 22.8642 17.0605 22.76C17.1648 22.6558 17.2174 22.5347 17.2174 22.3958C17.2174 22.2569 17.1648 22.1358 17.0605 22.0317C16.9561 21.9275 16.8348 21.875 16.6957 21.875ZM60.3974 17.7083C58.1598 17.7083 57.5982 18.2266 57.5982 20.3125C57.5982 22.3984 58.1598 22.9167 60.3974 22.9167C61.1998 22.9166 61.6545 22.6447 61.8322 22.0296V22.8394H63.1814V20.1314H60.5248V21.168H61.662C61.6334 21.6212 61.2495 21.815 60.3974 21.815C59.2821 21.815 59.1613 21.6664 59.1613 20.3125C59.1613 18.9586 59.2821 18.81 60.3974 18.81C61.5125 18.81 61.6334 18.8876 61.6192 19.5872H63.1814C63.1956 18.0843 62.642 17.7084 60.3974 17.7083ZM94.5703 17.7083C92.5341 17.7083 92.0045 18.0128 92.0044 19.224C92.0044 20.1633 92.4622 20.4745 94.284 20.8048C95.334 20.9927 95.6126 21.1157 95.6128 21.4071C95.6128 21.7762 95.4988 21.815 94.5275 21.815C93.5701 21.815 93.4555 21.7505 93.4555 21.1416H91.8831C91.8831 22.5602 92.434 22.9167 94.5703 22.9167C96.6491 22.9166 97.1851 22.6313 97.1851 21.4783C97.185 20.4615 96.6274 20.112 94.5418 19.7428C93.7845 19.6003 93.5768 19.5028 93.5768 19.2373C93.5768 18.8551 93.6844 18.81 94.5703 18.81C95.4702 18.81 95.5771 18.881 95.5771 19.5546H97.1495C97.1495 18.0778 96.6205 17.7084 94.5703 17.7083ZM102.639 17.7083C100.388 17.7083 99.8234 18.2266 99.8234 20.3125C99.8234 22.3984 100.388 22.9167 102.639 22.9167C103.446 22.9166 103.903 22.6447 104.082 22.0296V22.8394H105.439V20.1314H102.767V21.168H103.911C103.882 21.6212 103.496 21.815 102.639 21.815C101.517 21.815 101.396 21.6664 101.396 20.3125C101.396 18.9586 101.517 18.81 102.639 18.81C103.76 18.81 103.882 18.8876 103.868 19.5872H105.439C105.453 18.0843 104.897 17.7084 102.639 17.7083ZM114.776 17.7083C112.74 17.7083 112.212 18.0128 112.212 19.224C112.212 20.1633 112.669 20.4745 114.49 20.8048C115.54 20.9927 115.819 21.1157 115.819 21.4071C115.819 21.7763 115.705 21.815 114.734 21.815C113.776 21.815 113.662 21.7505 113.662 21.1416H112.09C112.09 22.5602 112.64 22.9167 114.776 22.9167C116.855 22.9166 117.391 22.6313 117.391 21.4783C117.391 20.4615 116.834 20.112 114.748 19.7428C113.991 19.6003 113.783 19.5028 113.783 19.2373C113.783 18.8551 113.891 18.81 114.776 18.81C115.677 18.81 115.783 18.881 115.783 19.5546H117.356C117.356 18.0777 116.827 17.7084 114.776 17.7083ZM30.7826 17.7856V22.8394H32.2745V21.0571H33.3821C34.1563 21.0571 34.235 21.1158 34.2351 21.6726V22.8394H35.7982V21.5953C35.7982 20.9475 35.4212 20.6493 34.6824 20.578C35.4566 20.4808 35.7981 20.0859 35.7982 19.2505C35.7982 18.078 35.4283 17.7856 33.9507 17.7856H30.7826ZM36.4361 17.7856V22.8394H40.9973V21.6726H37.928V20.8303H40.6987V19.7296H37.928V18.9524H40.983V17.7856H36.4361ZM41.6393 17.7856V22.8394H43.1311V17.7856H41.6393ZM43.8383 17.7856V22.8394H45.3302V19.0816H45.373L46.2035 22.8394H48.5126L49.3512 19.0816H49.393V22.8394H50.8848V17.7856H48.2639L47.4253 21.5434H47.3692L46.5377 17.7856H43.8383ZM53.1002 17.7856L51.2741 22.8394H52.8801L53.2133 21.8547H55.3451L55.6437 22.8394H57.3485L55.5723 17.7856H53.1002ZM63.8244 17.7856V22.8394H65.3162V17.7856H63.8244ZM66.0234 17.7856V22.8394H67.5153V20.0857H67.5581L70.016 22.8394H71.4222V17.7856H69.9304V20.5455H69.8876L67.4368 17.7856H66.0234ZM72.1355 17.7856V22.8394H76.6956V21.6726H73.6274V20.8303H76.3971V19.7296H73.6274V18.9524H76.6814V17.7856H72.1355ZM80.8696 17.7856V22.8394H83.7493C85.7853 22.8393 86.2928 22.3335 86.2928 20.3125C86.2928 18.2915 85.7853 17.7857 83.7493 17.7856H80.8696ZM86.8634 17.7856V22.8394H91.4501V21.6726H88.3634V20.8303H91.1505V19.7296H88.3634V18.9524H91.4358V17.7856H86.8634ZM97.7548 17.7856V22.8394H99.2548V17.7856H97.7548ZM106.085 17.7856V22.8394H107.586V20.0857H107.629L110.101 22.8394H111.516V17.7856H110.016V20.5455H109.973L107.508 17.7856H106.085ZM8.34783 18.2292C8.05217 18.2292 7.80394 18.3286 7.60394 18.5282C7.40394 18.7279 7.30435 18.9757 7.30435 19.2708C7.30435 19.566 7.40394 19.8138 7.60394 20.0134C7.80394 20.2131 8.05217 20.3125 8.34783 20.3125C8.64348 20.3125 8.89171 20.2131 9.09171 20.0134C9.29171 19.8138 9.3913 19.566 9.3913 19.2708C9.3913 18.9757 9.29171 18.7279 9.09171 18.5282C8.89171 18.3286 8.64348 18.2292 8.34783 18.2292ZM12.5217 18.2292C12.2261 18.2292 11.9779 18.3286 11.7779 18.5282C11.5779 18.7279 11.4783 18.9757 11.4783 19.2708C11.4783 19.566 11.5779 19.8138 11.7779 20.0134C11.9779 20.2131 12.2261 20.3125 12.5217 20.3125C12.8174 20.3125 13.0656 20.2131 13.2656 20.0134C13.4656 19.8138 13.5652 19.566 13.5652 19.2708C13.5652 18.9757 13.4656 18.7279 13.2656 18.5282C13.0656 18.3286 12.8174 18.2292 12.5217 18.2292ZM16.6957 18.2292C16.4 18.2292 16.1518 18.3286 15.9518 18.5282C15.7518 18.7279 15.6522 18.9757 15.6522 19.2708C15.6522 19.566 15.7518 19.8138 15.9518 20.0134C16.1518 20.2131 16.4 20.3125 16.6957 20.3125C16.9913 20.3125 17.2395 20.2131 17.4395 20.0134C17.6395 19.8138 17.7391 19.566 17.7391 19.2708C17.7391 18.9757 17.6395 18.7279 17.4395 18.5282C17.2395 18.3286 16.9913 18.2292 16.6957 18.2292ZM20.8696 18.2292C20.5739 18.2292 20.3257 18.3286 20.1257 18.5282C19.9257 18.7279 19.8261 18.9757 19.8261 19.2708C19.8261 19.566 19.9257 19.8138 20.1257 20.0134C20.3257 20.2131 20.5739 20.3125 20.8696 20.3125C21.1652 20.3125 21.4135 20.2131 21.6135 20.0134C21.8135 19.8138 21.913 19.566 21.913 19.2708C21.913 18.9757 21.8135 18.7279 21.6135 18.5282C21.4135 18.3286 21.1652 18.2292 20.8696 18.2292ZM12.5217 13.5417C12.087 13.5417 11.7174 13.6936 11.413 13.9974C11.1087 14.3012 10.9565 14.6701 10.9565 15.1042C10.9565 15.5382 11.1087 15.9071 11.413 16.2109C11.7174 16.5148 12.087 16.6667 12.5217 16.6667C12.9565 16.6667 13.3261 16.5148 13.6304 16.2109C13.9348 15.9071 14.087 15.5382 14.087 15.1042C14.087 14.6701 13.9348 14.3012 13.6304 13.9974C13.3261 13.6936 12.9565 13.5417 12.5217 13.5417ZM16.6957 13.5417C16.2609 13.5417 15.8913 13.6936 15.587 13.9974C15.2826 14.3012 15.1304 14.6701 15.1304 15.1042C15.1304 15.5382 15.2826 15.9071 15.587 16.2109C15.8913 16.5148 16.2609 16.6667 16.6957 16.6667C17.1304 16.6667 17.5 16.5148 17.8043 16.2109C18.1087 15.9071 18.2609 15.5382 18.2609 15.1042C18.2609 14.6701 18.1087 14.3012 17.8043 13.9974C17.5 13.6936 17.1304 13.5417 16.6957 13.5417ZM8.34783 14.0625C8.05217 14.0625 7.80394 14.1619 7.60394 14.3616C7.40394 14.5612 7.30435 14.809 7.30435 15.1042C7.30435 15.3993 7.40394 15.6471 7.60394 15.8468C7.80394 16.0464 8.05217 16.1458 8.34783 16.1458C8.64348 16.1458 8.89171 16.0464 9.09171 15.8468C9.29171 15.6471 9.3913 15.3993 9.3913 15.1042C9.3913 14.809 9.29171 14.5612 9.09171 14.3616C8.89171 14.1619 8.64348 14.0625 8.34783 14.0625ZM20.8696 14.0625C20.5739 14.0625 20.3257 14.1619 20.1257 14.3616C19.9257 14.5612 19.8261 14.809 19.8261 15.1042C19.8261 15.3993 19.9257 15.6471 20.1257 15.8468C20.3257 16.0464 20.5739 16.1458 20.8696 16.1458C21.1652 16.1458 21.4135 16.0464 21.6135 15.8468C21.8135 15.6471 21.913 15.3993 21.913 15.1042C21.913 14.809 21.8135 14.5612 21.6135 14.3616C21.4135 14.1619 21.1652 14.0625 20.8696 14.0625ZM5.21739 14.5833C5.07826 14.5833 4.95693 14.6358 4.85258 14.74C4.74823 14.8442 4.69565 14.9653 4.69565 15.1042C4.69565 15.2431 4.74823 15.3642 4.85258 15.4683C4.95693 15.5725 5.07826 15.625 5.21739 15.625C5.35652 15.625 5.47785 15.5725 5.5822 15.4683C5.68655 15.3642 5.73913 15.2431 5.73913 15.1042C5.73913 14.9653 5.68655 14.8442 5.5822 14.74C5.47785 14.6358 5.35652 14.5833 5.21739 14.5833ZM24 14.5833C23.8609 14.5833 23.7395 14.6358 23.6352 14.74C23.5308 14.8442 23.4783 14.9653 23.4783 15.1042C23.4783 15.2431 23.5308 15.3642 23.6352 15.4683C23.7395 15.5725 23.8609 15.625 24 15.625C24.1391 15.625 24.2605 15.5725 24.3648 15.4683C24.4692 15.3642 24.5217 15.2431 24.5217 15.1042C24.5217 14.9653 24.4692 14.8442 24.3648 14.74C24.2605 14.6358 24.1391 14.5833 24 14.5833ZM12.5217 9.375C12.087 9.375 11.7174 9.52691 11.413 9.83073C11.1087 10.1345 10.9565 10.5035 10.9565 10.9375C10.9565 11.3715 11.1087 11.7405 11.413 12.0443C11.7174 12.3481 12.087 12.5 12.5217 12.5C12.9565 12.5 13.3261 12.3481 13.6304 12.0443C13.9348 11.7405 14.087 11.3715 14.087 10.9375C14.087 10.5035 13.9348 10.1345 13.6304 9.83073C13.3261 9.52691 12.9565 9.375 12.5217 9.375ZM16.6957 9.375C16.2609 9.375 15.8913 9.52691 15.587 9.83073C15.2826 10.1345 15.1304 10.5035 15.1304 10.9375C15.1304 11.3715 15.2826 11.7405 15.587 12.0443C15.8913 12.3481 16.2609 12.5 16.6957 12.5C17.1304 12.5 17.5 12.3481 17.8043 12.0443C18.1087 11.7405 18.2609 11.3715 18.2609 10.9375C18.2609 10.5035 18.1087 10.1345 17.8043 9.83073C17.5 9.52691 17.1304 9.375 16.6957 9.375ZM8.34783 9.89583C8.05217 9.89583 7.80394 9.99525 7.60394 10.1949C7.40394 10.3946 7.30435 10.6424 7.30435 10.9375C7.30435 11.2326 7.40394 11.4804 7.60394 11.6801C7.80394 11.8797 8.05217 11.9792 8.34783 11.9792C8.64348 11.9792 8.89171 11.8797 9.09171 11.6801C9.29171 11.4804 9.3913 11.2326 9.3913 10.9375C9.3913 10.6424 9.29171 10.3946 9.09171 10.1949C8.89171 9.99525 8.64348 9.89583 8.34783 9.89583ZM20.8696 9.89583C20.5739 9.89583 20.3257 9.99525 20.1257 10.1949C19.9257 10.3946 19.8261 10.6424 19.8261 10.9375C19.8261 11.2326 19.9257 11.4804 20.1257 11.6801C20.3257 11.8797 20.5739 11.9792 20.8696 11.9792C21.1652 11.9792 21.4135 11.8797 21.6135 11.6801C21.8135 11.4804 21.913 11.2326 21.913 10.9375C21.913 10.6424 21.8135 10.3946 21.6135 10.1949C21.4135 9.99525 21.1652 9.89583 20.8696 9.89583ZM5.21739 10.4167C5.07826 10.4167 4.95693 10.4692 4.85258 10.5733C4.74823 10.6775 4.69565 10.7986 4.69565 10.9375C4.69565 11.0764 4.74823 11.1975 4.85258 11.3017C4.95693 11.4058 5.07826 11.4583 5.21739 11.4583C5.35652 11.4583 5.47785 11.4058 5.5822 11.3017C5.68655 11.1975 5.73913 11.0764 5.73913 10.9375C5.73913 10.7986 5.68655 10.6775 5.5822 10.5733C5.47785 10.4692 5.35652 10.4167 5.21739 10.4167ZM24 10.4167C23.8609 10.4167 23.7395 10.4692 23.6352 10.5733C23.5308 10.6775 23.4783 10.7986 23.4783 10.9375C23.4783 11.0764 23.5308 11.1975 23.6352 11.3017C23.7395 11.4058 23.8609 11.4583 24 11.4583C24.1391 11.4583 24.2605 11.4058 24.3648 11.3017C24.4692 11.1975 24.5217 11.0764 24.5217 10.9375C24.5217 10.7986 24.4692 10.6775 24.3648 10.5733C24.2605 10.4692 24.1391 10.4167 24 10.4167ZM8.34783 5.72917C8.05217 5.72917 7.80394 5.82859 7.60394 6.02824C7.40394 6.22789 7.30435 6.47569 7.30435 6.77083C7.30435 7.06597 7.40394 7.31377 7.60394 7.51343C7.80394 7.71308 8.05217 7.8125 8.34783 7.8125C8.64348 7.8125 8.89171 7.71308 9.09171 7.51343C9.29171 7.31377 9.3913 7.06597 9.3913 6.77083C9.3913 6.47569 9.29171 6.22789 9.09171 6.02824C8.89171 5.82859 8.64348 5.72917 8.34783 5.72917ZM12.5217 5.72917C12.2261 5.72917 11.9779 5.82859 11.7779 6.02824C11.5779 6.22789 11.4783 6.47569 11.4783 6.77083C11.4783 7.06597 11.5779 7.31377 11.7779 7.51343C11.9779 7.71308 12.2261 7.8125 12.5217 7.8125C12.8174 7.8125 13.0656 7.71308 13.2656 7.51343C13.4656 7.31377 13.5652 7.06597 13.5652 6.77083C13.5652 6.47569 13.4656 6.22789 13.2656 6.02824C13.0656 5.82859 12.8174 5.72917 12.5217 5.72917ZM16.6957 5.72917C16.4 5.72917 16.1518 5.82859 15.9518 6.02824C15.7518 6.22789 15.6522 6.47569 15.6522 6.77083C15.6522 7.06597 15.7518 7.31377 15.9518 7.51343C16.1518 7.71308 16.4 7.8125 16.6957 7.8125C16.9913 7.8125 17.2395 7.71308 17.4395 7.51343C17.6395 7.31377 17.7391 7.06597 17.7391 6.77083C17.7391 6.47569 17.6395 6.22789 17.4395 6.02824C17.2395 5.82859 16.9913 5.72917 16.6957 5.72917ZM20.8696 5.72917C20.5739 5.72917 20.3257 5.82859 20.1257 6.02824C19.9257 6.22789 19.8261 6.47569 19.8261 6.77083C19.8261 7.06597 19.9257 7.31377 20.1257 7.51343C20.3257 7.71308 20.5739 7.8125 20.8696 7.8125C21.1652 7.8125 21.4135 7.71308 21.6135 7.51343C21.8135 7.31377 21.913 7.06597 21.913 6.77083C21.913 6.47569 21.8135 6.22789 21.6135 6.02824C21.4135 5.82859 21.1652 5.72917 20.8696 5.72917ZM12.5217 3.125C12.3826 3.125 12.2613 3.17749 12.1569 3.28166C12.0526 3.38582 12 3.50694 12 3.64583C12 3.78472 12.0526 3.90584 12.1569 4.01001C12.2613 4.11418 12.3826 4.16667 12.5217 4.16667C12.6609 4.16667 12.7822 4.11418 12.8865 4.01001C12.9909 3.90584 13.0435 3.78472 13.0435 3.64583C13.0435 3.50694 12.9909 3.38582 12.8865 3.28166C12.7822 3.17749 12.6609 3.125 12.5217 3.125ZM16.6957 3.125C16.5565 3.125 16.4352 3.17749 16.3308 3.28166C16.2265 3.38582 16.1739 3.50694 16.1739 3.64583C16.1739 3.78472 16.2265 3.90584 16.3308 4.01001C16.4352 4.11418 16.5565 4.16667 16.6957 4.16667C16.8348 4.16667 16.9561 4.11418 17.0605 4.01001C17.1648 3.90584 17.2174 3.78472 17.2174 3.64583C17.2174 3.50694 17.1648 3.38582 17.0605 3.28166C16.9561 3.17749 16.8348 3.125 16.6957 3.125Z" fill="white" fill-opacity="0.6"/>
<path d="M34.7334 0C34.8757 0 35.012 0.0581041 35.1104 0.160726L46.2901 11.8286C46.3827 11.9254 46.4347 12.0539 46.4348 12.1877V13.5417C46.4348 13.8293 46.2012 14.0625 45.913 14.0625H39.8753C39.733 14.0625 39.5967 14.0044 39.4983 13.9018L28.3186 2.23389C28.226 2.1371 28.174 2.00865 28.1739 1.8748V0.520833C28.1739 0.233185 28.4075 0 28.6957 0H34.7334Z" fill="white" fill-opacity="0.6"/>
<path d="M45.1681 0C45.3105 0 45.4468 0.0581041 45.5452 0.160726L56.7249 11.8286C56.8175 11.9254 56.8694 12.0539 56.8696 12.1877V13.5417C56.8696 13.8293 56.636 14.0625 56.3478 14.0625H50.8247C50.6864 14.0625 50.5537 14.0076 50.4558 13.9099L38.7615 2.23592C38.6637 2.13826 38.6087 2.00578 38.6087 1.86768V0.520833C38.6087 0.233185 38.8423 0 39.1304 0H45.1681Z" fill="white" fill-opacity="0.6"/>
<path d="M55.6029 0C55.7452 0 55.8815 0.0581041 55.98 0.160726L67.1596 11.8286C67.2523 11.9254 67.3042 12.0539 67.3043 12.1877V13.5417C67.3043 13.8293 67.0708 14.0625 66.7826 14.0625H60.752C60.6054 14.0625 60.4657 14.0007 60.3668 13.8926L49.7018 2.23287C49.614 2.1369 49.5652 2.01085 49.5652 1.8809V0.520833C49.5652 0.233185 49.7988 0 50.087 0H55.6029Z" fill="white" fill-opacity="0.6"/>
<path d="M66.5523 0C66.6989 0 66.8386 0.0618116 66.9375 0.169881L77.6026 11.8296C77.6904 11.9256 77.7391 12.0516 77.7391 12.1816V13.5417C77.7391 13.8293 77.5055 14.0625 77.2174 14.0625H71.7014C71.5591 14.0625 71.4228 14.0044 71.3244 13.9018L60.1447 2.23389C60.0521 2.1371 60.0001 2.00865 60 1.8748V0.520833C60 0.233185 60.2336 0 60.5217 0H66.5523Z" fill="white" fill-opacity="0.6"/>
<path d="M76.9871 0C77.1337 0 77.2734 0.0618116 77.3723 0.169881L88.0374 11.8296C88.1251 11.9256 88.1739 12.0516 88.1739 12.1816V13.5417C88.1739 13.8293 87.9403 14.0625 87.6522 14.0625H82.1362C81.9939 14.0625 81.8576 14.0044 81.7592 13.9018L70.5795 2.23389C70.4869 2.1371 70.4349 2.00865 70.4348 1.8748V0.520833C70.4348 0.233185 70.6684 0 70.9565 0H76.9871Z" fill="white" fill-opacity="0.6"/>
</svg>
