<svg width="61" height="25" viewBox="0 0 61 25" fill="none" xmlns="http://www.w3.org/2000/svg">
<path d="M0.566216 0.725749C0.377992 0.403169 0.613455 7.87596e-05 0.990112 7.87596e-05H3.93833C4.11323 7.87596e-05 4.27483 0.0923624 4.36223 0.242148L9.91484 9.75825C10.1031 10.0808 9.8676 10.4839 9.49094 10.4839H6.54272C6.36783 10.4839 6.20623 10.3916 6.11883 10.2418L0.566216 0.725749Z" fill="white" fill-opacity="0.8"/>
<path d="M7.90696 0.725749C7.71873 0.403169 7.9542 7.87596e-05 8.33085 7.87596e-05H11.2791C11.454 7.87596e-05 11.6156 0.0923624 11.703 0.242148L17.2556 9.75825C17.4438 10.0808 17.2083 10.4839 16.8317 10.4839H13.8835C13.7086 10.4839 13.547 10.3916 13.4596 10.2418L7.90696 0.725749Z" fill="white" fill-opacity="0.8"/>
<path d="M15.2477 0.725749C15.0595 0.403169 15.2949 7.87596e-05 15.6716 7.87596e-05H18.6198C18.7947 7.87596e-05 18.9563 0.0923624 19.0437 0.242148L24.5963 9.75825C24.7845 10.0808 24.5491 10.4839 24.1724 10.4839H21.2242C21.0493 10.4839 20.8877 10.3916 20.8003 10.2418L15.2477 0.725749Z" fill="white" fill-opacity="0.8"/>
<path d="M22.1806 0.725749C21.9924 0.403169 22.2279 7.87596e-05 22.6045 7.87596e-05H25.5527C25.7276 7.87596e-05 25.8892 0.0923624 25.9766 0.242148L31.5292 9.75825C31.7175 10.0808 31.482 10.4839 31.1053 10.4839H28.1571C27.9822 10.4839 27.8206 10.3916 27.7332 10.2418L22.1806 0.725749Z" fill="white" fill-opacity="0.8"/>
<path d="M29.1135 0.725749C28.9253 0.403169 29.1608 7.87596e-05 29.5374 7.87596e-05H32.4857C32.6606 7.87596e-05 32.8222 0.0923624 32.9096 0.242148L38.4622 9.75825C38.6504 10.0808 38.4149 10.4839 38.0383 10.4839H35.0901C34.9152 10.4839 34.7536 10.3916 34.6662 10.2418L29.1135 0.725749Z" fill="white" fill-opacity="0.8"/>
<path d="M36.6425 0.725749C36.4543 0.403169 36.6897 7.87596e-05 37.0664 7.87596e-05H40.0146C40.1895 7.87596e-05 40.3511 0.0923624 40.4385 0.242148L45.9911 9.75825C46.1794 10.0808 45.9439 10.4839 45.5672 10.4839H42.619C42.4441 10.4839 42.2825 10.3916 42.1951 10.2418L36.6425 0.725749Z" fill="white" fill-opacity="0.8"/>
<path d="M43.795 0.725749C43.6068 0.403169 43.8423 7.87596e-05 44.2189 7.87596e-05H47.1671C47.342 7.87596e-05 47.5036 0.0923624 47.591 0.242148L53.1437 9.75825C53.3319 10.0808 53.0964 10.4839 52.7198 10.4839H49.7715C49.5966 10.4839 49.435 10.3916 49.3476 10.2418L43.795 0.725749Z" fill="white" fill-opacity="0.8"/>
<path d="M50.728 0.72567C50.5397 0.40309 50.7752 0 51.1518 0H54.1001C54.275 0 54.4366 0.0922836 54.524 0.242069L60.0766 9.75817C60.2648 10.0807 60.0293 10.4838 59.6527 10.4838H56.7045C56.5296 10.4838 56.368 10.3916 56.2806 10.2418L50.728 0.72567Z" fill="white" fill-opacity="0.8"/>
<path d="M6.73799 19.0902C7.98009 19.0902 8.11995 19.2375 8.11995 20.5645C8.11995 21.8916 7.98009 22.0388 6.73799 22.0388H5.24212L5.23336 20.5645L5.24212 19.0902H6.73799Z" fill="white" fill-opacity="0.8"/>
<path fill-rule="evenodd" clip-rule="evenodd" d="M60.0109 16.1291C60.281 16.1292 60.4998 16.3456 60.5 16.6126V24.5164C60.4998 24.7834 60.281 24.9998 60.0109 25H1.44749C1.17747 24.9998 0.9586 24.7834 0.958428 24.5164V16.6126C0.9586 16.3456 1.17747 16.1292 1.44749 16.1291H60.0109ZM20.1785 17.742C17.6856 17.742 17.0379 18.0719 17.0378 19.3848C17.0378 20.4028 17.5978 20.7404 19.828 21.0985C21.1139 21.3021 21.4553 21.4354 21.4553 21.7514C21.4553 22.1514 21.3152 22.1932 20.1259 22.1932C18.9538 22.1932 18.814 22.1231 18.814 21.4631H16.8897C16.8897 23.0008 17.5631 23.3871 20.1785 23.3871C22.7237 23.3871 23.3796 23.0782 23.3797 21.8285C23.3797 20.7262 22.6976 20.3465 20.1434 19.9463C19.2162 19.7918 18.9622 19.6868 18.9622 19.399C18.9622 18.9847 19.0939 18.9359 20.1785 18.9359C21.2805 18.9359 21.4115 19.0129 21.4115 19.7431H23.3359C23.3359 18.1423 22.6888 17.742 20.1785 17.742ZM30.057 17.742C27.3016 17.742 26.6104 18.3037 26.6104 20.5645C26.6104 22.8254 27.3016 23.3871 30.057 23.3871C31.0451 23.3871 31.6049 23.0923 31.8236 22.4255V23.3028H33.486V20.3676H30.2139V21.4915H31.6141C31.5791 21.9829 31.1064 22.1932 30.057 22.1932C28.6836 22.1932 28.5348 22.032 28.5348 20.5645C28.5348 19.0971 28.6836 18.9359 30.057 18.9359C31.4299 18.9359 31.579 19.0199 31.5616 19.7778H33.486C33.5034 18.1492 32.8207 17.742 30.057 17.742ZM43.8607 17.742C43.5906 17.7421 43.3718 17.9585 43.3716 18.2255V22.9035C43.3718 23.1705 43.5906 23.3869 43.8607 23.3871H58.3797C58.6497 23.3869 58.8686 23.1705 58.8687 22.9035V18.2255C58.8686 17.9585 58.6497 17.7421 58.3797 17.742H43.8607ZM3.40534 17.8262V23.3028H6.93075C9.42346 23.3028 10.0443 22.7551 10.0443 20.5645C10.0443 18.374 9.42346 17.8263 6.93075 17.8262H3.40534ZM10.7429 17.8262V23.3028H16.3592V22.0388H12.5797V21.1261H15.9912V19.9329H12.5797V19.0902H16.3416V17.8262H10.7429ZM24.0775 17.8262V23.3028H25.9142V17.8262H24.0775ZM34.2769 17.8262V23.3028H36.1137V20.3188H36.1663L39.1931 23.3028H40.9247V17.8262H39.0879V20.8173H39.0353L36.0173 17.8262H34.2769Z" fill="white" fill-opacity="0.8"/>
<path d="M47.5784 22.5211H45.0265V21.8258L46.3873 20.3808C46.6476 20.1077 46.7107 19.9835 46.7107 19.77C46.7107 19.472 46.6673 19.4323 46.265 19.4323C45.91 19.4323 45.8706 19.4869 45.8706 19.9289H45.0029C45.0029 18.8563 45.2869 18.5881 46.269 18.5881C47.2905 18.5881 47.539 18.7868 47.5153 19.5813C47.5035 20.1375 47.5548 20.356 47.2353 20.7036L46.3794 21.6272H47.5784V22.5211Z" fill="white" fill-opacity="0.8"/>
<path d="M49.0128 19.3827C48.571 19.3827 48.5237 19.5018 48.5237 20.5844C48.5237 21.6669 48.571 21.7861 49.0128 21.7861C49.4545 21.7861 49.5018 21.6669 49.5018 20.5844C49.5018 19.5018 49.4545 19.3827 49.0128 19.3827ZM47.656 20.5844C47.656 18.9854 47.9281 18.5881 49.0128 18.5881C50.0974 18.5881 50.3696 18.9854 50.3696 20.5844C50.3696 22.1834 50.0974 22.5807 49.0128 22.5807C47.9281 22.5807 47.656 22.1834 47.656 20.5844Z" fill="white" fill-opacity="0.8"/>
<path d="M50.3696 22.5807L51.3952 18.5484H51.8685L50.8429 22.5807H50.3696Z" fill="white" fill-opacity="0.8"/>
<path d="M54.4029 22.5211H51.8511V21.8258L53.2118 20.3808C53.4721 20.1077 53.5352 19.9835 53.5352 19.77C53.5352 19.472 53.4918 19.4323 53.0895 19.4323C52.7345 19.4323 52.6951 19.4869 52.6951 19.9289H51.8274C51.8274 18.8563 52.1114 18.5881 53.0935 18.5881C54.115 18.5881 54.3635 18.7868 54.3398 19.5813C54.328 20.1375 54.3793 20.356 54.0598 20.7036L53.2039 21.6272H54.4029V22.5211Z" fill="white" fill-opacity="0.8"/>
<path d="M57.0047 18.6477V19.4919H55.4507L55.4073 20.2616C55.4981 19.9786 55.7505 19.8544 56.2238 19.8544C57.0363 19.8544 57.2374 20.1275 57.2374 21.2101C57.2374 22.3075 56.9771 22.5807 55.9319 22.5807C54.8118 22.5807 54.5199 22.3373 54.5199 21.364H55.3876C55.3679 21.7017 55.4231 21.7365 55.9004 21.7365C56.3224 21.7365 56.3697 21.6868 56.3697 21.2349V21.2299C56.3697 20.6986 56.3185 20.639 55.853 20.639C55.4941 20.639 55.3916 20.7036 55.3363 20.9668H54.6146L54.7487 18.6477H57.0047Z" fill="white" fill-opacity="0.8"/>
</svg>
