<svg width="95" height="25" viewBox="0 0 95 25" fill="none" xmlns="http://www.w3.org/2000/svg">
<path d="M9.85849 0.10661H14.702C16.4399 0.10661 16.9644 0.47086 16.9644 1.91009C16.9644 2.90512 16.4708 3.41151 15.4836 3.53589C16.6765 3.6425 17.2523 4.16667 17.2523 5.215C17.2523 6.672 16.6662 7.03625 14.702 7.03625H9.85849V0.10661ZM12.018 5.61478H14.0439C14.9077 5.61478 15.0002 5.54371 15.0002 4.9307C15.0002 4.44208 14.7123 4.22886 14.0439 4.22886H12.018V5.61478ZM12.018 2.80739H13.8382C14.4552 2.80739 14.7123 2.62082 14.7123 2.17662C14.7123 1.59026 14.63 1.52807 13.8382 1.52807H12.018V2.80739Z" fill="white" fill-opacity="0.6"/>
<path d="M23.3154 0.10661H29.8968V1.70576H25.4749V2.77186H29.4855V4.28216H25.4749V5.4371H29.9174V7.03625H23.3154V0.10661Z" fill="white" fill-opacity="0.6"/>
<path d="M43.2697 0.10661L40.8634 4.371H40.5549V7.03625H38.3954V4.371H38.0149L35.5263 0.10661H37.9532L39.4546 2.95842H39.5163L40.9765 0.10661H43.2697Z" fill="white" fill-opacity="0.6"/>
<path d="M52.3205 1.51031C50.6031 1.51031 50.418 1.71464 50.418 3.57143C50.418 5.42822 50.6031 5.63255 52.3205 5.63255C54.0378 5.63255 54.2229 5.42822 54.2229 3.57143C54.2229 1.71464 54.0378 1.51031 52.3205 1.51031ZM48.1557 3.57143C48.1557 0.710732 48.9886 0 52.3205 0C55.6523 0 56.4853 0.710732 56.4853 3.57143C56.4853 6.43212 55.6523 7.14286 52.3205 7.14286C48.9886 7.14286 48.1557 6.43212 48.1557 3.57143Z" fill="white" fill-opacity="0.6"/>
<path d="M62.4509 7.03625V0.10661H64.4974L68.0452 3.89126H68.1069V0.10661H70.2664V7.03625H68.2303L64.6722 3.26048H64.6105V7.03625H62.4509Z" fill="white" fill-opacity="0.6"/>
<path d="M78.5996 1.70576L78.5894 3.57143L78.5996 5.4371H80.3581C81.8184 5.4371 81.9829 5.25053 81.9829 3.57143C81.9829 1.89232 81.8184 1.70576 80.3581 1.70576H78.5996ZM76.4401 7.03625V0.10661H80.5844C83.5152 0.10661 84.2453 0.799574 84.2453 3.57143C84.2453 6.34328 83.5152 7.03625 80.5844 7.03625H76.4401Z" fill="white" fill-opacity="0.6"/>
<path d="M12.2998 17.3041V11.9736H9.85849V10.3745H16.9065V11.9736H14.4448V17.3041H12.2998Z" fill="white" fill-opacity="0.6"/>
<path d="M27.1332 10.3745C29.2578 10.3745 29.789 10.7743 29.789 12.3823C29.789 13.5283 29.2987 14.0703 28.1853 14.2035C29.2476 14.3013 29.789 14.7099 29.789 15.5983V17.3041H27.5418V15.705C27.5418 14.9409 27.4294 14.861 26.316 14.861H24.7226V17.3041H22.5775V10.3745H27.1332ZM24.7226 13.4395H26.5816C27.5418 13.4395 27.6439 13.3595 27.6439 12.6488C27.6439 11.9647 27.5418 11.8848 26.5816 11.8848H24.7226V13.4395Z" fill="white" fill-opacity="0.6"/>
<path d="M35.8145 10.3745H42.3518V11.9736H37.9595V13.0397H41.9432V14.55H37.9595V15.705H42.3722V17.3041H35.8145V10.3745Z" fill="white" fill-opacity="0.6"/>
<path d="M48.403 17.3041V10.3745H50.4357L53.9597 14.1591H54.021V10.3745H56.1661V17.3041H54.1436L50.6094 13.5283H50.5481V17.3041H48.403Z" fill="white" fill-opacity="0.6"/>
<path d="M64.4434 11.9736L64.4332 13.8393L64.4434 15.705H66.1901C67.6405 15.705 67.804 15.5184 67.804 13.8393C67.804 12.1602 67.6405 11.9736 66.1901 11.9736H64.4434ZM62.2983 17.3041V10.3745H66.4148C69.3259 10.3745 70.0511 11.0674 70.0511 13.8393C70.0511 16.6111 69.3259 17.3041 66.4148 17.3041H62.2983Z" fill="white" fill-opacity="0.6"/>
<path d="M79.5493 15.9004C80.9384 15.9004 81.1019 15.8471 81.1019 15.3407C81.1019 14.9409 80.7035 14.7721 79.202 14.5145C76.5973 14.0614 75.9436 13.635 75.9436 12.3467C75.9436 10.6854 76.6994 10.2679 79.6106 10.2679C82.5421 10.2679 83.298 10.7743 83.298 12.7998H81.0508C81.0508 11.8759 80.8976 11.7782 79.6106 11.7782C78.344 11.7782 78.1907 11.8404 78.1907 12.3645C78.1907 12.7288 78.487 12.862 79.5697 13.0575C82.5523 13.5639 83.3491 14.0436 83.3491 15.4384C83.3491 17.0198 82.583 17.4107 79.6106 17.4107C76.5564 17.4107 75.7699 16.9221 75.7699 14.9765H78.0171C78.0171 15.8116 78.1805 15.9004 79.5493 15.9004Z" fill="white" fill-opacity="0.6"/>
<path d="M0 0.535714C0 0.239847 0.240753 0 0.537736 0H6.63208C6.92906 0 7.16981 0.239847 7.16981 0.535714V2.58929C7.16981 2.88515 6.92906 3.125 6.63208 3.125H3.67453C3.37754 3.125 3.13679 3.36485 3.13679 3.66071V6.60714C3.13679 6.90301 2.89604 7.14286 2.59906 7.14286H0.537736C0.240752 7.14286 0 6.90301 0 6.60714V0.535714Z" fill="white" fill-opacity="0.6"/>
<path d="M95 0.535714C95 0.239847 94.7592 0 94.4623 0H88.3679C88.0709 0 87.8302 0.239847 87.8302 0.535714V2.58929C87.8302 2.88515 88.0709 3.125 88.3679 3.125H91.3255C91.6225 3.125 91.8632 3.36485 91.8632 3.66071V6.60714C91.8632 6.90301 92.104 7.14286 92.4009 7.14286H94.4623C94.7592 7.14286 95 6.90301 95 6.60714V0.535714Z" fill="white" fill-opacity="0.6"/>
<path d="M95 24.4643C95 24.7602 94.7592 25 94.4623 25H88.3679C88.0709 25 87.8302 24.7602 87.8302 24.4643V22.4107C87.8302 22.1148 88.0709 21.875 88.3679 21.875H91.3255C91.6225 21.875 91.8632 21.6352 91.8632 21.3393V18.3929C91.8632 18.097 92.104 17.8571 92.4009 17.8571H94.4623C94.7592 17.8571 95 18.097 95 18.3929V24.4643Z" fill="white" fill-opacity="0.6"/>
<path d="M0 24.4643C0 24.7602 0.240753 25 0.537736 25H6.63208C6.92906 25 7.16981 24.7602 7.16981 24.4643V22.4107C7.16981 22.1148 6.92906 21.875 6.63208 21.875H3.67453C3.37754 21.875 3.13679 21.6352 3.13679 21.3393V18.3929C3.13679 18.097 2.89604 17.8571 2.59906 17.8571H0.537736C0.240752 17.8571 0 18.097 0 18.3929V24.4643Z" fill="white" fill-opacity="0.6"/>
<path d="M12.4575 25H9.94811C9.65113 25 9.41038 24.7602 9.41038 24.4643V21.0714C9.41038 20.7756 9.65113 20.5357 9.94811 20.5357H10.478C10.6517 20.5357 10.8146 20.6193 10.9156 20.7601L12.8951 23.521C12.9603 23.6119 12.9953 23.7207 12.9953 23.8324V24.4643C12.9953 24.7602 12.7545 25 12.4575 25Z" fill="white" fill-opacity="0.6"/>
<path d="M16.8797 24.7039L15.1768 21.311C14.9981 20.9548 15.2581 20.5357 15.6578 20.5357H18.9365C19.1402 20.5357 19.3264 20.6504 19.4175 20.8319L21.1203 24.2247C21.2991 24.5809 21.0391 25 20.6394 25H17.3606C17.157 25 16.9708 24.8854 16.8797 24.7039Z" fill="white" fill-opacity="0.6"/>
<path d="M25.3938 24.7039L23.691 21.311C23.5122 20.9548 23.7722 20.5357 24.172 20.5357H27.0026C27.2062 20.5357 27.3924 20.6504 27.4835 20.8319L29.1864 24.2247C29.3651 24.5809 29.1051 25 28.7054 25H25.8748C25.6711 25 25.4849 24.8854 25.3938 24.7039Z" fill="white" fill-opacity="0.6"/>
<path d="M33.9 24.7399L31.8566 21.3471C31.6415 20.99 31.8997 20.5357 32.3177 20.5357H35.0965C35.2854 20.5357 35.4604 20.6344 35.5576 20.7958L37.601 24.1887C37.816 24.5457 37.5579 25 37.1399 25H34.3611C34.1722 25 33.9971 24.9013 33.9 24.7399Z" fill="white" fill-opacity="0.6"/>
<path d="M42.4221 24.7039L40.7193 21.311C40.5405 20.9548 40.8005 20.5357 41.2003 20.5357H44.0309C44.2345 20.5357 44.4207 20.6504 44.5118 20.8319L46.2147 24.2247C46.3934 24.5809 46.1334 25 45.7337 25H42.9031C42.6994 25 42.5132 24.8854 42.4221 24.7039Z" fill="white" fill-opacity="0.6"/>
<path d="M50.4882 24.7039L48.7853 21.311C48.6066 20.9548 48.8666 20.5357 49.2663 20.5357H52.0969C52.3006 20.5357 52.4868 20.6504 52.5779 20.8319L54.2807 24.2247C54.4595 24.5809 54.1995 25 53.7997 25H50.9691C50.7655 25 50.5793 24.8854 50.4882 24.7039Z" fill="white" fill-opacity="0.6"/>
<path d="M56.8514 21.311L58.5542 24.7039C58.6453 24.8854 58.8315 25 59.0352 25H62.3139C62.7136 25 62.9736 24.5809 62.7949 24.2247L61.092 20.8319C61.0009 20.6504 60.8147 20.5357 60.6111 20.5357H57.3323C56.9326 20.5357 56.6726 20.9548 56.8514 21.311Z" fill="white" fill-opacity="0.6"/>
<path d="M66.6202 24.7039L64.9174 21.311C64.7386 20.9548 64.9986 20.5357 65.3984 20.5357H68.6771C68.8808 20.5357 69.067 20.6504 69.1581 20.8319L70.8609 24.2247C71.0397 24.5809 70.7797 25 70.3799 25H67.1012C66.8975 25 66.7113 24.8854 66.6202 24.7039Z" fill="white" fill-opacity="0.6"/>
<path d="M75.5825 24.7039L73.8797 21.311C73.7009 20.9548 73.9609 20.5357 74.3606 20.5357H77.6394C77.843 20.5357 78.0292 20.6504 78.1203 20.8319L79.8232 24.2247C80.0019 24.5809 79.7419 25 79.3422 25H76.0635C75.8598 25 75.6736 24.8854 75.5825 24.7039Z" fill="white" fill-opacity="0.6"/>
<path d="M83.6485 24.7039L81.9457 21.311C81.7669 20.9548 82.0269 20.5357 82.4267 20.5357H85.0519C85.3489 20.5357 85.5896 20.7756 85.5896 21.0714V24.4643C85.5896 24.7602 85.3489 25 85.0519 25H84.1295C83.9258 25 83.7396 24.8854 83.6485 24.7039Z" fill="white" fill-opacity="0.6"/>
</svg>
