<svg width="101" height="25" viewBox="0 0 101 25" fill="none" xmlns="http://www.w3.org/2000/svg">
<path d="M69.2981 16.2415C70.7633 16.2415 70.9199 16.4905 70.9199 18.75C70.9199 21.0095 70.7633 21.2585 69.2981 21.2585C67.8328 21.2585 67.6752 21.0095 67.6752 18.75C67.6752 16.4905 67.8328 16.2415 69.2981 16.2415Z" fill="white" fill-opacity="0.4"/>
<path fill-rule="evenodd" clip-rule="evenodd" d="M99.8721 0.520833C100.219 0.521052 100.5 0.800571 100.5 1.14543V23.8546C100.5 24.1994 100.219 24.4789 99.8721 24.4792H53.4839C53.1372 24.4789 52.8562 24.1994 52.856 23.8546V16.925C52.8562 16.7595 52.9224 16.6007 53.0401 16.4836L58.9547 10.5998C59.0724 10.4827 59.232 10.4168 59.3985 10.4167H76.6801C76.8465 10.4165 77.0062 10.3507 77.1239 10.2336L86.7034 0.703939C86.8211 0.586847 86.9807 0.520966 87.1472 0.520833H99.8721ZM69.2981 14.5833C65.7003 14.5833 64.7977 15.4125 64.7977 18.75C64.7977 22.0875 65.7003 22.9167 69.2981 22.9167C72.8957 22.9167 73.7984 22.0875 73.7984 18.75C73.7984 15.4125 72.8957 14.5833 69.2981 14.5833ZM78.6536 14.5833L73.7984 22.9167H76.2731L81.1283 14.5833H78.6536ZM93.616 14.5833C90.4532 14.5833 89.6689 15.0502 89.6689 16.9159H91.9983C91.9983 16.3147 92.2553 16.2415 93.616 16.2415C95.0013 16.2415 95.2583 16.3665 95.2583 17.0298C95.2582 17.7136 95.001 17.8375 93.616 17.8375H92.0596V19.4967H93.5424C95.1357 19.4967 95.4299 19.6309 95.4301 20.3664C95.4301 21.1127 95.1361 21.2585 93.5424 21.2585C92.1084 21.2585 91.9493 21.1754 91.9492 20.4295H89.4971C89.4972 22.4192 90.3186 22.9167 93.616 22.9167C97.0237 22.9167 97.8821 22.4711 97.8822 20.6991C97.8822 19.4347 97.3552 18.8014 96.1786 18.6666C97.1589 18.5214 97.5876 17.9311 97.5877 16.7603C97.5877 15.019 96.7911 14.5833 93.616 14.5833ZM60.1971 14.5833C56.9395 14.5833 55.9974 15.143 55.9974 17.3818H58.8759C58.8759 16.4594 59.0064 16.3452 60.1838 16.3452C61.5183 16.3452 61.6625 16.4283 61.6625 17.0502C61.6625 17.4958 61.4529 17.7549 60.5898 18.3248L56.0761 21.3409V22.7926H64.54V20.9269H60.5632L63.4019 18.9992C64.4615 18.2737 64.2922 17.8172 64.3314 16.6565C64.4099 14.9981 63.5854 14.5833 60.1971 14.5833ZM85.0632 14.5833C82.0109 14.5834 81.1283 15.1431 81.1283 17.3818H83.8248C83.8248 16.4594 83.9479 16.3452 85.0509 16.3452C86.3013 16.3452 86.4365 16.4283 86.4365 17.0502C86.4365 17.4958 86.2402 17.7548 85.4313 18.3248L81.2019 21.3409V22.7926H89.133V20.9269H85.4067L88.0665 18.9992C89.0594 18.2737 88.901 17.8172 88.9377 16.6565C89.0113 14.9981 88.2383 14.5833 85.0632 14.5833Z" fill="white" fill-opacity="0.4"/>
<path d="M2.40537 1.74129L2.39629 3.64583L2.40537 5.55037H3.95688C5.24527 5.55037 5.39044 5.35992 5.39044 3.64583C5.39044 1.93175 5.24527 1.74129 3.95688 1.74129H2.40537ZM0.5 7.18284V0.108831H4.15649C6.74234 0.108831 7.38653 0.816231 7.38653 3.64583C7.38653 6.47544 6.74234 7.18284 4.15649 7.18284H0.5Z" fill="white" fill-opacity="0.4"/>
<path d="M7.65752 0.108831H13.4644V1.74129H9.56289V2.8296H13.1014V4.37137H9.56289V5.55037H13.4825V7.18284H7.65752V0.108831Z" fill="white" fill-opacity="0.4"/>
<path d="M16.9363 5.7499C18.1702 5.7499 18.3154 5.69548 18.3154 5.17853C18.3154 4.77042 17.9615 4.5981 16.6278 4.3351C14.3141 3.87256 13.7334 3.43724 13.7334 2.1222C13.7334 0.426254 14.4048 0 16.9907 0C19.5947 0 20.2661 0.516947 20.2661 2.58473H18.27C18.27 1.64153 18.1339 1.54177 16.9907 1.54177C15.8656 1.54177 15.7295 1.60526 15.7295 2.14034C15.7295 2.51218 15.9926 2.64822 16.9544 2.84774C19.6038 3.36469 20.3115 3.85443 20.3115 5.2783C20.3115 6.89262 19.631 7.29167 16.9907 7.29167C14.2778 7.29167 13.5792 6.79286 13.5792 4.80669H15.5753C15.5753 5.6592 15.7205 5.7499 16.9363 5.7499Z" fill="white" fill-opacity="0.4"/>
<path d="M20.5815 7.18284V0.108831H22.4868V7.18284H20.5815Z" fill="white" fill-opacity="0.4"/>
<path d="M26.4933 3.39189H29.8866V7.18284H28.1627V6.04918C27.9359 6.91076 27.3552 7.29167 26.33 7.29167C23.4719 7.29167 22.7551 6.56613 22.7551 3.64583C22.7551 0.725539 23.4719 0 26.33 0C29.1971 0 29.9048 0.526016 29.8866 2.63008H27.8905C27.9087 1.6506 27.7544 1.54177 26.33 1.54177C24.9055 1.54177 24.7512 1.75036 24.7512 3.64583C24.7512 5.5413 24.9055 5.7499 26.33 5.7499C27.4187 5.7499 27.9087 5.47782 27.945 4.84297H26.4933V3.39189Z" fill="white" fill-opacity="0.4"/>
<path d="M30.2536 7.18284V0.108831H32.0592L35.1894 3.97233H35.2439V0.108831H37.1492V7.18284H35.3527L32.2134 3.32841H32.159V7.18284H30.2536Z" fill="white" fill-opacity="0.4"/>
<path d="M3.2312 16.1458V10.5369H0.5V8.85417H8.38505V10.5369H5.631V16.1458H3.2312Z" fill="white" fill-opacity="0.4"/>
<path d="M8.44442 16.1458V8.85417H10.8442V11.5839H14.2725V8.85417H16.6723V16.1458H14.2725V13.2666H10.8442V16.1458H8.44442Z" fill="white" fill-opacity="0.4"/>
<path d="M17.2472 8.85417H24.5609V10.5369H19.647V11.6587H24.1038V13.2479H19.647V14.4631H24.5838V16.1458H17.2472V8.85417Z" fill="white" fill-opacity="0.4"/>
<path d="M0.5 17.7083H8.06515V19.3655H2.98232V20.6545H7.59233V22.3117H2.98232V24.8895H0.5V17.7083Z" fill="white" fill-opacity="0.4"/>
<path d="M16.6051 21.9434C16.6051 24.3924 15.7895 25 12.5152 25C9.24093 25 8.42531 24.3924 8.42531 21.9434V17.7083H10.9076V21.9434C10.9076 23.2876 11.0731 23.4349 12.5152 23.4349C13.9573 23.4349 14.1228 23.2876 14.1228 21.9434V17.7083H16.6051V21.9434Z" fill="white" fill-opacity="0.4"/>
<path d="M19.3766 24.8895V19.3655H16.5515V17.7083H24.7077V19.3655H21.8589V24.8895H19.3766Z" fill="white" fill-opacity="0.4"/>
<path d="M32.8307 21.9434C32.8307 24.3924 32.0151 25 28.7408 25C25.4665 25 24.6509 24.3924 24.6509 21.9434V17.7083H27.1332V21.9434C27.1332 23.2876 27.2987 23.4349 28.7408 23.4349C30.1829 23.4349 30.3484 23.2876 30.3484 21.9434V17.7083H32.8307V21.9434Z" fill="white" fill-opacity="0.4"/>
<path d="M38.5809 17.7083C41.0396 17.7083 41.6543 18.1226 41.6543 19.789C41.6543 20.9767 41.0869 21.5383 39.7984 21.6764C41.0278 21.7777 41.6543 22.2012 41.6543 23.1218V24.8895H39.0537V23.2323C39.0537 22.4406 38.9237 22.3577 37.6353 22.3577H35.7913V24.8895H33.3089V17.7083H38.5809ZM35.7913 20.8846H37.9426C39.0537 20.8846 39.1719 20.8018 39.1719 20.0652C39.1719 19.3563 39.0537 19.2735 37.9426 19.2735H35.7913V20.8846Z" fill="white" fill-opacity="0.4"/>
<path d="M42.1259 17.7083H49.691V19.3655H44.6082V20.4703H49.2182V22.0355H44.6082V23.2323H49.7147V24.8895H42.1259V17.7083Z" fill="white" fill-opacity="0.4"/>
<path d="M48.4835 0.183058C48.6013 0.065848 48.7612 0 48.9278 0H50.8157C51.3754 0 51.6557 0.673214 51.2599 1.06694L44.1395 8.15027C44.0217 8.26748 43.8619 8.33333 43.6953 8.33333H41.8074C41.2476 8.33333 40.9673 7.66012 41.3631 7.26639L48.4835 0.183058Z" fill="white" fill-opacity="0.4"/>
<path d="M54.2427 0.183058C54.3605 0.065848 54.5203 0 54.6869 0H56.5748C57.1346 0 57.4149 0.673214 57.0191 1.06694L49.8987 8.15027C49.7809 8.26748 49.6211 8.33333 49.4544 8.33333H47.5665C47.0068 8.33333 46.7265 7.66012 47.1223 7.26639L54.2427 0.183058Z" fill="white" fill-opacity="0.4"/>
<path d="M59.4783 0.183058C59.5961 0.065848 59.7559 0 59.9225 0H61.8104C62.3702 0 62.6505 0.673214 62.2547 1.06694L55.1343 8.15027C55.0165 8.26748 54.8567 8.33333 54.69 8.33333H52.8021C52.2424 8.33333 51.9621 7.66012 52.3579 7.26639L59.4783 0.183058Z" fill="white" fill-opacity="0.4"/>
<path d="M64.7139 0.183058C64.8317 0.065848 64.9915 0 65.1581 0H67.046C67.6058 0 67.8861 0.673214 67.4903 1.06694L60.3699 8.15027C60.2521 8.26748 60.0923 8.33333 59.9256 8.33333H58.0377C57.478 8.33333 57.1977 7.66012 57.5935 7.26639L64.7139 0.183058Z" fill="white" fill-opacity="0.4"/>
<path d="M69.9495 0.183058C70.0673 0.065848 70.2271 0 70.3937 0H72.2817C72.8414 0 73.1217 0.673214 72.7259 1.06694L65.6055 8.15027C65.4877 8.26748 65.3279 8.33333 65.1612 8.33333H63.2733C62.7136 8.33333 62.4333 7.66012 62.8291 7.26639L69.9495 0.183058Z" fill="white" fill-opacity="0.4"/>
<path d="M75.1851 0.183058C75.3029 0.065848 75.4627 0 75.6293 0H77.5173C78.077 0 78.3573 0.673214 77.9615 1.06694L70.8411 8.15027C70.7233 8.26748 70.5635 8.33333 70.3968 8.33333H68.5089C67.9492 8.33333 67.6689 7.66012 68.0647 7.26639L75.1851 0.183058Z" fill="white" fill-opacity="0.4"/>
<path d="M80.4207 0.183058C80.5385 0.065848 80.6983 0 80.865 0H82.7529C83.3126 0 83.5929 0.673214 83.1971 1.06694L76.0767 8.15027C75.9589 8.26748 75.7991 8.33333 75.6324 8.33333H73.7445C73.1848 8.33333 72.9045 7.66012 73.3003 7.26639L80.4207 0.183058Z" fill="white" fill-opacity="0.4"/>
</svg>
