<svg width="88" height="25" viewBox="0 0 88 25" fill="none" xmlns="http://www.w3.org/2000/svg">
<path d="M6.66664 20.4954C7.32167 20.4954 7.39155 20.5395 7.39159 20.9147C7.39159 21.3049 7.32186 21.3494 6.66664 21.3494H5.39726V20.4954H6.66664Z" fill="white" fill-opacity="0.2"/>
<path d="M25.6382 20.4954L26.2863 21.8999H24.9334L25.5959 20.4954H25.6382Z" fill="white" fill-opacity="0.2"/>
<path d="M52.7925 20.5442C53.7789 20.5442 53.89 20.6468 53.89 21.5686C53.89 22.4904 53.7789 22.593 52.7925 22.5931H51.6047L51.5971 21.5686L51.6047 20.5442H52.7925Z" fill="white" fill-opacity="0.2"/>
<path fill-rule="evenodd" clip-rule="evenodd" d="M54.3259 0.490196C54.4822 0.490321 54.6321 0.552326 54.7427 0.662531L64.2294 10.1218C64.3399 10.232 64.4898 10.294 64.6461 10.2941H81.5312C81.6903 10.2941 81.8426 10.3585 81.9537 10.4722L87.8329 16.4953C87.9401 16.6051 88 16.7528 88 16.906V24.4121C87.9998 24.7367 87.736 24.9998 87.4104 25H1.08118C0.755653 24.9998 0.491804 24.7367 0.49162 24.4121V16.4206C0.49162 16.2646 0.553819 16.1145 0.664455 16.0041L3.76013 12.9174C3.87065 12.8072 4.02056 12.7452 4.17685 12.7451H28.7617C28.918 12.7452 29.0679 12.8072 29.1784 12.9174L32.2741 16.0041C32.3846 16.1143 32.5345 16.1763 32.6908 16.1765H40.2149C40.5404 16.1763 40.8043 15.9132 40.8045 15.5886V1.07805C40.8047 0.753479 41.0685 0.490404 41.394 0.490196H54.3259ZM31.2592 19.6078C29.063 19.6079 28.512 19.9982 28.512 21.5686C28.512 23.1391 29.063 23.5294 31.2592 23.5294C32.0471 23.5294 32.4934 23.3244 32.6678 22.8611V23.471H33.9928V21.4317H31.385V22.212H32.5007C32.4728 22.5534 32.0959 22.7003 31.2592 22.7003C30.1648 22.7003 30.0464 22.5879 30.0464 21.5686C30.0464 20.5494 30.1648 20.437 31.2592 20.437C32.3536 20.437 32.4733 20.4955 32.4594 21.0219H33.9928C34.0067 19.8907 33.4624 19.6078 31.2592 19.6078ZM62.7728 19.6078C60.7929 19.6079 60.2792 19.8371 60.2792 20.7491C60.2792 21.4563 60.7236 21.6904 62.4953 21.9391C63.5164 22.0806 63.7877 22.1735 63.7877 22.393C63.7877 22.6709 63.6762 22.7003 62.7315 22.7003C61.8005 22.7003 61.6887 22.6514 61.6887 22.1929H60.1611C60.1611 23.261 60.6956 23.5294 62.7728 23.5294C64.7946 23.5294 65.3154 23.3148 65.3154 22.4466C65.3154 21.6808 64.7737 21.4177 62.7449 21.1397C62.0086 21.0324 61.8068 20.9586 61.8068 20.7587C61.8069 20.4712 61.9117 20.437 62.7728 20.437C63.6482 20.437 63.7522 20.4907 63.7522 20.998H65.2808C65.2808 19.8859 64.7668 19.6078 62.7728 19.6078ZM69.9243 19.6078C67.7359 19.6079 67.1868 19.9981 67.1868 21.5686C67.1868 23.1392 67.7359 23.5294 69.9243 23.5294C70.7094 23.5294 71.1544 23.3245 71.3281 22.8611V23.471H72.6484V21.4317H70.0491V22.212H71.1611C71.1333 22.5534 70.7581 22.7003 69.9243 22.7003C68.8337 22.7003 68.7154 22.588 68.7154 21.5686C68.7154 20.5493 68.8337 20.437 69.9243 20.437C71.0148 20.437 71.1336 20.4955 71.1198 21.0219H72.6484C72.6622 19.8907 72.1196 19.6078 69.9243 19.6078ZM81.0328 19.6078C79.0528 19.6078 78.5383 19.8371 78.5382 20.7491C78.5382 21.4563 78.9829 21.6904 80.7544 21.9391C81.7757 22.0806 82.0468 22.1735 82.0468 22.393C82.0468 22.671 81.9354 22.7003 80.9906 22.7003C80.0598 22.7003 79.9488 22.6513 79.9488 22.1929H78.4201C78.4201 23.2611 78.9554 23.5294 81.0328 23.5294C83.0544 23.5294 83.5754 23.3147 83.5754 22.4466C83.5754 21.6808 83.0335 21.4177 81.005 21.1397C80.2685 21.0324 80.0669 20.9586 80.0669 20.7587C80.0669 20.4712 80.1716 20.437 81.0328 20.437C81.908 20.437 82.0122 20.4908 82.0122 20.998H83.5409C83.5409 19.886 83.0266 19.6079 81.0328 19.6078ZM3.93296 19.6662V23.471H5.39726V22.1297H6.48516C7.24514 22.1297 7.32149 22.1736 7.32149 22.5931V23.471H8.85588V22.5347C8.85588 22.0469 8.48637 21.8224 7.76126 21.7687C8.52124 21.6955 8.85588 21.3974 8.85588 20.7682C8.85575 19.8858 8.49306 19.6663 7.04303 19.6662H3.93296ZM9.13434 19.6662V23.471H13.6108V22.5931H10.5986V21.9593H13.3179V21.1292H10.5986V20.5442H13.5964V19.6662H9.13434ZM13.8931 19.6662V23.471H15.3574V19.6662H13.8931ZM15.703 19.6662V23.471H17.1673V20.6419H17.2086L18.0248 23.471H20.2909L21.1137 20.6419H21.156V23.471H22.6203V19.6662H20.047L19.2241 22.4954H19.1684L18.3522 19.6662H15.703ZM24.4456 19.6662L22.6529 23.471H24.2296L24.557 22.729H26.6493L26.9421 23.471H28.6148L26.872 19.6662H24.4456ZM34.2751 19.6662V23.471H35.7394V19.6662H34.2751ZM36.0851 19.6662V23.471H37.5494V21.3982H37.5917L40.0037 23.471H41.3844V19.6662H39.9201V21.7438H39.8779L37.4726 19.6662H36.0851ZM41.7359 19.6662V23.471H46.2123V22.5931H43.2002V21.9593H45.9194V21.1292H43.2002V20.5442H46.1979V19.6662H41.7359ZM50.1453 19.6662V23.471H52.9452C54.9253 23.471 55.4186 23.0904 55.4186 21.5686C55.4186 20.0468 54.9253 19.6662 52.9452 19.6662H50.1453ZM55.626 19.6662V23.471H60.0862V22.5931H57.0855V21.9593H59.7952V21.1292H57.0855V20.5442H60.0727V19.6662H55.626ZM65.5228 19.6662V23.471H66.9813V19.6662H65.5228ZM72.9288 19.6662V23.471H74.3883V21.3982H74.4296L76.8339 23.471H78.2089V19.6662H76.7504V21.7438H76.7091L74.3115 19.6662H72.9288ZM45.327 3.43137C45.0015 3.43158 44.7376 3.69465 44.7374 4.01922V15.5886C44.7376 15.9132 45.0015 16.1763 45.327 16.1765H61.8462C62.1717 16.1763 62.4355 15.9132 62.4358 15.5886V14.9424C62.4358 14.791 62.3774 14.6449 62.2725 14.5355L51.7939 3.61328C51.6826 3.49731 51.5286 3.43137 51.3676 3.43137H45.327Z" fill="white" fill-opacity="0.2"/>
<path d="M0 0.0731637H3.92497C5.33329 0.0731637 5.75829 0.323139 5.75829 1.31085C5.75829 1.99371 5.35829 2.34124 4.5583 2.42659C5.52496 2.49976 5.99162 2.85948 5.99162 3.57892C5.99162 4.57882 5.51662 4.8288 3.92497 4.8288H0V0.0731637ZM1.74999 3.85328H3.39164C4.09164 3.85328 4.16663 3.80451 4.16663 3.38382C4.16663 3.04848 3.9333 2.90216 3.39164 2.90216H1.74999V3.85328ZM1.74999 1.92664H3.22498C3.72497 1.92664 3.9333 1.79861 3.9333 1.49376C3.9333 1.09136 3.86664 1.04868 3.22498 1.04868H1.74999V1.92664Z" fill="white" fill-opacity="0.2"/>
<path d="M6.32157 0.0731637H11.6549V1.17062H8.07155V1.90225H11.3215V2.93874H8.07155V3.73134H11.6715V4.8288H6.32157V0.0731637Z" fill="white" fill-opacity="0.2"/>
<path d="M17.9083 0.0731637L15.9583 2.99971H15.7083V4.8288H13.9584V2.99971H13.65L11.6334 0.0731637H13.6L14.8167 2.03029H14.8667L16.05 0.0731637H17.9083Z" fill="white" fill-opacity="0.2"/>
<path d="M20.6593 1.03648C19.2677 1.03648 19.1177 1.17671 19.1177 2.45098C19.1177 3.72525 19.2677 3.86548 20.6593 3.86548C22.051 3.86548 22.201 3.72525 22.201 2.45098C22.201 1.17671 22.051 1.03648 20.6593 1.03648ZM17.2844 2.45098C17.2844 0.487757 17.9594 0 20.6593 0C23.3593 0 24.0343 0.487757 24.0343 2.45098C24.0343 4.4142 23.3593 4.90196 20.6593 4.90196C17.9594 4.90196 17.2844 4.4142 17.2844 2.45098Z" fill="white" fill-opacity="0.2"/>
<path d="M24.2853 4.8288V0.0731637H25.9436L28.8186 2.67047H28.8686V0.0731637H30.6186V4.8288H28.9686L26.0853 2.23759H26.0353V4.8288H24.2853Z" fill="white" fill-opacity="0.2"/>
<path d="M32.7882 1.17062L32.7798 2.45098L32.7882 3.73134H34.2132C35.3965 3.73134 35.5298 3.60331 35.5298 2.45098C35.5298 1.29865 35.3965 1.17062 34.2132 1.17062H32.7882ZM31.0382 4.8288V0.0731637H34.3965C36.7715 0.0731637 37.3631 0.548727 37.3631 2.45098C37.3631 4.35323 36.7715 4.8288 34.3965 4.8288H31.0382Z" fill="white" fill-opacity="0.2"/>
<path d="M1.9562 11.2013V7.54317H0V6.44571H5.64761V7.54317H3.67504V11.2013H1.9562Z" fill="white" fill-opacity="0.2"/>
<path d="M9.34062 6.44571C11.0431 6.44571 11.4687 6.72008 11.4687 7.82363C11.4687 8.61014 11.0758 8.98205 10.1837 9.07351C11.0349 9.14057 11.4687 9.42103 11.4687 10.0307V11.2013H9.66801V10.1039C9.66801 9.57955 9.57798 9.52468 8.68582 9.52468H7.40897V11.2013H5.69013V6.44571H9.34062ZM7.40897 8.54917H8.89863C9.66801 8.54917 9.74986 8.49429 9.74986 8.00654C9.74986 7.53707 9.66801 7.4822 8.89863 7.4822H7.40897V8.54917Z" fill="white" fill-opacity="0.2"/>
<path d="M11.7953 6.44571H17.0336V7.54317H13.5141V8.2748H16.7062V9.31129H13.5141V10.1039H17.05V11.2013H11.7953V6.44571Z" fill="white" fill-opacity="0.2"/>
<path d="M17.3809 11.2013V6.44571H19.0097L21.8335 9.04302H21.8826V6.44571H23.6014V11.2013H21.9808L19.1488 8.61014H19.0997V11.2013H17.3809Z" fill="white" fill-opacity="0.2"/>
<path d="M25.7324 7.54317L25.7242 8.82353L25.7324 10.1039H27.132C28.2943 10.1039 28.4252 9.97586 28.4252 8.82353C28.4252 7.6712 28.2943 7.54317 27.132 7.54317H25.7324ZM24.0135 11.2013V6.44571H27.3121C29.6448 6.44571 30.2259 6.92128 30.2259 8.82353C30.2259 10.7258 29.6448 11.2013 27.3121 11.2013H24.0135Z" fill="white" fill-opacity="0.2"/>
<path d="M33.3351 10.238C34.4482 10.238 34.5792 10.2014 34.5792 9.85392C34.5792 9.57955 34.26 9.46371 33.0568 9.2869C30.9696 8.97595 30.4458 8.6833 30.4458 7.79924C30.4458 6.65911 31.0515 6.37255 33.3842 6.37255C35.7333 6.37255 36.339 6.72008 36.339 8.11018H34.5383C34.5383 7.4761 34.4155 7.40903 33.3842 7.40903C32.3693 7.40903 32.2465 7.45171 32.2465 7.81143C32.2465 8.06141 32.4839 8.15286 33.3515 8.287C35.7415 8.63452 36.3799 8.96376 36.3799 9.92098C36.3799 11.0062 35.766 11.2745 33.3842 11.2745C30.9369 11.2745 30.3067 10.9392 30.3067 9.60394H32.1073C32.1073 10.1771 32.2383 10.238 33.3351 10.238Z" fill="white" fill-opacity="0.2"/>
<path d="M56.8839 0.836816C56.5742 0.52801 56.7936 0 57.2316 0H59.774C59.9044 0 60.0295 0.0516455 60.1216 0.143575L67.9876 7.98671C68.2973 8.29552 68.0779 8.82353 67.6399 8.82353H65.0975C64.9671 8.82353 64.8421 8.77188 64.7499 8.67995L56.8839 0.836816Z" fill="white" fill-opacity="0.2"/>
<path d="M62.7834 0.836816C62.4737 0.52801 62.693 0 63.131 0H65.6735C65.8038 0 65.9289 0.0516455 66.0211 0.143575L73.887 7.98671C74.1967 8.29552 73.9774 8.82353 73.5394 8.82353H70.9969C70.8665 8.82353 70.7415 8.77188 70.6493 8.67995L62.7834 0.836816Z" fill="white" fill-opacity="0.2"/>
<path d="M68.6828 0.836816C68.3731 0.52801 68.5925 0 69.0305 0H71.5729C71.7033 0 71.8283 0.0516455 71.9205 0.143575L79.7865 7.98671C80.0962 8.29552 79.8768 8.82353 79.4388 8.82353H76.8964C76.766 8.82353 76.6409 8.77188 76.5487 8.67995L68.6828 0.836816Z" fill="white" fill-opacity="0.2"/>
</svg>
